<svg version="1.1" viewBox="0.0 0.0 600.0 371.0" fill="none" stroke="none" stroke-linecap="square" stroke-miterlimit="10" width="600" height="371" xmlns:xlink="http://www.w3.org/1999/xlink" xmlns="http://www.w3.org/2000/svg"><path fill="#ffffff" d="M0 0L600.0 0L600.0 371.0L0 371.0L0 0Z" fill-rule="nonzero"/><path stroke="#333333" stroke-width="1.0" stroke-linecap="butt" d="M80.5 300.5L581.5 300.5" fill-rule="nonzero"/><path stroke="#cccccc" stroke-width="1.0" stroke-linecap="butt" d="M80.5 246.5L581.5 246.5" fill-rule="nonzero"/><path stroke="#cccccc" stroke-width="1.0" stroke-linecap="butt" d="M80.5 192.5L581.5 192.5" fill-rule="nonzero"/><path stroke="#cccccc" stroke-width="1.0" stroke-linecap="butt" d="M80.5 139.5L581.5 139.5" fill-rule="nonzero"/><path stroke="#cccccc" stroke-width="1.0" stroke-linecap="butt" d="M80.5 85.5L581.5 85.5" fill-rule="nonzero"/><clipPath id="id_0"><path d="M80.55 85.416664L581.45 85.416664L581.45 300.45L80.55 300.45L80.55 85.416664Z" clip-rule="nonzero"/></clipPath><path stroke="#4285f4" stroke-width="2.0" stroke-linecap="butt" clip-path="url(#id_0)" d="M107.927124 128.42334L107.927124 215.61263" fill-rule="nonzero"/><path stroke="#4285f4" stroke-width="2.0" stroke-linecap="butt" clip-path="url(#id_0)" d="M107.927124 264.6111L107.927124 189.57072" fill-rule="nonzero"/><path fill="#4285f4" clip-path="url(#id_0)" d="M93.745544 188.57072L122.1087 188.57072L122.1087 216.61264L93.745544 216.61264L93.745544 188.57072Z" fill-rule="nonzero"/><path stroke="#4285f4" stroke-width="2.0" stroke-linecap="butt" clip-path="url(#id_0)" d="M148.48582 153.83636L148.48582 216.30652" fill-rule="nonzero"/><path stroke="#4285f4" stroke-width="2.0" stroke-linecap="butt" clip-path="url(#id_0)" d="M148.48582 246.69167L148.48582 189.85136" fill-rule="nonzero"/><path fill="#4285f4" clip-path="url(#id_0)" d="M134.30424 188.85136L162.6674 188.85136L162.6674 217.30652L134.30424 217.30652L134.30424 188.85136Z" fill-rule="nonzero"/><path stroke="#4285f4" stroke-width="2.0" stroke-linecap="butt" clip-path="url(#id_0)" d="M189.04454 144.06212L189.04454 211.187" fill-rule="nonzero"/><path stroke="#4285f4" stroke-width="2.0" stroke-linecap="butt" clip-path="url(#id_0)" d="M189.04454 260.8386L189.04454 185.70377" fill-rule="nonzero"/><path fill="#4285f4" clip-path="url(#id_0)" d="M174.86296 184.70377L203.22612 184.70377L203.22612 212.18701L174.86296 212.18701L174.86296 184.70377Z" fill-rule="nonzero"/><path stroke="#4285f4" stroke-width="2.0" stroke-linecap="butt" clip-path="url(#id_0)" d="M229.60324 143.31026L229.60324 203.01302" fill-rule="nonzero"/><path stroke="#4285f4" stroke-width="2.0" stroke-linecap="butt" clip-path="url(#id_0)" d="M229.60324 251.57878L229.60324 179.90102" fill-rule="nonzero"/><path fill="#4285f4" clip-path="url(#id_0)" d="M215.42166 178.90102L243.78482 178.90102L243.78482 204.01303L215.42166 204.01303L215.42166 178.90102Z" fill-rule="nonzero"/><path stroke="#4285f4" stroke-width="2.0" stroke-linecap="butt" clip-path="url(#id_0)" d="M270.16196 139.175L270.16196 198.36397" fill-rule="nonzero"/><path stroke="#4285f4" stroke-width="2.0" stroke-linecap="butt" clip-path="url(#id_0)" d="M270.16196 243.86227L270.16196 175.78726" fill-rule="nonzero"/><path fill="#4285f4" clip-path="url(#id_0)" d="M255.98036 174.78726L284.3435 174.78726L284.3435 199.36398L255.98036 199.36398L255.98036 174.78726Z" fill-rule="nonzero"/><path stroke="#4285f4" stroke-width="2.0" stroke-linecap="butt" clip-path="url(#id_0)" d="M310.72064 136.01274L310.72064 189.86143" fill-rule="nonzero"/><path stroke="#4285f4" stroke-width="2.0" stroke-linecap="butt" clip-path="url(#id_0)" d="M310.72064 217.74487L310.72064 167.33412" fill-rule="nonzero"/><path fill="#4285f4" clip-path="url(#id_0)" d="M296.53906 166.33412L324.90222 166.33412L324.90222 190.86142L296.53906 190.86142L296.53906 166.33412Z" fill-rule="nonzero"/><path stroke="#4285f4" stroke-width="2.0" stroke-linecap="butt" clip-path="url(#id_0)" d="M351.27936 112.29583L351.27936 176.62575" fill-rule="nonzero"/><path stroke="#4285f4" stroke-width="2.0" stroke-linecap="butt" clip-path="url(#id_0)" d="M351.27936 202.49037L351.27936 158.39714" fill-rule="nonzero"/><path fill="#4285f4" clip-path="url(#id_0)" d="M337.09778 157.39714L365.46094 157.39714L365.46094 177.62575L337.09778 177.62575L337.09778 157.39714Z" fill-rule="nonzero"/><path stroke="#4285f4" stroke-width="2.0" stroke-linecap="butt" clip-path="url(#id_0)" d="M391.83804 112.29583L391.83804 159.72206" fill-rule="nonzero"/><path stroke="#4285f4" stroke-width="2.0" stroke-linecap="butt" clip-path="url(#id_0)" d="M391.83804 196.14279L391.83804 137.94963" fill-rule="nonzero"/><path fill="#4285f4" clip-path="url(#id_0)" d="M377.65646 136.94963L406.01962 136.94963L406.01962 160.72206L377.65646 160.72206L377.65646 136.94963Z" fill-rule="nonzero"/><path stroke="#4285f4" stroke-width="2.0" stroke-linecap="butt" clip-path="url(#id_0)" d="M432.39676 85.416664L432.39676 149.92667" fill-rule="nonzero"/><path stroke="#4285f4" stroke-width="2.0" stroke-linecap="butt" clip-path="url(#id_0)" d="M432.39676 182.18167L432.39676 123.815475" fill-rule="nonzero"/><path fill="#4285f4" clip-path="url(#id_0)" d="M418.21518 122.815475L446.57834 122.815475L446.57834 150.92667L418.21518 150.92667L418.21518 122.815475Z" fill-rule="nonzero"/><path stroke="#4285f4" stroke-width="2.0" stroke-linecap="butt" clip-path="url(#id_0)" d="M472.95547 85.416664L472.95547 139.175" fill-rule="nonzero"/><path stroke="#4285f4" stroke-width="2.0" stroke-linecap="butt" clip-path="url(#id_0)" d="M472.95547 182.18167L472.95547 114.739395" fill-rule="nonzero"/><path fill="#4285f4" clip-path="url(#id_0)" d="M458.7739 113.739395L487.13705 113.739395L487.13705 140.175L458.7739 140.175L458.7739 113.739395Z" fill-rule="nonzero"/><path stroke="#4285f4" stroke-width="2.0" stroke-linecap="butt" clip-path="url(#id_0)" d="M513.51416 85.416664L513.51416 128.00981" fill-rule="nonzero"/><path stroke="#4285f4" stroke-width="2.0" stroke-linecap="butt" clip-path="url(#id_0)" d="M513.51416 154.98627L513.51416 108.54066" fill-rule="nonzero"/><path fill="#4285f4" clip-path="url(#id_0)" d="M499.33258 107.54066L527.69574 107.54066L527.69574 129.00981L499.33258 129.00981L499.33258 107.54066Z" fill-rule="nonzero"/><path stroke="#4285f4" stroke-width="2.0" stroke-linecap="butt" clip-path="url(#id_0)" d="M554.0729 85.416664L554.0729 124.03996" fill-rule="nonzero"/><path stroke="#4285f4" stroke-width="2.0" stroke-linecap="butt" clip-path="url(#id_0)" d="M554.0729 130.04622L554.0729 101.54417" fill-rule="nonzero"/><path fill="#4285f4" clip-path="url(#id_0)" d="M539.8913 100.54417L568.25446 100.54417L568.25446 125.03996L539.8913 125.03996L539.8913 100.54417Z" fill-rule="nonzero"/><path fill="#000000" d="M317.4375 349.45L317.4375 340.85626L321.25 340.85626Q322.40625 340.85626 323.0 341.09064Q323.59375 341.325 323.95312 341.91876Q324.3125 342.4969 324.3125 343.2Q324.3125 344.1219 323.71875 344.7469Q323.125 345.3719 321.89062 345.54376Q322.34375 345.7625 322.57812 345.96564Q323.07812 346.41876 323.51562 347.10626L325.01562 349.45L323.57812 349.45L322.45312 347.66876Q321.95312 346.8875 321.625 346.48126Q321.3125 346.075 321.04688 345.91876Q320.79688 345.7469 320.53125 345.66876Q320.34375 345.6375 319.90625 345.6375L318.57812 345.6375L318.57812 349.45L317.4375 349.45ZM318.57812 344.65314L321.03125 344.65314Q321.79688 344.65314 322.23438 344.4969Q322.6875 344.325 322.90625 343.98126Q323.14062 343.6219 323.14062 343.2Q323.14062 342.59064 322.6875 342.2Q322.25 341.8094 321.29688 341.8094L318.57812 341.8094L318.57812 344.65314ZM330.35938 348.6844Q329.76562 349.1844 329.21875 349.3875Q328.6875 349.59064 328.0625 349.59064Q327.03125 349.59064 326.48438 349.09064Q325.9375 348.59064 325.9375 347.8094Q325.9375 347.35626 326.14062 346.98126Q326.34375 346.59064 326.6875 346.3719Q327.03125 346.1375 327.45312 346.02814Q327.75 345.9344 328.39062 345.85626Q329.65625 345.71564 330.26562 345.4969Q330.26562 345.27814 330.26562 345.23126Q330.26562 344.575 329.96875 344.3094Q329.5625 343.96564 328.76562 343.96564Q328.03125 343.96564 327.67188 344.23126Q327.3125 344.48126 327.14062 345.1375L326.10938 344.9969Q326.25 344.34064 326.57812 343.9344Q326.90625 343.52814 327.51562 343.3094Q328.125 343.09064 328.92188 343.09064Q329.71875 343.09064 330.21875 343.27814Q330.71875 343.46564 330.95312 343.7469Q331.1875 344.02814 331.28125 344.46564Q331.32812 344.73126 331.32812 345.4344L331.32812 346.84064Q331.32812 348.3094 331.39062 348.7Q331.46875 349.09064 331.67188 349.45L330.5625 349.45Q330.40625 349.1219 330.35938 348.6844ZM330.26562 346.325Q329.6875 346.5594 328.54688 346.73126Q327.89062 346.825 327.625 346.95Q327.35938 347.0594 327.20312 347.27814Q327.0625 347.4969 327.0625 347.77814Q327.0625 348.2 327.375 348.48126Q327.70312 348.7625 328.3125 348.7625Q328.92188 348.7625 329.39062 348.4969Q329.875 348.23126 330.09375 347.7625Q330.26562 347.40314 330.26562 346.71564L330.26562 346.325ZM333.29688 349.45L333.29688 343.23126L334.23438 343.23126L334.23438 344.10626Q334.92188 343.09064 336.21875 343.09064Q336.78125 343.09064 337.25 343.29376Q337.73438 343.4969 337.96875 343.825Q338.20312 344.15314 338.29688 344.59064Q338.34375 344.8875 338.34375 345.6219L338.34375 349.45L337.29688 349.45L337.29688 345.66876Q337.29688 345.0125 337.17188 344.7Q337.04688 344.3875 336.73438 344.2Q336.42188 343.9969 336.0 343.9969Q335.32812 343.9969 334.82812 344.4344Q334.34375 344.85626 334.34375 346.04376L334.34375 349.45L333.29688 349.45ZM340.29688 349.45L340.29688 340.85626L341.35938 340.85626L341.35938 345.7625L343.84375 343.23126L345.21875 343.23126L342.82812 345.52814L345.45312 349.45L344.15625 349.45L342.09375 346.2625L341.35938 346.98126L341.35938 349.45L340.29688 349.45Z" fill-rule="nonzero"/><path fill="#000000" d="M29.550013 218.01146L20.956263 220.29271L20.956263 219.12083L26.596888 217.80833Q27.471888 217.60521 28.346888 217.44896Q26.971888 217.12083 26.753138 217.05833L20.956263 215.43333L20.956263 214.05833L25.300013 212.82396Q26.925013 212.37083 28.346888 212.15208Q27.534388 211.99583 26.471888 211.73021L20.956263 210.38646L20.956263 209.24583L29.550013 211.58958L29.550013 212.69896L23.003138 214.49583Q22.190638 214.73021 22.003138 214.77708Q22.581263 214.90208 23.003138 215.02708L29.550013 216.83958L29.550013 218.01146ZM22.175013 208.63646L20.956263 208.63646L20.956263 207.57396L22.175013 207.57396L22.175013 208.63646ZM29.550013 208.63646L23.331263 208.63646L23.331263 207.57396L29.550013 207.57396L29.550013 208.63646ZM29.550013 205.63646L23.331263 205.63646L23.331263 204.69896L24.206263 204.69896Q23.190638 204.01146 23.190638 202.71458Q23.190638 202.15208 23.393763 201.68333Q23.596888 201.19896 23.925013 200.96458Q24.253138 200.73021 24.690638 200.63646Q24.987513 200.58958 25.721888 200.58958L29.550013 200.58958L29.550013 201.63646L25.768763 201.63646Q25.112513 201.63646 24.800013 201.76146Q24.487513 201.88646 24.300013 202.19896Q24.096888 202.51146 24.096888 202.93333Q24.096888 203.60521 24.534388 204.10521Q24.956263 204.58958 26.143763 204.58958L29.550013 204.58958L29.550013 205.63646ZM29.550013 198.65208L23.331263 198.65208L23.331263 197.69896L24.268763 197.69896Q23.612513 197.33958 23.409388 197.04271Q23.190638 196.73021 23.190638 196.35521Q23.190638 195.82396 23.518763 195.27708L24.503138 195.63646Q24.268763 196.02708 24.268763 196.40208Q24.268763 196.76146 24.487513 197.04271Q24.690638 197.30833 25.065638 197.41771Q25.628138 197.60521 26.284388 197.60521L29.550013 197.60521L29.550013 198.65208ZM28.784388 190.57396Q29.284388 191.16771 29.487513 191.71458Q29.690638 192.24583 29.690638 192.87083Q29.690638 193.90208 29.190638 194.44896Q28.690638 194.99583 27.909388 194.99583Q27.456263 194.99583 27.081263 194.79271Q26.690638 194.58958 26.471888 194.24583Q26.237513 193.90208 26.128138 193.48021Q26.034388 193.18333 25.956263 192.54271Q25.815638 191.27708 25.596888 190.66771Q25.378138 190.66771 25.331263 190.66771Q24.675013 190.66771 24.409388 190.96458Q24.065638 191.37083 24.065638 192.16771Q24.065638 192.90208 24.331263 193.26146Q24.581263 193.62083 25.237513 193.79271L25.096888 194.82396Q24.440638 194.68333 24.034388 194.35521Q23.628138 194.02708 23.409388 193.41771Q23.190638 192.80833 23.190638 192.01146Q23.190638 191.21458 23.378138 190.71458Q23.565638 190.21458 23.846888 189.98021Q24.128138 189.74583 24.565638 189.65208Q24.831263 189.60521 25.534388 189.60521L26.940638 189.60521Q28.409388 189.60521 28.800013 189.54271Q29.190638 189.46458 29.550013 189.26146L29.550013 190.37083Q29.221888 190.52708 28.784388 190.57396ZM26.425013 190.66771Q26.659388 191.24583 26.831263 192.38646Q26.925013 193.04271 27.050013 193.30833Q27.159388 193.57396 27.378138 193.73021Q27.596888 193.87083 27.878138 193.87083Q28.300013 193.87083 28.581263 193.55833Q28.862513 193.23021 28.862513 192.62083Q28.862513 192.01146 28.596888 191.54271Q28.331263 191.05833 27.862513 190.83958Q27.503138 190.66771 26.815638 190.66771L26.425013 190.66771ZM28.612513 185.33958L29.534388 185.18333Q29.628138 185.63646 29.628138 185.98021Q29.628138 186.55833 29.456263 186.87083Q29.268763 187.18333 28.971888 187.32396Q28.675013 187.44896 27.721888 187.44896L24.143763 187.44896L24.143763 188.21458L23.331263 188.21458L23.331263 187.44896L21.784388 187.44896L21.159388 186.40208L23.331263 186.40208L23.331263 185.33958L24.143763 185.33958L24.143763 186.40208L27.784388 186.40208Q28.237513 186.40208 28.362513 186.35521Q28.487513 186.29271 28.565638 186.16771Q28.643763 186.04271 28.643763 185.80833Q28.643763 185.62083 28.612513 185.33958ZM27.550013 180.38646L27.675013 179.29271Q28.628138 179.54271 29.159388 180.24583Q29.690638 180.94896 29.690638 182.02708Q29.690638 183.38646 28.846888 184.19896Q28.003138 184.99583 26.487513 184.99583Q24.925013 184.99583 24.065638 184.18333Q23.190638 183.37083 23.190638 182.08958Q23.190638 180.83958 24.034388 180.05833Q24.878138 179.26146 26.425013 179.26146Q26.518763 179.26146 26.706263 179.26146L26.706263 183.90208Q27.737513 183.83958 28.284388 183.32396Q28.815638 182.80833 28.815638 182.02708Q28.815638 181.44896 28.518763 181.04271Q28.206263 180.62083 27.550013 180.38646ZM25.846888 183.83958L25.846888 180.37083Q25.050013 180.43333 24.659388 180.76146Q24.050013 181.27708 24.050013 182.07396Q24.050013 182.80833 24.534388 183.30833Q25.018763 183.79271 25.846888 183.83958Z" fill-rule="nonzero"/><path fill="#000000" d="M51.05 300.21564Q51.05 298.6844 51.3625 297.7625Q51.675 296.825 52.284374 296.325Q52.909374 295.825 53.846874 295.825Q54.534374 295.825 55.05 296.10626Q55.58125 296.3875 55.925 296.91876Q56.26875 297.4344 56.45625 298.1844Q56.64375 298.9344 56.64375 300.21564Q56.64375 301.73126 56.33125 302.65314Q56.034374 303.575 55.409374 304.09064Q54.8 304.59064 53.846874 304.59064Q52.6125 304.59064 51.89375 303.7Q51.05 302.6375 51.05 300.21564ZM52.128124 300.21564Q52.128124 302.325 52.628124 303.02814Q53.128124 303.73126 53.846874 303.73126Q54.58125 303.73126 55.065624 303.02814Q55.565624 302.325 55.565624 300.21564Q55.565624 298.09064 55.065624 297.40314Q54.58125 296.7 53.83125 296.7Q53.1125 296.7 52.675 297.3094Q52.128124 298.09064 52.128124 300.21564ZM58.64375 304.45L58.64375 303.2469L59.846874 303.2469L59.846874 304.45L58.64375 304.45ZM61.05 300.21564Q61.05 298.6844 61.3625 297.7625Q61.675 296.825 62.284374 296.325Q62.909374 295.825 63.846874 295.825Q64.53438 295.825 65.05 296.10626Q65.58125 296.3875 65.925 296.91876Q66.26875 297.4344 66.45625 298.1844Q66.64375 298.9344 66.64375 300.21564Q66.64375 301.73126 66.33125 302.65314Q66.03438 303.575 65.40938 304.09064Q64.8 304.59064 63.846874 304.59064Q62.6125 304.59064 61.89375 303.7Q61.05 302.6375 61.05 300.21564ZM62.128124 300.21564Q62.128124 302.325 62.628124 303.02814Q63.128124 303.73126 63.846874 303.73126Q64.58125 303.73126 65.06563 303.02814Q65.56563 302.325 65.56563 300.21564Q65.56563 298.09064 65.06563 297.40314Q64.58125 296.7 63.83125 296.7Q63.1125 296.7 62.675 297.3094Q62.128124 298.09064 62.128124 300.21564ZM68.05 300.21564Q68.05 298.6844 68.3625 297.7625Q68.675 296.825 69.28438 296.325Q69.90938 295.825 70.84688 295.825Q71.53438 295.825 72.05 296.10626Q72.58125 296.3875 72.925 296.91876Q73.26875 297.4344 73.45625 298.1844Q73.64375 298.9344 73.64375 300.21564Q73.64375 301.73126 73.33125 302.65314Q73.03438 303.575 72.40938 304.09064Q71.8 304.59064 70.84688 304.59064Q69.6125 304.59064 68.89375 303.7Q68.05 302.6375 68.05 300.21564ZM69.12813 300.21564Q69.12813 302.325 69.62813 303.02814Q70.12813 303.73126 70.84688 303.73126Q71.58125 303.73126 72.06563 303.02814Q72.56563 302.325 72.56563 300.21564Q72.56563 298.09064 72.06563 297.40314Q71.58125 296.7 70.83125 296.7Q70.1125 296.7 69.675 297.3094Q69.12813 298.09064 69.12813 300.21564Z" fill-rule="nonzero"/><path fill="#000000" d="M51.05 246.45729Q51.05 244.92604 51.3625 244.00417Q51.675 243.06667 52.284374 242.56667Q52.909374 242.06667 53.846874 242.06667Q54.534374 242.06667 55.05 242.34792Q55.58125 242.62917 55.925 243.16042Q56.26875 243.67604 56.45625 244.42604Q56.64375 245.17604 56.64375 246.45729Q56.64375 247.97292 56.33125 248.89479Q56.034374 249.81667 55.409374 250.33229Q54.8 250.83229 53.846874 250.83229Q52.6125 250.83229 51.89375 249.94167Q51.05 248.87917 51.05 246.45729ZM52.128124 246.45729Q52.128124 248.56667 52.628124 249.26979Q53.128124 249.97292 53.846874 249.97292Q54.58125 249.97292 55.065624 249.26979Q55.565624 248.56667 55.565624 246.45729Q55.565624 244.33229 55.065624 243.64479Q54.58125 242.94167 53.83125 242.94167Q53.1125 242.94167 52.675 243.55104Q52.128124 244.33229 52.128124 246.45729ZM58.64375 250.69167L58.64375 249.48854L59.846874 249.48854L59.846874 250.69167L58.64375 250.69167ZM66.59688 249.67604L66.59688 250.69167L60.909374 250.69167Q60.909374 250.31667 61.034374 249.95729Q61.253124 249.37917 61.721874 248.81667Q62.20625 248.25417 63.1125 247.51979Q64.51875 246.36354 65.00313 245.69167Q65.50313 245.01979 65.50313 244.42604Q65.50313 243.80104 65.05 243.37917Q64.59688 242.94167 63.878124 242.94167Q63.1125 242.94167 62.659374 243.39479Q62.20625 243.84792 62.190624 244.66042L61.1125 244.55104Q61.221874 243.33229 61.940624 242.70729Q62.675 242.06667 63.909374 242.06667Q65.14375 242.06667 65.8625 242.75417Q66.58125 243.44167 66.58125 244.45729Q66.58125 244.97292 66.3625 245.47292Q66.15938 245.95729 65.65938 246.51979Q65.175 247.06667 64.05 248.01979Q63.096874 248.81667 62.815624 249.11354Q62.55 249.39479 62.378124 249.67604L66.59688 249.67604ZM68.05 248.44167L69.15938 248.34792Q69.28438 249.16042 69.72188 249.56667Q70.175 249.97292 70.81563 249.97292Q71.56563 249.97292 72.09688 249.39479Q72.62813 248.81667 72.62813 247.87917Q72.62813 246.97292 72.1125 246.45729Q71.6125 245.92604 70.78438 245.92604Q70.28438 245.92604 69.8625 246.16042Q69.45625 246.39479 69.22188 246.75417L68.2375 246.62917L69.06563 242.22292L73.34688 242.22292L73.34688 243.22292L69.90938 243.22292L69.45625 245.53542Q70.22188 244.98854 71.06563 244.98854Q72.19063 244.98854 72.95625 245.76979Q73.7375 246.55104 73.7375 247.78542Q73.7375 248.94167 73.06563 249.80104Q72.2375 250.83229 70.81563 250.83229Q69.64375 250.83229 68.89375 250.17604Q68.15938 249.51979 68.05 248.44167Z" fill-rule="nonzero"/><path fill="#000000" d="M51.05 192.69896Q51.05 191.16771 51.3625 190.24583Q51.675 189.30833 52.284374 188.80833Q52.909374 188.30833 53.846874 188.30833Q54.534374 188.30833 55.05 188.58958Q55.58125 188.87083 55.925 189.40208Q56.26875 189.91771 56.45625 190.66771Q56.64375 191.41771 56.64375 192.69896Q56.64375 194.21458 56.33125 195.13646Q56.034374 196.05833 55.409374 196.57396Q54.8 197.07396 53.846874 197.07396Q52.6125 197.07396 51.89375 196.18333Q51.05 195.12083 51.05 192.69896ZM52.128124 192.69896Q52.128124 194.80833 52.628124 195.51146Q53.128124 196.21458 53.846874 196.21458Q54.58125 196.21458 55.065624 195.51146Q55.565624 194.80833 55.565624 192.69896Q55.565624 190.57396 55.065624 189.88646Q54.58125 189.18333 53.83125 189.18333Q53.1125 189.18333 52.675 189.79271Q52.128124 190.57396 52.128124 192.69896ZM58.64375 196.93333L58.64375 195.73021L59.846874 195.73021L59.846874 196.93333L58.64375 196.93333ZM61.05 194.68333L62.159374 194.58958Q62.284374 195.40208 62.721874 195.80833Q63.175 196.21458 63.815624 196.21458Q64.56563 196.21458 65.09688 195.63646Q65.62813 195.05833 65.62813 194.12083Q65.62813 193.21458 65.1125 192.69896Q64.6125 192.16771 63.784374 192.16771Q63.284374 192.16771 62.8625 192.40208Q62.45625 192.63646 62.221874 192.99583L61.2375 192.87083L62.065624 188.46458L66.34688 188.46458L66.34688 189.46458L62.909374 189.46458L62.45625 191.77708Q63.221874 191.23021 64.06563 191.23021Q65.19063 191.23021 65.95625 192.01146Q66.7375 192.79271 66.7375 194.02708Q66.7375 195.18333 66.06563 196.04271Q65.2375 197.07396 63.815624 197.07396Q62.64375 197.07396 61.89375 196.41771Q61.159374 195.76146 61.05 194.68333ZM68.05 192.69896Q68.05 191.16771 68.3625 190.24583Q68.675 189.30833 69.28438 188.80833Q69.90938 188.30833 70.84688 188.30833Q71.53438 188.30833 72.05 188.58958Q72.58125 188.87083 72.925 189.40208Q73.26875 189.91771 73.45625 190.66771Q73.64375 191.41771 73.64375 192.69896Q73.64375 194.21458 73.33125 195.13646Q73.03438 196.05833 72.40938 196.57396Q71.8 197.07396 70.84688 197.07396Q69.6125 197.07396 68.89375 196.18333Q68.05 195.12083 68.05 192.69896ZM69.12813 192.69896Q69.12813 194.80833 69.62813 195.51146Q70.12813 196.21458 70.84688 196.21458Q71.58125 196.21458 72.06563 195.51146Q72.56563 194.80833 72.56563 192.69896Q72.56563 190.57396 72.06563 189.88646Q71.58125 189.18333 70.83125 189.18333Q70.1125 189.18333 69.675 189.79271Q69.12813 190.57396 69.12813 192.69896Z" fill-rule="nonzero"/><path fill="#000000" d="M51.05 138.94063Q51.05 137.40938 51.3625 136.4875Q51.675 135.55 52.284374 135.05Q52.909374 134.55 53.846874 134.55Q54.534374 134.55 55.05 134.83125Q55.58125 135.1125 55.925 135.64375Q56.26875 136.15938 56.45625 136.90938Q56.64375 137.65938 56.64375 138.94063Q56.64375 140.45625 56.33125 141.37813Q56.034374 142.3 55.409374 142.81563Q54.8 143.31563 53.846874 143.31563Q52.6125 143.31563 51.89375 142.425Q51.05 141.3625 51.05 138.94063ZM52.128124 138.94063Q52.128124 141.05 52.628124 141.75313Q53.128124 142.45625 53.846874 142.45625Q54.58125 142.45625 55.065624 141.75313Q55.565624 141.05 55.565624 138.94063Q55.565624 136.81563 55.065624 136.12813Q54.58125 135.425 53.83125 135.425Q53.1125 135.425 52.675 136.03438Q52.128124 136.81563 52.128124 138.94063ZM58.64375 143.175L58.64375 141.97188L59.846874 141.97188L59.846874 143.175L58.64375 143.175ZM61.1125 135.70625L61.1125 134.69063L66.675 134.69063L66.675 135.51875Q65.8625 136.39375 65.05 137.84688Q64.25313 139.28438 63.815624 140.81563Q63.4875 141.89375 63.409374 143.175L62.315624 143.175Q62.33125 142.15938 62.70625 140.72188Q63.096874 139.28438 63.8 137.95625Q64.51875 136.62813 65.33125 135.70625L61.1125 135.70625ZM68.05 140.925L69.15938 140.83125Q69.28438 141.64375 69.72188 142.05Q70.175 142.45625 70.81563 142.45625Q71.56563 142.45625 72.09688 141.87813Q72.62813 141.3 72.62813 140.3625Q72.62813 139.45625 72.1125 138.94063Q71.6125 138.40938 70.78438 138.40938Q70.28438 138.40938 69.8625 138.64375Q69.45625 138.87813 69.22188 139.2375L68.2375 139.1125L69.06563 134.70625L73.34688 134.70625L73.34688 135.70625L69.90938 135.70625L69.45625 138.01875Q70.22188 137.47188 71.06563 137.47188Q72.19063 137.47188 72.95625 138.25313Q73.7375 139.03438 73.7375 140.26875Q73.7375 141.425 73.06563 142.28438Q72.2375 143.31563 70.81563 143.31563Q69.64375 143.31563 68.89375 142.65938Q68.15938 142.00313 68.05 140.925Z" fill-rule="nonzero"/><path fill="#000000" d="M55.01875 89.416664L53.971874 89.416664L53.971874 82.697914Q53.58125 83.05729 52.95625 83.43229Q52.346874 83.791664 51.8625 83.96354L51.8625 82.947914Q52.7375 82.52604 53.39375 81.947914Q54.065624 81.354164 54.346874 80.791664L55.01875 80.791664L55.01875 89.416664ZM58.64375 89.416664L58.64375 88.21354L59.846874 88.21354L59.846874 89.416664L58.64375 89.416664ZM61.05 85.18229Q61.05 83.65104 61.3625 82.729164Q61.675 81.791664 62.284374 81.291664Q62.909374 80.791664 63.846874 80.791664Q64.53438 80.791664 65.05 81.072914Q65.58125 81.354164 65.925 81.885414Q66.26875 82.40104 66.45625 83.15104Q66.64375 83.90104 66.64375 85.18229Q66.64375 86.697914 66.33125 87.61979Q66.03438 88.541664 65.40938 89.05729Q64.8 89.55729 63.846874 89.55729Q62.6125 89.55729 61.89375 88.666664Q61.05 87.604164 61.05 85.18229ZM62.128124 85.18229Q62.128124 87.291664 62.628124 87.99479Q63.128124 88.697914 63.846874 88.697914Q64.58125 88.697914 65.06563 87.99479Q65.56563 87.291664 65.56563 85.18229Q65.56563 83.05729 65.06563 82.36979Q64.58125 81.666664 63.83125 81.666664Q63.1125 81.666664 62.675 82.27604Q62.128124 83.05729 62.128124 85.18229ZM68.05 85.18229Q68.05 83.65104 68.3625 82.729164Q68.675 81.791664 69.28438 81.291664Q69.90938 80.791664 70.84688 80.791664Q71.53438 80.791664 72.05 81.072914Q72.58125 81.354164 72.925 81.885414Q73.26875 82.40104 73.45625 83.15104Q73.64375 83.90104 73.64375 85.18229Q73.64375 86.697914 73.33125 87.61979Q73.03438 88.541664 72.40938 89.05729Q71.8 89.55729 70.84688 89.55729Q69.6125 89.55729 68.89375 88.666664Q68.05 87.604164 68.05 85.18229ZM69.12813 85.18229Q69.12813 87.291664 69.62813 87.99479Q70.12813 88.697914 70.84688 88.697914Q71.58125 88.697914 72.06563 87.99479Q72.56563 87.291664 72.56563 85.18229Q72.56563 83.05729 72.06563 82.36979Q71.58125 81.666664 70.83125 81.666664Q70.1125 81.666664 69.675 82.27604Q69.12813 83.05729 69.12813 85.18229Z" fill-rule="nonzero"/><path fill="#000000" d="M100.974 314.6844L102.0365 314.59064Q102.114624 315.2469 102.395874 315.65314Q102.677124 316.0594 103.25525 316.325Q103.849 316.575 104.583374 316.575Q105.224 316.575 105.724 316.3875Q106.224 316.1844 106.458374 315.85626Q106.708374 315.5125 106.708374 315.1219Q106.708374 314.71564 106.474 314.41876Q106.239624 314.10626 105.708374 313.90314Q105.349 313.7625 104.1615 313.48126Q102.989624 313.2 102.520874 312.95Q101.895874 312.6219 101.599 312.15314Q101.302124 311.66876 101.302124 311.075Q101.302124 310.4344 101.6615 309.8719Q102.0365 309.29376 102.739624 309.0125Q103.458374 308.71564 104.31775 308.71564Q105.270874 308.71564 106.00525 309.02814Q106.739624 309.325 107.13025 309.9344Q107.520874 310.52814 107.552124 311.27814L106.458374 311.35626Q106.364624 310.54376 105.849 310.1375Q105.349 309.71564 104.364624 309.71564Q103.333374 309.71564 102.864624 310.09064Q102.395874 310.46564 102.395874 310.9969Q102.395874 311.46564 102.724 311.7625Q103.052124 312.0594 104.427124 312.3719Q105.81775 312.6844 106.333374 312.91876Q107.083374 313.27814 107.44275 313.8094Q107.802124 314.325 107.802124 315.02814Q107.802124 315.71564 107.4115 316.325Q107.020874 316.91876 106.2865 317.2625Q105.552124 317.59064 104.63025 317.59064Q103.458374 317.59064 102.6615 317.2625Q101.88025 316.91876 101.427124 316.23126Q100.989624 315.54376 100.974 314.6844ZM112.895874 317.45L111.849 317.45L111.849 310.73126Q111.458374 311.09064 110.833374 311.46564Q110.224 311.825 109.739624 311.9969L109.739624 310.98126Q110.614624 310.5594 111.270874 309.98126Q111.94275 309.3875 112.224 308.825L112.895874 308.825L112.895874 317.45Z" fill-rule="nonzero"/><path fill="#000000" d="M141.5327 314.6844L142.5952 314.59064Q142.67332 315.2469 142.95457 315.65314Q143.23582 316.0594 143.81395 316.325Q144.4077 316.575 145.14207 316.575Q145.7827 316.575 146.2827 316.3875Q146.7827 316.1844 147.01707 315.85626Q147.26707 315.5125 147.26707 315.1219Q147.26707 314.71564 147.0327 314.41876Q146.79832 314.10626 146.26707 313.90314Q145.9077 313.7625 144.7202 313.48126Q143.54832 313.2 143.07957 312.95Q142.45457 312.6219 142.1577 312.15314Q141.86082 311.66876 141.86082 311.075Q141.86082 310.4344 142.2202 309.8719Q142.5952 309.29376 143.29832 309.0125Q144.01707 308.71564 144.87645 308.71564Q145.82957 308.71564 146.56395 309.02814Q147.29832 309.325 147.68895 309.9344Q148.07957 310.52814 148.11082 311.27814L147.01707 311.35626Q146.92332 310.54376 146.4077 310.1375Q145.9077 309.71564 144.92332 309.71564Q143.89207 309.71564 143.42332 310.09064Q142.95457 310.46564 142.95457 310.9969Q142.95457 311.46564 143.2827 311.7625Q143.61082 312.0594 144.98582 312.3719Q146.37645 312.6844 146.89207 312.91876Q147.64207 313.27814 148.00145 313.8094Q148.36082 314.325 148.36082 315.02814Q148.36082 315.71564 147.9702 316.325Q147.57957 316.91876 146.8452 317.2625Q146.11082 317.59064 145.18895 317.59064Q144.01707 317.59064 143.2202 317.2625Q142.43895 316.91876 141.98582 316.23126Q141.54832 315.54376 141.5327 314.6844ZM155.0327 316.4344L155.0327 317.45L149.3452 317.45Q149.3452 317.075 149.4702 316.71564Q149.68895 316.1375 150.1577 315.575Q150.64207 315.0125 151.54832 314.27814Q152.95457 313.1219 153.43895 312.45Q153.93895 311.77814 153.93895 311.1844Q153.93895 310.5594 153.48582 310.1375Q153.0327 309.7 152.31395 309.7Q151.54832 309.7 151.0952 310.15314Q150.64207 310.60626 150.62645 311.41876L149.54832 311.3094Q149.6577 310.09064 150.37645 309.46564Q151.11082 308.825 152.3452 308.825Q153.57957 308.825 154.29832 309.5125Q155.01707 310.2 155.01707 311.21564Q155.01707 311.73126 154.79832 312.23126Q154.5952 312.71564 154.0952 313.27814Q153.61082 313.825 152.48582 314.77814Q151.5327 315.575 151.25145 315.8719Q150.98582 316.15314 150.81395 316.4344L155.0327 316.4344Z" fill-rule="nonzero"/><path fill="#000000" d="M182.09142 314.6844L183.15392 314.59064Q183.23204 315.2469 183.51329 315.65314Q183.79454 316.0594 184.37267 316.325Q184.96642 316.575 185.70079 316.575Q186.34142 316.575 186.84142 316.3875Q187.34142 316.1844 187.57579 315.85626Q187.82579 315.5125 187.82579 315.1219Q187.82579 314.71564 187.59142 314.41876Q187.35704 314.10626 186.82579 313.90314Q186.46642 313.7625 185.27892 313.48126Q184.10704 313.2 183.63829 312.95Q183.01329 312.6219 182.71642 312.15314Q182.41954 311.66876 182.41954 311.075Q182.41954 310.4344 182.77892 309.8719Q183.15392 309.29376 183.85704 309.0125Q184.57579 308.71564 185.43517 308.71564Q186.38829 308.71564 187.12267 309.02814Q187.85704 309.325 188.24767 309.9344Q188.63829 310.52814 188.66954 311.27814L187.57579 311.35626Q187.48204 310.54376 186.96642 310.1375Q186.46642 309.71564 185.48204 309.71564Q184.45079 309.71564 183.98204 310.09064Q183.51329 310.46564 183.51329 310.9969Q183.51329 311.46564 183.84142 311.7625Q184.16954 312.0594 185.54454 312.3719Q186.93517 312.6844 187.45079 312.91876Q188.20079 313.27814 188.56017 313.8094Q188.91954 314.325 188.91954 315.02814Q188.91954 315.71564 188.52892 316.325Q188.13829 316.91876 187.40392 317.2625Q186.66954 317.59064 185.74767 317.59064Q184.57579 317.59064 183.77892 317.2625Q182.99767 316.91876 182.54454 316.23126Q182.10704 315.54376 182.09142 314.6844ZM190.04454 315.1844L191.10704 315.04376Q191.27892 315.9344 191.71642 316.34064Q192.15392 316.73126 192.77892 316.73126Q193.52892 316.73126 194.04454 316.21564Q194.56017 315.7 194.56017 314.9344Q194.56017 314.21564 194.07579 313.7469Q193.60704 313.2625 192.87267 313.2625Q192.57579 313.2625 192.12267 313.3875L192.24767 312.45Q192.35704 312.46564 192.41954 312.46564Q193.09142 312.46564 193.62267 312.1219Q194.16954 311.7625 194.16954 311.02814Q194.16954 310.45 193.77892 310.075Q193.38829 309.6844 192.76329 309.6844Q192.15392 309.6844 191.73204 310.075Q191.32579 310.46564 191.21642 311.23126L190.15392 311.04376Q190.34142 309.9969 191.02892 309.41876Q191.71642 308.825 192.73204 308.825Q193.43517 308.825 194.02892 309.1375Q194.62267 309.4344 194.93517 309.95Q195.24767 310.46564 195.24767 311.0594Q195.24767 311.60626 194.95079 312.075Q194.65392 312.52814 194.07579 312.79376Q194.82579 312.96564 195.24767 313.52814Q195.66954 314.075 195.66954 314.91876Q195.66954 316.04376 194.84142 316.825Q194.02892 317.60626 192.77892 317.60626Q191.65392 317.60626 190.90392 316.9344Q190.15392 316.2469 190.04454 315.1844Z" fill-rule="nonzero"/><path fill="#000000" d="M222.65012 314.6844L223.71262 314.59064Q223.79074 315.2469 224.07199 315.65314Q224.35324 316.0594 224.93137 316.325Q225.52512 316.575 226.25949 316.575Q226.90012 316.575 227.40012 316.3875Q227.90012 316.1844 228.13449 315.85626Q228.38449 315.5125 228.38449 315.1219Q228.38449 314.71564 228.15012 314.41876Q227.91574 314.10626 227.38449 313.90314Q227.02512 313.7625 225.83762 313.48126Q224.66574 313.2 224.19699 312.95Q223.57199 312.6219 223.27512 312.15314Q222.97824 311.66876 222.97824 311.075Q222.97824 310.4344 223.33762 309.8719Q223.71262 309.29376 224.41574 309.0125Q225.13449 308.71564 225.99387 308.71564Q226.94699 308.71564 227.68137 309.02814Q228.41574 309.325 228.80637 309.9344Q229.19699 310.52814 229.22824 311.27814L228.13449 311.35626Q228.04074 310.54376 227.52512 310.1375Q227.02512 309.71564 226.04074 309.71564Q225.00949 309.71564 224.54074 310.09064Q224.07199 310.46564 224.07199 310.9969Q224.07199 311.46564 224.40012 311.7625Q224.72824 312.0594 226.10324 312.3719Q227.49387 312.6844 228.00949 312.91876Q228.75949 313.27814 229.11887 313.8094Q229.47824 314.325 229.47824 315.02814Q229.47824 315.71564 229.08762 316.325Q228.69699 316.91876 227.96262 317.2625Q227.22824 317.59064 226.30637 317.59064Q225.13449 317.59064 224.33762 317.2625Q223.55637 316.91876 223.10324 316.23126Q222.66574 315.54376 222.65012 314.6844ZM233.97824 317.45L233.97824 315.3875L230.25949 315.3875L230.25949 314.41876L234.18137 308.85626L235.04074 308.85626L235.04074 314.41876L236.19699 314.41876L236.19699 315.3875L235.04074 315.3875L235.04074 317.45L233.97824 317.45ZM233.97824 314.41876L233.97824 310.5594L231.29074 314.41876L233.97824 314.41876Z" fill-rule="nonzero"/><path fill="#000000" d="M262.70883 314.6844L263.77133 314.59064Q263.84946 315.2469 264.1307 315.65314Q264.41196 316.0594 264.99008 316.325Q265.58383 316.575 266.3182 316.575Q266.95883 316.575 267.45883 316.3875Q267.95883 316.1844 268.1932 315.85626Q268.4432 315.5125 268.4432 315.1219Q268.4432 314.71564 268.20883 314.41876Q267.97446 314.10626 267.4432 313.90314Q267.08383 313.7625 265.89633 313.48126Q264.72446 313.2 264.2557 312.95Q263.6307 312.6219 263.33383 312.15314Q263.03696 311.66876 263.03696 311.075Q263.03696 310.4344 263.39633 309.8719Q263.77133 309.29376 264.47446 309.0125Q265.1932 308.71564 266.05258 308.71564Q267.0057 308.71564 267.74008 309.02814Q268.47446 309.325 268.86508 309.9344Q269.2557 310.52814 269.28696 311.27814L268.1932 311.35626Q268.09946 310.54376 267.58383 310.1375Q267.08383 309.71564 266.09946 309.71564Q265.0682 309.71564 264.59946 310.09064Q264.1307 310.46564 264.1307 310.9969Q264.1307 311.46564 264.45883 311.7625Q264.78696 312.0594 266.16196 312.3719Q267.55258 312.6844 268.0682 312.91876Q268.8182 313.27814 269.17758 313.8094Q269.53696 314.325 269.53696 315.02814Q269.53696 315.71564 269.14633 316.325Q268.7557 316.91876 268.02133 317.2625Q267.28696 317.59064 266.36508 317.59064Q265.1932 317.59064 264.39633 317.2625Q263.61508 316.91876 263.16196 316.23126Q262.72446 315.54376 262.70883 314.6844ZM271.11508 317.45L271.11508 308.85626L277.3182 308.85626L277.3182 309.8719L272.2557 309.8719L272.2557 312.4969L277.0057 312.4969L277.0057 313.5125L272.2557 313.5125L272.2557 316.4344L277.52133 316.4344L277.52133 317.45L271.11508 317.45Z" fill-rule="nonzero"/><path fill="#000000" d="M298.76752 314.6844L299.83002 314.59064Q299.90814 315.2469 300.1894 315.65314Q300.47064 316.0594 301.04877 316.325Q301.64252 316.575 302.3769 316.575Q303.01752 316.575 303.51752 316.3875Q304.01752 316.1844 304.2519 315.85626Q304.5019 315.5125 304.5019 315.1219Q304.5019 314.71564 304.26752 314.41876Q304.03314 314.10626 303.5019 313.90314Q303.14252 313.7625 301.95502 313.48126Q300.78314 313.2 300.3144 312.95Q299.6894 312.6219 299.39252 312.15314Q299.09564 311.66876 299.09564 311.075Q299.09564 310.4344 299.45502 309.8719Q299.83002 309.29376 300.53314 309.0125Q301.2519 308.71564 302.11127 308.71564Q303.0644 308.71564 303.79877 309.02814Q304.53314 309.325 304.92377 309.9344Q305.3144 310.52814 305.34564 311.27814L304.2519 311.35626Q304.15814 310.54376 303.64252 310.1375Q303.14252 309.71564 302.15814 309.71564Q301.1269 309.71564 300.65814 310.09064Q300.1894 310.46564 300.1894 310.9969Q300.1894 311.46564 300.51752 311.7625Q300.84564 312.0594 302.22064 312.3719Q303.61127 312.6844 304.1269 312.91876Q304.8769 313.27814 305.23627 313.8094Q305.59564 314.325 305.59564 315.02814Q305.59564 315.71564 305.20502 316.325Q304.8144 316.91876 304.08002 317.2625Q303.34564 317.59064 302.42377 317.59064Q301.2519 317.59064 300.45502 317.2625Q299.67377 316.91876 299.22064 316.23126Q298.78314 315.54376 298.76752 314.6844ZM307.17377 317.45L307.17377 308.85626L313.3769 308.85626L313.3769 309.8719L308.3144 309.8719L308.3144 312.4969L313.0644 312.4969L313.0644 313.5125L308.3144 313.5125L308.3144 316.4344L313.58002 316.4344L313.58002 317.45L307.17377 317.45ZM315.11127 317.45L315.11127 308.85626L316.83002 308.85626L318.86127 314.9344Q319.14252 315.79376 319.26752 316.21564Q319.40814 315.7469 319.72064 314.84064L321.78314 308.85626L323.3144 308.85626L323.3144 317.45L322.22064 317.45L322.22064 310.2625L319.72064 317.45L318.6894 317.45L316.20502 310.1375L316.20502 317.45L315.11127 317.45Z" fill-rule="nonzero"/><path fill="#000000" d="M343.73248 314.075L343.73248 313.075L347.35748 313.0594L347.35748 316.2469Q346.52936 316.91876 345.63873 317.2625Q344.7481 317.59064 343.8106 317.59064Q342.54498 317.59064 341.4981 317.0594Q340.46686 316.5125 339.9356 315.4969Q339.41998 314.46564 339.41998 313.2Q339.41998 311.9344 339.9356 310.85626Q340.46686 309.7625 341.45123 309.2469Q342.4356 308.71564 343.71686 308.71564Q344.65436 308.71564 345.40436 309.0125Q346.15436 309.3094 346.57623 309.85626Q347.01373 310.3875 347.23248 311.2625L346.21686 311.54376Q346.01373 310.8875 345.71686 310.5125Q345.4356 310.1375 344.90436 309.91876Q344.3731 309.6844 343.73248 309.6844Q342.95123 309.6844 342.3731 309.91876Q341.8106 310.15314 341.45123 310.54376Q341.10748 310.9344 340.91998 311.40314Q340.59186 312.2 340.59186 313.1219Q340.59186 314.27814 340.98248 315.0594Q341.38873 315.825 342.13873 316.2Q342.88873 316.575 343.7481 316.575Q344.48248 316.575 345.1856 316.29376Q345.88873 315.9969 346.2481 315.6844L346.2481 314.075L343.73248 314.075ZM348.70123 317.45L348.70123 308.85626L349.85748 308.85626L354.3731 315.60626L354.3731 308.85626L355.46686 308.85626L355.46686 317.45L354.29498 317.45L349.77936 310.7L349.77936 317.45L348.70123 317.45ZM361.2481 317.45L360.20123 317.45L360.20123 310.73126Q359.8106 311.09064 359.1856 311.46564Q358.57623 311.825 358.09186 311.9969L358.09186 310.98126Q358.96686 310.5594 359.6231 309.98126Q360.29498 309.3875 360.57623 308.825L361.2481 308.825L361.2481 317.45Z" fill-rule="nonzero"/><path fill="#000000" d="M384.29117 314.075L384.29117 313.075L387.91617 313.0594L387.91617 316.2469Q387.08804 316.91876 386.19742 317.2625Q385.3068 317.59064 384.3693 317.59064Q383.10367 317.59064 382.0568 317.0594Q381.02554 316.5125 380.4943 315.4969Q379.97867 314.46564 379.97867 313.2Q379.97867 311.9344 380.4943 310.85626Q381.02554 309.7625 382.00992 309.2469Q382.9943 308.71564 384.27554 308.71564Q385.21304 308.71564 385.96304 309.0125Q386.71304 309.3094 387.13492 309.85626Q387.57242 310.3875 387.79117 311.2625L386.77554 311.54376Q386.57242 310.8875 386.27554 310.5125Q385.9943 310.1375 385.46304 309.91876Q384.9318 309.6844 384.29117 309.6844Q383.50992 309.6844 382.9318 309.91876Q382.3693 310.15314 382.00992 310.54376Q381.66617 310.9344 381.47867 311.40314Q381.15054 312.2 381.15054 313.1219Q381.15054 314.27814 381.54117 315.0594Q381.94742 315.825 382.69742 316.2Q383.44742 316.575 384.3068 316.575Q385.04117 316.575 385.7443 316.29376Q386.44742 315.9969 386.8068 315.6844L386.8068 314.075L384.29117 314.075ZM389.25992 317.45L389.25992 308.85626L390.41617 308.85626L394.9318 315.60626L394.9318 308.85626L396.02554 308.85626L396.02554 317.45L394.85367 317.45L390.33804 310.7L390.33804 317.45L389.25992 317.45ZM403.38492 316.4344L403.38492 317.45L397.69742 317.45Q397.69742 317.075 397.82242 316.71564Q398.04117 316.1375 398.50992 315.575Q398.9943 315.0125 399.90054 314.27814Q401.3068 313.1219 401.79117 312.45Q402.29117 311.77814 402.29117 311.1844Q402.29117 310.5594 401.83804 310.1375Q401.38492 309.7 400.66617 309.7Q399.90054 309.7 399.44742 310.15314Q398.9943 310.60626 398.97867 311.41876L397.90054 311.3094Q398.00992 310.09064 398.72867 309.46564Q399.46304 308.825 400.69742 308.825Q401.9318 308.825 402.65054 309.5125Q403.3693 310.2 403.3693 311.21564Q403.3693 311.73126 403.15054 312.23126Q402.94742 312.71564 402.44742 313.27814Q401.96304 313.825 400.83804 314.77814Q399.88492 315.575 399.60367 315.8719Q399.33804 316.15314 399.16617 316.4344L403.38492 316.4344Z" fill-rule="nonzero"/><path fill="#000000" d="M424.84988 314.075L424.84988 313.075L428.47488 313.0594L428.47488 316.2469Q427.64676 316.91876 426.75613 317.2625Q425.8655 317.59064 424.928 317.59064Q423.66238 317.59064 422.6155 317.0594Q421.58426 316.5125 421.053 315.4969Q420.53738 314.46564 420.53738 313.2Q420.53738 311.9344 421.053 310.85626Q421.58426 309.7625 422.56863 309.2469Q423.553 308.71564 424.83426 308.71564Q425.77176 308.71564 426.52176 309.0125Q427.27176 309.3094 427.69363 309.85626Q428.13113 310.3875 428.34988 311.2625L427.33426 311.54376Q427.13113 310.8875 426.83426 310.5125Q426.553 310.1375 426.02176 309.91876Q425.4905 309.6844 424.84988 309.6844Q424.06863 309.6844 423.4905 309.91876Q422.928 310.15314 422.56863 310.54376Q422.22488 310.9344 422.03738 311.40314Q421.70926 312.2 421.70926 313.1219Q421.70926 314.27814 422.09988 315.0594Q422.50613 315.825 423.25613 316.2Q424.00613 316.575 424.8655 316.575Q425.59988 316.575 426.303 316.29376Q427.00613 315.9969 427.3655 315.6844L427.3655 314.075L424.84988 314.075ZM429.81863 317.45L429.81863 308.85626L430.97488 308.85626L435.4905 315.60626L435.4905 308.85626L436.58426 308.85626L436.58426 317.45L435.41238 317.45L430.89676 310.7L430.89676 317.45L429.81863 317.45ZM438.39676 315.1844L439.45926 315.04376Q439.63113 315.9344 440.06863 316.34064Q440.50613 316.73126 441.13113 316.73126Q441.88113 316.73126 442.39676 316.21564Q442.91238 315.7 442.91238 314.9344Q442.91238 314.21564 442.428 313.7469Q441.95926 313.2625 441.22488 313.2625Q440.928 313.2625 440.47488 313.3875L440.59988 312.45Q440.70926 312.46564 440.77176 312.46564Q441.44363 312.46564 441.97488 312.1219Q442.52176 311.7625 442.52176 311.02814Q442.52176 310.45 442.13113 310.075Q441.7405 309.6844 441.1155 309.6844Q440.50613 309.6844 440.08426 310.075Q439.678 310.46564 439.56863 311.23126L438.50613 311.04376Q438.69363 309.9969 439.38113 309.41876Q440.06863 308.825 441.08426 308.825Q441.78738 308.825 442.38113 309.1375Q442.97488 309.4344 443.28738 309.95Q443.59988 310.46564 443.59988 311.0594Q443.59988 311.60626 443.303 312.075Q443.00613 312.52814 442.428 312.79376Q443.178 312.96564 443.59988 313.52814Q444.02176 314.075 444.02176 314.91876Q444.02176 316.04376 443.19363 316.825Q442.38113 317.60626 441.13113 317.60626Q440.00613 317.60626 439.25613 316.9344Q438.50613 316.2469 438.39676 315.1844Z" fill-rule="nonzero"/><path fill="#000000" d="M464.4086 314.075L464.4086 313.075L468.0336 313.0594L468.0336 316.2469Q467.20547 316.91876 466.31485 317.2625Q465.42422 317.59064 464.48672 317.59064Q463.2211 317.59064 462.17422 317.0594Q461.14297 316.5125 460.61172 315.4969Q460.0961 314.46564 460.0961 313.2Q460.0961 311.9344 460.61172 310.85626Q461.14297 309.7625 462.12735 309.2469Q463.11172 308.71564 464.39297 308.71564Q465.33047 308.71564 466.08047 309.0125Q466.83047 309.3094 467.25235 309.85626Q467.68985 310.3875 467.9086 311.2625L466.89297 311.54376Q466.68985 310.8875 466.39297 310.5125Q466.11172 310.1375 465.58047 309.91876Q465.04922 309.6844 464.4086 309.6844Q463.62735 309.6844 463.04922 309.91876Q462.48672 310.15314 462.12735 310.54376Q461.7836 310.9344 461.5961 311.40314Q461.26797 312.2 461.26797 313.1219Q461.26797 314.27814 461.6586 315.0594Q462.06485 315.825 462.81485 316.2Q463.56485 316.575 464.42422 316.575Q465.1586 316.575 465.86172 316.29376Q466.56485 315.9969 466.92422 315.6844L466.92422 314.075L464.4086 314.075ZM469.37735 317.45L469.37735 308.85626L470.5336 308.85626L475.04922 315.60626L475.04922 308.85626L476.14297 308.85626L476.14297 317.45L474.9711 317.45L470.45547 310.7L470.45547 317.45L469.37735 317.45ZM478.3461 317.45L478.3461 308.85626L480.06485 308.85626L482.0961 314.9344Q482.37735 315.79376 482.50235 316.21564Q482.64297 315.7469 482.95547 314.84064L485.01797 308.85626L486.54922 308.85626L486.54922 317.45L485.45547 317.45L485.45547 310.2625L482.95547 317.45L481.92422 317.45L479.43985 310.1375L479.43985 317.45L478.3461 317.45Z" fill-rule="nonzero"/><path fill="#000000" d="M501.9048 317.45L501.9048 308.85626L503.62354 308.85626L505.6548 314.9344Q505.93604 315.79376 506.06104 316.21564Q506.20166 315.7469 506.51416 314.84064L508.57666 308.85626L510.1079 308.85626L510.1079 317.45L509.01416 317.45L509.01416 310.2625L506.51416 317.45L505.4829 317.45L502.99854 310.1375L502.99854 317.45L501.9048 317.45ZM514.9673 314.075L514.9673 313.075L518.5923 313.0594L518.5923 316.2469Q517.76416 316.91876 516.87354 317.2625Q515.9829 317.59064 515.0454 317.59064Q513.7798 317.59064 512.7329 317.0594Q511.70166 316.5125 511.1704 315.4969Q510.6548 314.46564 510.6548 313.2Q510.6548 311.9344 511.1704 310.85626Q511.70166 309.7625 512.68604 309.2469Q513.6704 308.71564 514.95166 308.71564Q515.88916 308.71564 516.63916 309.0125Q517.38916 309.3094 517.81104 309.85626Q518.24854 310.3875 518.4673 311.2625L517.45166 311.54376Q517.24854 310.8875 516.95166 310.5125Q516.6704 310.1375 516.13916 309.91876Q515.6079 309.6844 514.9673 309.6844Q514.18604 309.6844 513.6079 309.91876Q513.0454 310.15314 512.68604 310.54376Q512.3423 310.9344 512.1548 311.40314Q511.82666 312.2 511.82666 313.1219Q511.82666 314.27814 512.2173 315.0594Q512.62354 315.825 513.37354 316.2Q514.12354 316.575 514.9829 316.575Q515.7173 316.575 516.4204 316.29376Q517.12354 315.9969 517.4829 315.6844L517.4829 314.075L514.9673 314.075ZM523.4829 317.45L522.43604 317.45L522.43604 310.73126Q522.0454 311.09064 521.4204 311.46564Q520.81104 311.825 520.32666 311.9969L520.32666 310.98126Q521.20166 310.5594 521.8579 309.98126Q522.5298 309.3875 522.81104 308.825L523.4829 308.825L523.4829 317.45Z" fill-rule="nonzero"/><path fill="#000000" d="M542.4635 317.45L542.4635 308.85626L544.18225 308.85626L546.2135 314.9344Q546.49475 315.79376 546.61975 316.21564Q546.7604 315.7469 547.0729 314.84064L549.1354 308.85626L550.6666 308.85626L550.6666 317.45L549.5729 317.45L549.5729 310.2625L547.0729 317.45L546.0416 317.45L543.55725 310.1375L543.55725 317.45L542.4635 317.45ZM555.526 314.075L555.526 313.075L559.151 313.0594L559.151 316.2469Q558.3229 316.91876 557.43225 317.2625Q556.5416 317.59064 555.6041 317.59064Q554.3385 317.59064 553.2916 317.0594Q552.2604 316.5125 551.7291 315.4969Q551.2135 314.46564 551.2135 313.2Q551.2135 311.9344 551.7291 310.85626Q552.2604 309.7625 553.24475 309.2469Q554.2291 308.71564 555.5104 308.71564Q556.4479 308.71564 557.1979 309.0125Q557.9479 309.3094 558.36975 309.85626Q558.80725 310.3875 559.026 311.2625L558.0104 311.54376Q557.80725 310.8875 557.5104 310.5125Q557.2291 310.1375 556.6979 309.91876Q556.1666 309.6844 555.526 309.6844Q554.74475 309.6844 554.1666 309.91876Q553.6041 310.15314 553.24475 310.54376Q552.901 310.9344 552.7135 311.40314Q552.3854 312.2 552.3854 313.1219Q552.3854 314.27814 552.776 315.0594Q553.18225 315.825 553.93225 316.2Q554.68225 316.575 555.5416 316.575Q556.276 316.575 556.9791 316.29376Q557.68225 315.9969 558.0416 315.6844L558.0416 314.075L555.526 314.075ZM565.61975 316.4344L565.61975 317.45L559.93225 317.45Q559.93225 317.075 560.05725 316.71564Q560.276 316.1375 560.74475 315.575Q561.2291 315.0125 562.1354 314.27814Q563.5416 313.1219 564.026 312.45Q564.526 311.77814 564.526 311.1844Q564.526 310.5594 564.0729 310.1375Q563.61975 309.7 562.901 309.7Q562.1354 309.7 561.68225 310.15314Q561.2291 310.60626 561.2135 311.41876L560.1354 311.3094Q560.24475 310.09064 560.9635 309.46564Q561.6979 308.825 562.93225 308.825Q564.1666 308.825 564.8854 309.5125Q565.6041 310.2 565.6041 311.21564Q565.6041 311.73126 565.3854 312.23126Q565.18225 312.71564 564.68225 313.27814Q564.1979 313.825 563.0729 314.77814Q562.11975 315.575 561.8385 315.8719Q561.5729 316.15314 561.401 316.4344L565.61975 316.4344Z" fill-rule="nonzero"/><path fill="#999999" d="M19.628124 63.05L19.628124 53.034374L23.409374 53.034374Q24.409374 53.034374 24.940624 53.128124Q25.675 53.253124 26.175 53.596874Q26.675 53.940624 26.971874 54.565624Q27.284374 55.175 27.284374 55.925Q27.284374 57.20625 26.471874 58.096874Q25.659374 58.971874 23.534374 58.971874L20.95625 58.971874L20.95625 63.05L19.628124 63.05ZM20.95625 57.8L23.55 57.8Q24.83125 57.8 25.3625 57.315624Q25.909374 56.83125 25.909374 55.971874Q25.909374 55.33125 25.596874 54.89375Q25.284374 54.440624 24.753124 54.3Q24.425 54.20625 23.51875 54.20625L20.95625 54.20625L20.95625 57.8ZM28.440624 63.05L28.440624 53.034374L29.675 53.034374L29.675 63.05L28.440624 63.05ZM36.20625 62.159374Q35.534374 62.7375 34.89375 62.9875Q34.26875 63.221874 33.534374 63.221874Q32.346874 63.221874 31.690624 62.64375Q31.05 62.05 31.05 61.128124Q31.05 60.596874 31.284374 60.159374Q31.534374 59.721874 31.925 59.45625Q32.33125 59.190624 32.815624 59.05Q33.175 58.95625 33.909374 58.8625Q35.409374 58.690624 36.1125 58.440624Q36.1125 58.190624 36.1125 58.128124Q36.1125 57.3625 35.76875 57.065624Q35.3 56.64375 34.3625 56.64375Q33.503124 56.64375 33.08125 56.95625Q32.675 57.253124 32.471874 58.01875L31.26875 57.8625Q31.425 57.08125 31.8 56.6125Q32.190624 56.14375 32.89375 55.89375Q33.6125 55.628124 34.55 55.628124Q35.471874 55.628124 36.05 55.846874Q36.628124 56.065624 36.89375 56.39375Q37.175 56.721874 37.284374 57.2375Q37.346874 57.55 37.346874 58.3625L37.346874 60.003124Q37.346874 61.721874 37.425 62.175Q37.503124 62.628124 37.7375 63.05L36.45625 63.05Q36.26875 62.659374 36.20625 62.159374ZM36.1125 59.409374Q35.440624 59.675 34.096874 59.878124Q33.346874 59.9875 33.01875 60.128124Q32.70625 60.253124 32.534374 60.51875Q32.3625 60.784374 32.3625 61.096874Q32.3625 61.596874 32.7375 61.925Q33.1125 62.253124 33.83125 62.253124Q34.55 62.253124 35.096874 61.940624Q35.64375 61.628124 35.909374 61.08125Q36.1125 60.675 36.1125 59.8625L36.1125 59.409374ZM39.425 65.84688L39.284374 64.69063Q39.690624 64.8 39.9875 64.8Q40.39375 64.8 40.64375 64.65938Q40.89375 64.53438 41.05 64.28438Q41.159374 64.09688 41.425 63.3625Q41.45625 63.26875 41.534374 63.065624L38.76875 55.784374L40.096874 55.784374L41.6125 59.9875Q41.909374 60.8 42.14375 61.675Q42.346874 60.83125 42.64375 60.01875L44.190624 55.784374L45.425 55.784374L42.659374 63.175Q42.221874 64.3625 41.971874 64.81563Q41.64375 65.425 41.221874 65.70625Q40.8 66.00313 40.20625 66.00313Q39.8625 66.00313 39.425 65.84688ZM51.440624 60.70625L52.721874 60.8625Q52.409374 61.9875 51.596874 62.6125Q50.784374 63.221874 49.51875 63.221874Q47.925 63.221874 46.9875 62.2375Q46.065624 61.253124 46.065624 59.4875Q46.065624 57.64375 47.003124 56.64375Q47.95625 55.628124 49.45625 55.628124Q50.909374 55.628124 51.83125 56.628124Q52.753124 57.6125 52.753124 59.409374Q52.753124 59.51875 52.753124 59.7375L47.33125 59.7375Q47.409374 60.925 48.003124 61.565624Q48.6125 62.20625 49.534374 62.20625Q50.20625 62.20625 50.675 61.846874Q51.159374 61.4875 51.440624 60.70625ZM47.409374 58.721874L51.45625 58.721874Q51.378124 57.8 50.9875 57.346874Q50.409374 56.64375 49.471874 56.64375Q48.6125 56.64375 48.034374 57.20625Q47.471874 57.76875 47.409374 58.721874ZM54.45625 63.05L54.45625 55.784374L55.565624 55.784374L55.565624 56.89375Q55.9875 56.1125 56.346874 55.878124Q56.70625 55.628124 57.14375 55.628124Q57.76875 55.628124 58.409374 56.01875L57.9875 57.159374Q57.534374 56.89375 57.08125 56.89375Q56.675 56.89375 56.346874 57.14375Q56.034374 57.378124 55.89375 57.815624Q55.690624 58.471874 55.690624 59.253124L55.690624 63.05L54.45625 63.05ZM58.9875 60.878124L60.190624 60.690624Q60.3 61.425 60.76875 61.815624Q61.2375 62.20625 62.08125 62.20625Q62.925 62.20625 63.33125 61.8625Q63.753124 61.51875 63.753124 61.05Q63.753124 60.628124 63.378124 60.39375Q63.128124 60.221874 62.128124 59.971874Q60.76875 59.628124 60.2375 59.378124Q59.721874 59.128124 59.45625 58.690624Q59.190624 58.253124 59.190624 57.721874Q59.190624 57.2375 59.409374 56.83125Q59.628124 56.409374 60.01875 56.128124Q60.3 55.925 60.784374 55.784374Q61.284374 55.628124 61.8625 55.628124Q62.70625 55.628124 63.346874 55.878124Q64.00313 56.1125 64.31563 56.534374Q64.62813 56.95625 64.7375 57.659374L63.534374 57.83125Q63.45625 57.26875 63.05 56.95625Q62.659374 56.64375 61.940624 56.64375Q61.096874 56.64375 60.7375 56.925Q60.378124 57.190624 60.378124 57.58125Q60.378124 57.815624 60.51875 58.003124Q60.675 58.20625 61.003124 58.33125Q61.175 58.39375 62.08125 58.64375Q63.39375 59.003124 63.909374 59.221874Q64.425 59.440624 64.70625 59.8625Q65.00313 60.284374 65.00313 60.909374Q65.00313 61.534374 64.64375 62.08125Q64.3 62.6125 63.6125 62.925Q62.940624 63.221874 62.08125 63.221874Q60.675 63.221874 59.925 62.628124Q59.190624 62.034374 58.9875 60.878124ZM71.81563 63.05L69.59688 55.784374L70.8625 55.784374L72.01875 59.9875L72.45625 61.534374Q72.47188 61.425 72.83125 60.034374L73.9875 55.784374L75.2375 55.784374L76.33125 60.003124L76.69063 61.39375L77.1125 59.9875L78.3625 55.784374L79.55 55.784374L77.28438 63.05L76.00313 63.05L74.84688 58.70625L74.56563 57.471874L73.09688 63.05L71.81563 63.05ZM79.4875 54.440624L79.4875 53.034374L80.70625 53.034374L80.70625 54.440624L79.4875 54.440624ZM79.4875 63.05L79.4875 55.784374L80.70625 55.784374L80.70625 63.05L79.4875 63.05ZM85.15938 61.95625L85.33125 63.034374Q84.81563 63.14375 84.40938 63.14375Q83.7375 63.14375 83.3625 62.940624Q83.00313 62.721874 82.84688 62.378124Q82.70625 62.034374 82.70625 60.925L82.70625 56.753124L81.8 56.753124L81.8 55.784374L82.70625 55.784374L82.70625 53.9875L83.925 53.253124L83.925 55.784374L85.15938 55.784374L85.15938 56.753124L83.925 56.753124L83.925 60.9875Q83.925 61.51875 83.9875 61.675Q84.05 61.815624 84.19063 61.909374Q84.34688 62.003124 84.6125 62.003124Q84.83125 62.003124 85.15938 61.95625ZM86.47188 63.05L86.47188 53.034374L87.70625 53.034374L87.70625 56.628124Q88.56563 55.628124 89.87813 55.628124Q90.69063 55.628124 91.28438 55.95625Q91.87813 56.26875 92.12813 56.83125Q92.39375 57.378124 92.39375 58.45625L92.39375 63.05L91.15938 63.05L91.15938 58.45625Q91.15938 57.51875 90.75313 57.1125Q90.3625 56.690624 89.62813 56.690624Q89.08125 56.690624 88.59688 56.971874Q88.1125 57.253124 87.90938 57.7375Q87.70625 58.221874 87.70625 59.08125L87.70625 63.05L86.47188 63.05ZM104.95625 58.675L98.31563 61.503124L98.31563 60.284374L103.56563 58.096874L98.31563 55.940624L98.31563 54.721874L104.95625 57.51875L104.95625 58.675ZM112.94063 57.159374L106.33125 57.159374L106.33125 56.003124L112.94063 56.003124L112.94063 57.159374ZM112.94063 60.20625L106.33125 60.20625L106.33125 59.05L112.94063 59.05L112.94063 60.20625ZM118.76875 63.05L117.53438 63.05L117.53438 55.20625Q117.09688 55.628124 116.3625 56.065624Q115.64375 56.4875 115.08125 56.690624L115.08125 55.503124Q116.1125 55.01875 116.87813 54.33125Q117.65938 53.64375 117.97188 52.9875L118.76875 52.9875L118.76875 63.05ZM122.12813 58.1125Q122.12813 56.33125 122.4875 55.253124Q122.8625 54.159374 123.58125 53.58125Q124.3 52.9875 125.39375 52.9875Q126.20625 52.9875 126.81563 53.315624Q127.425 53.64375 127.81563 54.253124Q128.22188 54.8625 128.44063 55.7375Q128.65938 56.6125 128.65938 58.1125Q128.65938 59.878124 128.3 60.95625Q127.94063 62.034374 127.22188 62.628124Q126.50313 63.221874 125.39375 63.221874Q123.95625 63.221874 123.12813 62.175Q122.12813 60.925 122.12813 58.1125ZM123.39375 58.1125Q123.39375 60.58125 123.97188 61.39375Q124.55 62.20625 125.39375 62.20625Q126.25313 62.20625 126.83125 61.39375Q127.40938 60.565624 127.40938 58.1125Q127.40938 55.628124 126.83125 54.815624Q126.25313 54.003124 125.37813 54.003124Q124.53438 54.003124 124.03438 54.721874Q123.39375 55.64375 123.39375 58.1125ZM137.15938 61.95625L137.33125 63.034374Q136.81563 63.14375 136.40938 63.14375Q135.7375 63.14375 135.3625 62.940624Q135.00313 62.721874 134.84688 62.378124Q134.70625 62.034374 134.70625 60.925L134.70625 56.753124L133.8 56.753124L133.8 55.784374L134.70625 55.784374L134.70625 53.9875L135.925 53.253124L135.925 55.784374L137.15938 55.784374L137.15938 56.753124L135.925 56.753124L135.925 60.9875Q135.925 61.51875 135.9875 61.675Q136.05 61.815624 136.19063 61.909374Q136.34688 62.003124 136.6125 62.003124Q136.83125 62.003124 137.15938 61.95625ZM138.45625 63.05L138.45625 55.784374L139.56563 55.784374L139.56563 56.89375Q139.9875 56.1125 140.34688 55.878124Q140.70625 55.628124 141.14375 55.628124Q141.76875 55.628124 142.40938 56.01875L141.9875 57.159374Q141.53438 56.89375 141.08125 56.89375Q140.675 56.89375 140.34688 57.14375Q140.03438 57.378124 139.89375 57.815624Q139.69063 58.471874 139.69063 59.253124L139.69063 63.05L138.45625 63.05ZM148.20625 62.159374Q147.53438 62.7375 146.89375 62.9875Q146.26875 63.221874 145.53438 63.221874Q144.34688 63.221874 143.69063 62.64375Q143.05 62.05 143.05 61.128124Q143.05 60.596874 143.28438 60.159374Q143.53438 59.721874 143.925 59.45625Q144.33125 59.190624 144.81563 59.05Q145.175 58.95625 145.90938 58.8625Q147.40938 58.690624 148.1125 58.440624Q148.1125 58.190624 148.1125 58.128124Q148.1125 57.3625 147.76875 57.065624Q147.3 56.64375 146.3625 56.64375Q145.50313 56.64375 145.08125 56.95625Q144.675 57.253124 144.47188 58.01875L143.26875 57.8625Q143.425 57.08125 143.8 56.6125Q144.19063 56.14375 144.89375 55.89375Q145.6125 55.628124 146.55 55.628124Q147.47188 55.628124 148.05 55.846874Q148.62813 56.065624 148.89375 56.39375Q149.175 56.721874 149.28438 57.2375Q149.34688 57.55 149.34688 58.3625L149.34688 60.003124Q149.34688 61.721874 149.425 62.175Q149.50313 62.628124 149.7375 63.05L148.45625 63.05Q148.26875 62.659374 148.20625 62.159374ZM148.1125 59.409374Q147.44063 59.675 146.09688 59.878124Q145.34688 59.9875 145.01875 60.128124Q144.70625 60.253124 144.53438 60.51875Q144.3625 60.784374 144.3625 61.096874Q144.3625 61.596874 144.7375 61.925Q145.1125 62.253124 145.83125 62.253124Q146.55 62.253124 147.09688 61.940624Q147.64375 61.628124 147.90938 61.08125Q148.1125 60.675 148.1125 59.8625L148.1125 59.409374ZM156.20625 60.39375L157.425 60.55Q157.22188 61.8 156.39375 62.51875Q155.58125 63.221874 154.39375 63.221874Q152.90938 63.221874 152.00313 62.253124Q151.09688 61.26875 151.09688 59.440624Q151.09688 58.26875 151.4875 57.39375Q151.87813 56.503124 152.675 56.065624Q153.47188 55.628124 154.40938 55.628124Q155.58125 55.628124 156.33125 56.221874Q157.09688 56.815624 157.3 57.925L156.1125 58.1125Q155.94063 57.378124 155.50313 57.01875Q155.06563 56.64375 154.45625 56.64375Q153.51875 56.64375 152.94063 57.315624Q152.3625 57.971874 152.3625 59.409374Q152.3625 60.878124 152.925 61.55Q153.4875 62.20625 154.37813 62.20625Q155.1125 62.20625 155.59688 61.76875Q156.08125 61.315624 156.20625 60.39375ZM158.4875 63.05L158.4875 53.034374L159.70625 53.034374L159.70625 58.7375L162.62813 55.784374L164.22188 55.784374L161.44063 58.4875L164.50313 63.05L162.97188 63.05L160.58125 59.33125L159.70625 60.175L159.70625 63.05L158.4875 63.05ZM170.44063 60.70625L171.72188 60.8625Q171.40938 61.9875 170.59688 62.6125Q169.78438 63.221874 168.51875 63.221874Q166.925 63.221874 165.9875 62.2375Q165.06563 61.253124 165.06563 59.4875Q165.06563 57.64375 166.00313 56.64375Q166.95625 55.628124 168.45625 55.628124Q169.90938 55.628124 170.83125 56.628124Q171.75313 57.6125 171.75313 59.409374Q171.75313 59.51875 171.75313 59.7375L166.33125 59.7375Q166.40938 60.925 167.00313 61.565624Q167.6125 62.20625 168.53438 62.20625Q169.20625 62.20625 169.675 61.846874Q170.15938 61.4875 170.44063 60.70625ZM166.40938 58.721874L170.45625 58.721874Q170.37813 57.8 169.9875 57.346874Q169.40938 56.64375 168.47188 56.64375Q167.6125 56.64375 167.03438 57.20625Q166.47188 57.76875 166.40938 58.721874ZM178.19063 63.05L178.19063 62.128124Q177.4875 63.221874 176.15938 63.221874Q175.28438 63.221874 174.55 62.7375Q173.83125 62.253124 173.425 61.39375Q173.03438 60.534374 173.03438 59.425Q173.03438 58.346874 173.39375 57.45625Q173.75313 56.565624 174.47188 56.096874Q175.20625 55.628124 176.09688 55.628124Q176.75313 55.628124 177.26875 55.909374Q177.78438 56.175 178.09688 56.628124L178.09688 53.034374L179.33125 53.034374L179.33125 63.05L178.19063 63.05ZM174.3 59.425Q174.3 60.815624 174.87813 61.51875Q175.47188 62.20625 176.26875 62.20625Q177.08125 62.20625 177.64375 61.55Q178.20625 60.878124 178.20625 59.534374Q178.20625 58.034374 177.62813 57.346874Q177.05 56.64375 176.22188 56.64375Q175.39375 56.64375 174.84688 57.315624Q174.3 57.9875 174.3 59.425ZM185.47188 63.05L185.47188 55.784374L186.58125 55.784374L186.58125 56.815624Q186.90938 56.26875 187.47188 55.95625Q188.05 55.628124 188.76875 55.628124Q189.58125 55.628124 190.09688 55.971874Q190.6125 56.3 190.83125 56.89375Q191.69063 55.628124 193.06563 55.628124Q194.14375 55.628124 194.72188 56.221874Q195.31563 56.815624 195.31563 58.065624L195.31563 63.05L194.08125 63.05L194.08125 58.471874Q194.08125 57.7375 193.95625 57.409374Q193.84688 57.08125 193.53438 56.89375Q193.22188 56.690624 192.8 56.690624Q192.03438 56.690624 191.51875 57.20625Q191.01875 57.70625 191.01875 58.83125L191.01875 63.05L189.78438 63.05L189.78438 58.33125Q189.78438 57.51875 189.4875 57.1125Q189.19063 56.690624 188.50313 56.690624Q187.9875 56.690624 187.53438 56.971874Q187.09688 57.2375 186.89375 57.76875Q186.70625 58.284374 186.70625 59.284374L186.70625 63.05L185.47188 63.05ZM201.20625 62.159374Q200.53438 62.7375 199.89375 62.9875Q199.26875 63.221874 198.53438 63.221874Q197.34688 63.221874 196.69063 62.64375Q196.05 62.05 196.05 61.128124Q196.05 60.596874 196.28438 60.159374Q196.53438 59.721874 196.925 59.45625Q197.33125 59.190624 197.81563 59.05Q198.175 58.95625 198.90938 58.8625Q200.40938 58.690624 201.1125 58.440624Q201.1125 58.190624 201.1125 58.128124Q201.1125 57.3625 200.76875 57.065624Q200.3 56.64375 199.3625 56.64375Q198.50313 56.64375 198.08125 56.95625Q197.675 57.253124 197.47188 58.01875L196.26875 57.8625Q196.425 57.08125 196.8 56.6125Q197.19063 56.14375 197.89375 55.89375Q198.6125 55.628124 199.55 55.628124Q200.47188 55.628124 201.05 55.846874Q201.62813 56.065624 201.89375 56.39375Q202.175 56.721874 202.28438 57.2375Q202.34688 57.55 202.34688 58.3625L202.34688 60.003124Q202.34688 61.721874 202.425 62.175Q202.50313 62.628124 202.7375 63.05L201.45625 63.05Q201.26875 62.659374 201.20625 62.159374ZM201.1125 59.409374Q200.44063 59.675 199.09688 59.878124Q198.34688 59.9875 198.01875 60.128124Q197.70625 60.253124 197.53438 60.51875Q197.3625 60.784374 197.3625 61.096874Q197.3625 61.596874 197.7375 61.925Q198.1125 62.253124 198.83125 62.253124Q199.55 62.253124 200.09688 61.940624Q200.64375 61.628124 200.90938 61.08125Q201.1125 60.675 201.1125 59.8625L201.1125 59.409374ZM207.15938 61.95625L207.33125 63.034374Q206.81563 63.14375 206.40938 63.14375Q205.7375 63.14375 205.3625 62.940624Q205.00313 62.721874 204.84688 62.378124Q204.70625 62.034374 204.70625 60.925L204.70625 56.753124L203.8 56.753124L203.8 55.784374L204.70625 55.784374L204.70625 53.9875L205.925 53.253124L205.925 55.784374L207.15938 55.784374L207.15938 56.753124L205.925 56.753124L205.925 60.9875Q205.925 61.51875 205.9875 61.675Q206.05 61.815624 206.19063 61.909374Q206.34688 62.003124 206.6125 62.003124Q206.83125 62.003124 207.15938 61.95625ZM213.20625 60.39375L214.425 60.55Q214.22188 61.8 213.39375 62.51875Q212.58125 63.221874 211.39375 63.221874Q209.90938 63.221874 209.00313 62.253124Q208.09688 61.26875 208.09688 59.440624Q208.09688 58.26875 208.4875 57.39375Q208.87813 56.503124 209.675 56.065624Q210.47188 55.628124 211.40938 55.628124Q212.58125 55.628124 213.33125 56.221874Q214.09688 56.815624 214.3 57.925L213.1125 58.1125Q212.94063 57.378124 212.50313 57.01875Q212.06563 56.64375 211.45625 56.64375Q210.51875 56.64375 209.94063 57.315624Q209.3625 57.971874 209.3625 59.409374Q209.3625 60.878124 209.925 61.55Q210.4875 62.20625 211.37813 62.20625Q212.1125 62.20625 212.59688 61.76875Q213.08125 61.315624 213.20625 60.39375ZM215.47188 63.05L215.47188 53.034374L216.70625 53.034374L216.70625 56.628124Q217.56563 55.628124 218.87813 55.628124Q219.69063 55.628124 220.28438 55.95625Q220.87813 56.26875 221.12813 56.83125Q221.39375 57.378124 221.39375 58.45625L221.39375 63.05L220.15938 63.05L220.15938 58.45625Q220.15938 57.51875 219.75313 57.1125Q219.3625 56.690624 218.62813 56.690624Q218.08125 56.690624 217.59688 56.971874Q217.1125 57.253124 216.90938 57.7375Q216.70625 58.221874 216.70625 59.08125L216.70625 63.05L215.47188 63.05ZM228.44063 60.70625L229.72188 60.8625Q229.40938 61.9875 228.59688 62.6125Q227.78438 63.221874 226.51875 63.221874Q224.925 63.221874 223.9875 62.2375Q223.06563 61.253124 223.06563 59.4875Q223.06563 57.64375 224.00313 56.64375Q224.95625 55.628124 226.45625 55.628124Q227.90938 55.628124 228.83125 56.628124Q229.75313 57.6125 229.75313 59.409374Q229.75313 59.51875 229.75313 59.7375L224.33125 59.7375Q224.40938 60.925 225.00313 61.565624Q225.6125 62.20625 226.53438 62.20625Q227.20625 62.20625 227.675 61.846874Q228.15938 61.4875 228.44063 60.70625ZM224.40938 58.721874L228.45625 58.721874Q228.37813 57.8 227.9875 57.346874Q227.40938 56.64375 226.47188 56.64375Q225.6125 56.64375 225.03438 57.20625Q224.47188 57.76875 224.40938 58.721874ZM230.9875 60.878124L232.19063 60.690624Q232.3 61.425 232.76875 61.815624Q233.2375 62.20625 234.08125 62.20625Q234.925 62.20625 235.33125 61.8625Q235.75313 61.51875 235.75313 61.05Q235.75313 60.628124 235.37813 60.39375Q235.12813 60.221874 234.12813 59.971874Q232.76875 59.628124 232.2375 59.378124Q231.72188 59.128124 231.45625 58.690624Q231.19063 58.253124 231.19063 57.721874Q231.19063 57.2375 231.40938 56.83125Q231.62813 56.409374 232.01875 56.128124Q232.3 55.925 232.78438 55.784374Q233.28438 55.628124 233.8625 55.628124Q234.70625 55.628124 235.34688 55.878124Q236.00313 56.1125 236.31563 56.534374Q236.62813 56.95625 236.7375 57.659374L235.53438 57.83125Q235.45625 57.26875 235.05 56.95625Q234.65938 56.64375 233.94063 56.64375Q233.09688 56.64375 232.7375 56.925Q232.37813 57.190624 232.37813 57.58125Q232.37813 57.815624 232.51875 58.003124Q232.675 58.20625 233.00313 58.33125Q233.175 58.39375 234.08125 58.64375Q235.39375 59.003124 235.90938 59.221874Q236.425 59.440624 236.70625 59.8625Q237.00313 60.284374 237.00313 60.909374Q237.00313 61.534374 236.64375 62.08125Q236.3 62.6125 235.6125 62.925Q234.94063 63.221874 234.08125 63.221874Q232.675 63.221874 231.925 62.628124Q231.19063 62.034374 230.9875 60.878124ZM244.83125 66.00313Q243.8 64.70625 243.09688 62.9875Q242.39375 61.26875 242.39375 59.425Q242.39375 57.8 242.925 56.3Q243.53438 54.565624 244.83125 52.8625L245.70625 52.8625Q244.87813 54.284374 244.6125 54.89375Q244.19063 55.83125 243.95625 56.8625Q243.65938 58.128124 243.65938 59.425Q243.65938 62.721874 245.70625 66.00313L244.83125 66.00313ZM249.4875 63.05L246.72188 55.784374L248.03438 55.784374L249.58125 60.14375Q249.83125 60.846874 250.05 61.596874Q250.22188 61.01875 250.50313 60.221874L252.12813 55.784374L253.39375 55.784374L250.64375 63.05L249.4875 63.05ZM254.4875 54.440624L254.4875 53.034374L255.70625 53.034374L255.70625 54.440624L254.4875 54.440624ZM254.4875 63.05L254.4875 55.784374L255.70625 55.784374L255.70625 63.05L254.4875 63.05ZM262.20624 62.159374Q261.53436 62.7375 260.89374 62.9875Q260.26874 63.221874 259.53436 63.221874Q258.34686 63.221874 257.6906 62.64375Q257.05 62.05 257.05 61.128124Q257.05 60.596874 257.28436 60.159374Q257.53436 59.721874 257.925 59.45625Q258.33124 59.190624 258.8156 59.05Q259.175 58.95625 259.90936 58.8625Q261.40936 58.690624 262.1125 58.440624Q262.1125 58.190624 262.1125 58.128124Q262.1125 57.3625 261.76874 57.065624Q261.3 56.64375 260.3625 56.64375Q259.5031 56.64375 259.08124 56.95625Q258.675 57.253124 258.47186 58.01875L257.26874 57.8625Q257.425 57.08125 257.8 56.6125Q258.1906 56.14375 258.89374 55.89375Q259.6125 55.628124 260.55 55.628124Q261.47186 55.628124 262.05 55.846874Q262.6281 56.065624 262.89374 56.39375Q263.175 56.721874 263.28436 57.2375Q263.34686 57.55 263.34686 58.3625L263.34686 60.003124Q263.34686 61.721874 263.425 62.175Q263.5031 62.628124 263.7375 63.05L262.45624 63.05Q262.26874 62.659374 262.20624 62.159374ZM262.1125 59.409374Q261.4406 59.675 260.09686 59.878124Q259.34686 59.9875 259.01874 60.128124Q258.70624 60.253124 258.53436 60.51875Q258.3625 60.784374 258.3625 61.096874Q258.3625 61.596874 258.7375 61.925Q259.1125 62.253124 259.83124 62.253124Q260.55 62.253124 261.09686 61.940624Q261.64374 61.628124 261.90936 61.08125Q262.1125 60.675 262.1125 59.8625L262.1125 59.409374ZM274.20624 60.39375L275.425 60.55Q275.22186 61.8 274.39374 62.51875Q273.58124 63.221874 272.39374 63.221874Q270.90936 63.221874 270.0031 62.253124Q269.09686 61.26875 269.09686 59.440624Q269.09686 58.26875 269.4875 57.39375Q269.8781 56.503124 270.675 56.065624Q271.47186 55.628124 272.40936 55.628124Q273.58124 55.628124 274.33124 56.221874Q275.09686 56.815624 275.3 57.925L274.1125 58.1125Q273.9406 57.378124 273.5031 57.01875Q273.0656 56.64375 272.45624 56.64375Q271.51874 56.64375 270.9406 57.315624Q270.3625 57.971874 270.3625 59.409374Q270.3625 60.878124 270.925 61.55Q271.4875 62.20625 272.3781 62.20625Q273.1125 62.20625 273.59686 61.76875Q274.08124 61.315624 274.20624 60.39375ZM275.9875 60.878124L277.1906 60.690624Q277.3 61.425 277.76874 61.815624Q278.2375 62.20625 279.08124 62.20625Q279.925 62.20625 280.33124 61.8625Q280.7531 61.51875 280.7531 61.05Q280.7531 60.628124 280.3781 60.39375Q280.1281 60.221874 279.1281 59.971874Q277.76874 59.628124 277.2375 59.378124Q276.72186 59.128124 276.45624 58.690624Q276.1906 58.253124 276.1906 57.721874Q276.1906 57.2375 276.40936 56.83125Q276.6281 56.409374 277.01874 56.128124Q277.3 55.925 277.78436 55.784374Q278.28436 55.628124 278.8625 55.628124Q279.70624 55.628124 280.34686 55.878124Q281.0031 56.1125 281.3156 56.534374Q281.6281 56.95625 281.7375 57.659374L280.53436 57.83125Q280.45624 57.26875 280.05 56.95625Q279.65936 56.64375 278.9406 56.64375Q278.09686 56.64375 277.7375 56.925Q277.3781 57.190624 277.3781 57.58125Q277.3781 57.815624 277.51874 58.003124Q277.675 58.20625 278.0031 58.33125Q278.175 58.39375 279.08124 58.64375Q280.39374 59.003124 280.90936 59.221874Q281.425 59.440624 281.70624 59.8625Q282.0031 60.284374 282.0031 60.909374Q282.0031 61.534374 281.64374 62.08125Q281.3 62.6125 280.6125 62.925Q279.9406 63.221874 279.08124 63.221874Q277.675 63.221874 276.925 62.628124Q276.1906 62.034374 275.9875 60.878124ZM282.9875 60.878124L284.1906 60.690624Q284.3 61.425 284.76874 61.815624Q285.2375 62.20625 286.08124 62.20625Q286.925 62.20625 287.33124 61.8625Q287.7531 61.51875 287.7531 61.05Q287.7531 60.628124 287.3781 60.39375Q287.1281 60.221874 286.1281 59.971874Q284.76874 59.628124 284.2375 59.378124Q283.72186 59.128124 283.45624 58.690624Q283.1906 58.253124 283.1906 57.721874Q283.1906 57.2375 283.40936 56.83125Q283.6281 56.409374 284.01874 56.128124Q284.3 55.925 284.78436 55.784374Q285.28436 55.628124 285.8625 55.628124Q286.70624 55.628124 287.34686 55.878124Q288.0031 56.1125 288.3156 56.534374Q288.6281 56.95625 288.7375 57.659374L287.53436 57.83125Q287.45624 57.26875 287.05 56.95625Q286.65936 56.64375 285.9406 56.64375Q285.09686 56.64375 284.7375 56.925Q284.3781 57.190624 284.3781 57.58125Q284.3781 57.815624 284.51874 58.003124Q284.675 58.20625 285.0031 58.33125Q285.175 58.39375 286.08124 58.64375Q287.39374 59.003124 287.90936 59.221874Q288.425 59.440624 288.70624 59.8625Q289.0031 60.284374 289.0031 60.909374Q289.0031 61.534374 288.64374 62.08125Q288.3 62.6125 287.6125 62.925Q286.9406 63.221874 286.08124 63.221874Q284.675 63.221874 283.925 62.628124Q283.1906 62.034374 282.9875 60.878124ZM293.15936 61.95625L293.33124 63.034374Q292.8156 63.14375 292.40936 63.14375Q291.7375 63.14375 291.3625 62.940624Q291.0031 62.721874 290.84686 62.378124Q290.70624 62.034374 290.70624 60.925L290.70624 56.753124L289.8 56.753124L289.8 55.784374L290.70624 55.784374L290.70624 53.9875L291.925 53.253124L291.925 55.784374L293.15936 55.784374L293.15936 56.753124L291.925 56.753124L291.925 60.9875Q291.925 61.51875 291.9875 61.675Q292.05 61.815624 292.1906 61.909374Q292.34686 62.003124 292.6125 62.003124Q292.83124 62.003124 293.15936 61.95625ZM299.20624 62.159374Q298.53436 62.7375 297.89374 62.9875Q297.26874 63.221874 296.53436 63.221874Q295.34686 63.221874 294.6906 62.64375Q294.05 62.05 294.05 61.128124Q294.05 60.596874 294.28436 60.159374Q294.53436 59.721874 294.925 59.45625Q295.33124 59.190624 295.8156 59.05Q296.175 58.95625 296.90936 58.8625Q298.40936 58.690624 299.1125 58.440624Q299.1125 58.190624 299.1125 58.128124Q299.1125 57.3625 298.76874 57.065624Q298.3 56.64375 297.3625 56.64375Q296.5031 56.64375 296.08124 56.95625Q295.675 57.253124 295.47186 58.01875L294.26874 57.8625Q294.425 57.08125 294.8 56.6125Q295.1906 56.14375 295.89374 55.89375Q296.6125 55.628124 297.55 55.628124Q298.47186 55.628124 299.05 55.846874Q299.6281 56.065624 299.89374 56.39375Q300.175 56.721874 300.28436 57.2375Q300.34686 57.55 300.34686 58.3625L300.34686 60.003124Q300.34686 61.721874 300.425 62.175Q300.5031 62.628124 300.7375 63.05L299.45624 63.05Q299.26874 62.659374 299.20624 62.159374ZM299.1125 59.409374Q298.4406 59.675 297.09686 59.878124Q296.34686 59.9875 296.01874 60.128124Q295.70624 60.253124 295.53436 60.51875Q295.3625 60.784374 295.3625 61.096874Q295.3625 61.596874 295.7375 61.925Q296.1125 62.253124 296.83124 62.253124Q297.55 62.253124 298.09686 61.940624Q298.64374 61.628124 298.90936 61.08125Q299.1125 60.675 299.1125 59.8625L299.1125 59.409374ZM305.15936 61.95625L305.33124 63.034374Q304.8156 63.14375 304.40936 63.14375Q303.7375 63.14375 303.3625 62.940624Q303.0031 62.721874 302.84686 62.378124Q302.70624 62.034374 302.70624 60.925L302.70624 56.753124L301.8 56.753124L301.8 55.784374L302.70624 55.784374L302.70624 53.9875L303.925 53.253124L303.925 55.784374L305.15936 55.784374L305.15936 56.753124L303.925 56.753124L303.925 60.9875Q303.925 61.51875 303.9875 61.675Q304.05 61.815624 304.1906 61.909374Q304.34686 62.003124 304.6125 62.003124Q304.83124 62.003124 305.15936 61.95625ZM305.9875 60.878124L307.1906 60.690624Q307.3 61.425 307.76874 61.815624Q308.2375 62.20625 309.08124 62.20625Q309.925 62.20625 310.33124 61.8625Q310.7531 61.51875 310.7531 61.05Q310.7531 60.628124 310.3781 60.39375Q310.1281 60.221874 309.1281 59.971874Q307.76874 59.628124 307.2375 59.378124Q306.72186 59.128124 306.45624 58.690624Q306.1906 58.253124 306.1906 57.721874Q306.1906 57.2375 306.40936 56.83125Q306.6281 56.409374 307.01874 56.128124Q307.3 55.925 307.78436 55.784374Q308.28436 55.628124 308.8625 55.628124Q309.70624 55.628124 310.34686 55.878124Q311.0031 56.1125 311.3156 56.534374Q311.6281 56.95625 311.7375 57.659374L310.53436 57.83125Q310.45624 57.26875 310.05 56.95625Q309.65936 56.64375 308.9406 56.64375Q308.09686 56.64375 307.7375 56.925Q307.3781 57.190624 307.3781 57.58125Q307.3781 57.815624 307.51874 58.003124Q307.675 58.20625 308.0031 58.33125Q308.175 58.39375 309.08124 58.64375Q310.39374 59.003124 310.90936 59.221874Q311.425 59.440624 311.70624 59.8625Q312.0031 60.284374 312.0031 60.909374Q312.0031 61.534374 311.64374 62.08125Q311.3 62.6125 310.6125 62.925Q309.9406 63.221874 309.08124 63.221874Q307.675 63.221874 306.925 62.628124Q306.1906 62.034374 305.9875 60.878124ZM313.8156 63.05L313.8156 61.64375L315.22186 61.64375L315.22186 63.05L313.8156 63.05ZM317.2531 63.659374L318.4406 63.83125Q318.51874 64.37813 318.8625 64.64375Q319.3156 64.97188 320.1125 64.97188Q320.97186 64.97188 321.425 64.62813Q321.89374 64.3 322.0656 63.675Q322.15936 63.3 322.14374 62.096874Q321.34686 63.05 320.14374 63.05Q318.64374 63.05 317.8156 61.971874Q317.0031 60.89375 317.0031 59.378124Q317.0031 58.346874 317.3781 57.471874Q317.7531 56.58125 318.45624 56.1125Q319.175 55.628124 320.14374 55.628124Q321.425 55.628124 322.26874 56.659374L322.26874 55.784374L323.39374 55.784374L323.39374 62.065624Q323.39374 63.76875 323.05 64.47188Q322.70624 65.175 321.95624 65.58125Q321.20624 66.00313 320.1125 66.00313Q318.8156 66.00313 318.01874 65.40938Q317.22186 64.83125 317.2531 63.659374ZM318.26874 59.284374Q318.26874 60.721874 318.83124 61.378124Q319.39374 62.034374 320.2531 62.034374Q321.09686 62.034374 321.675 61.378124Q322.2531 60.721874 322.2531 59.33125Q322.2531 58.003124 321.65936 57.33125Q321.0656 56.64375 320.2375 56.64375Q319.40936 56.64375 318.83124 57.315624Q318.26874 57.971874 318.26874 59.284374ZM325.2531 63.659374L326.4406 63.83125Q326.51874 64.37813 326.8625 64.64375Q327.3156 64.97188 328.1125 64.97188Q328.97186 64.97188 329.425 64.62813Q329.89374 64.3 330.0656 63.675Q330.15936 63.3 330.14374 62.096874Q329.34686 63.05 328.14374 63.05Q326.64374 63.05 325.8156 61.971874Q325.0031 60.89375 325.0031 59.378124Q325.0031 58.346874 325.3781 57.471874Q325.7531 56.58125 326.45624 56.1125Q327.175 55.628124 328.14374 55.628124Q329.425 55.628124 330.26874 56.659374L330.26874 55.784374L331.39374 55.784374L331.39374 62.065624Q331.39374 63.76875 331.05 64.47188Q330.70624 65.175 329.95624 65.58125Q329.20624 66.00313 328.1125 66.00313Q326.8156 66.00313 326.01874 65.40938Q325.22186 64.83125 325.2531 63.659374ZM326.26874 59.284374Q326.26874 60.721874 326.83124 61.378124Q327.39374 62.034374 328.2531 62.034374Q329.09686 62.034374 329.675 61.378124Q330.2531 60.721874 330.2531 59.33125Q330.2531 58.003124 329.65936 57.33125Q329.0656 56.64375 328.2375 56.64375Q327.40936 56.64375 326.83124 57.315624Q326.26874 57.971874 326.26874 59.284374ZM334.28436 66.00313L333.39374 66.00313Q335.4406 62.721874 335.4406 59.425Q335.4406 58.14375 335.14374 56.878124Q334.90936 55.846874 334.5031 54.909374Q334.2375 54.3 333.39374 52.8625L334.28436 52.8625Q335.5656 54.565624 336.175 56.3Q336.70624 57.8 336.70624 59.425Q336.70624 61.26875 335.9875 62.9875Q335.28436 64.70625 334.28436 66.00313Z" fill-rule="nonzero"/><path fill="#757575" d="M18.51875 37.55L24.01875 23.2375L26.065624 23.2375L31.925 37.55L29.76875 37.55L28.096874 33.20625L22.1125 33.20625L20.534374 37.55L18.51875 37.55ZM22.659374 31.675L27.503124 31.675L26.01875 27.70625Q25.33125 25.89375 25.003124 24.7375Q24.721874 26.1125 24.221874 27.471874L22.659374 31.675ZM32.8625 37.55L32.8625 27.175L34.45625 27.175L34.45625 28.659374Q35.596874 26.940624 37.753124 26.940624Q38.690624 26.940624 39.471874 27.284374Q40.26875 27.6125 40.659374 28.159374Q41.05 28.70625 41.20625 29.45625Q41.3 29.95625 41.3 31.175L41.3 37.55L39.534374 37.55L39.534374 31.2375Q39.534374 30.159374 39.33125 29.628124Q39.128124 29.096874 38.596874 28.784374Q38.08125 28.471874 37.378124 28.471874Q36.253124 28.471874 35.440624 29.190624Q34.628124 29.89375 34.628124 31.878124L34.628124 37.55L32.8625 37.55ZM49.659374 37.55L49.659374 36.01875Q48.45625 37.784374 46.378124 37.784374Q45.45625 37.784374 44.659374 37.440624Q43.8625 37.08125 43.471874 36.55Q43.096874 36.01875 42.940624 35.2375Q42.83125 34.721874 42.83125 33.596874L42.83125 27.175L44.58125 27.175L44.58125 32.925Q44.58125 34.3 44.690624 34.784374Q44.8625 35.471874 45.39375 35.878124Q45.940624 36.26875 46.721874 36.26875Q47.51875 36.26875 48.20625 35.8625Q48.909374 35.45625 49.190624 34.76875Q49.4875 34.065624 49.4875 32.7375L49.4875 27.175L51.2375 27.175L51.2375 37.55L49.659374 37.55ZM54.4875 37.55L52.8625 37.55L52.8625 23.2375L54.6125 23.2375L54.6125 28.346874Q55.7375 26.940624 57.45625 26.940624Q58.409374 26.940624 59.26875 27.33125Q60.128124 27.721874 60.675 28.425Q61.221874 29.1125 61.534374 30.096874Q61.846874 31.08125 61.846874 32.20625Q61.846874 34.878124 60.534374 36.33125Q59.221874 37.784374 57.378124 37.784374Q55.534374 37.784374 54.4875 36.253124L54.4875 37.55ZM54.471874 32.284374Q54.471874 34.14375 54.971874 34.9875Q55.815624 36.33125 57.221874 36.33125Q58.378124 36.33125 59.20625 35.33125Q60.05 34.33125 60.05 32.346874Q60.05 30.315624 59.2375 29.3625Q58.440624 28.39375 57.3 28.39375Q56.14375 28.39375 55.3 29.39375Q54.471874 30.39375 54.471874 32.284374ZM63.878124 25.253124L63.878124 23.2375L65.64375 23.2375L65.64375 25.253124L63.878124 25.253124ZM63.878124 37.55L63.878124 27.175L65.64375 27.175L65.64375 37.55L63.878124 37.55ZM67.15938 34.45625L68.90938 34.175Q69.05 35.221874 69.72188 35.784374Q70.39375 36.33125 71.59688 36.33125Q72.8 36.33125 73.37813 35.846874Q73.97188 35.346874 73.97188 34.690624Q73.97188 34.096874 73.45625 33.753124Q73.09688 33.51875 71.65938 33.159374Q69.72188 32.659374 68.97188 32.315624Q68.2375 31.95625 67.84688 31.33125Q67.45625 30.690624 67.45625 29.925Q67.45625 29.2375 67.76875 28.64375Q68.09688 28.05 68.64375 27.659374Q69.05 27.3625 69.75313 27.159374Q70.47188 26.940624 71.28438 26.940624Q72.50313 26.940624 73.425 27.3Q74.34688 27.64375 74.78438 28.253124Q75.22188 28.846874 75.39375 29.846874L73.675 30.08125Q73.55 29.284374 72.9875 28.846874Q72.425 28.39375 71.40938 28.39375Q70.19063 28.39375 69.675 28.8Q69.15938 29.190624 69.15938 29.721874Q69.15938 30.065624 69.37813 30.346874Q69.58125 30.628124 70.05 30.815624Q70.31563 30.909374 71.59688 31.253124Q73.47188 31.753124 74.20625 32.08125Q74.94063 32.39375 75.3625 33.003124Q75.78438 33.596874 75.78438 34.503124Q75.78438 35.378124 75.26875 36.159374Q74.75313 36.940624 73.78438 37.3625Q72.81563 37.784374 71.59688 37.784374Q69.58125 37.784374 68.51875 36.940624Q67.45625 36.096874 67.15938 34.45625ZM85.78438 37.55L82.6125 27.175L84.425 27.175L86.08125 33.159374L86.69063 35.39375Q86.7375 35.221874 87.22188 33.253124L88.87813 27.175L90.69063 27.175L92.2375 33.190624L92.75313 35.175L93.34688 33.175L95.12813 27.175L96.83125 27.175L93.59688 37.55L91.76875 37.55L90.1125 31.33125L89.72188 29.565624L87.6125 37.55L85.78438 37.55ZM98.87813 25.253124L98.87813 23.2375L100.64375 23.2375L100.64375 25.253124L98.87813 25.253124ZM98.87813 37.55L98.87813 27.175L100.64375 27.175L100.64375 37.55L98.87813 37.55ZM102.8625 37.55L102.8625 27.175L104.45625 27.175L104.45625 28.659374Q105.59688 26.940624 107.75313 26.940624Q108.69063 26.940624 109.47188 27.284374Q110.26875 27.6125 110.65938 28.159374Q111.05 28.70625 111.20625 29.45625Q111.3 29.95625 111.3 31.175L111.3 37.55L109.53438 37.55L109.53438 31.2375Q109.53438 30.159374 109.33125 29.628124Q109.12813 29.096874 108.59688 28.784374Q108.08125 28.471874 107.37813 28.471874Q106.25313 28.471874 105.44063 29.190624Q104.62813 29.89375 104.62813 31.878124L104.62813 37.55L102.8625 37.55ZM112.84688 37.55L112.84688 27.175L114.425 27.175L114.425 28.753124Q115.03438 27.64375 115.55 27.3Q116.06563 26.940624 116.675 26.940624Q117.56563 26.940624 118.4875 27.503124L117.87813 29.14375Q117.2375 28.753124 116.59688 28.753124Q116.01875 28.753124 115.55 29.1125Q115.09688 29.45625 114.89375 30.065624Q114.6125 31.003124 114.6125 32.1125L114.6125 37.55L112.84688 37.55ZM126.64375 36.26875Q125.65938 37.096874 124.75313 37.440624Q123.84688 37.784374 122.81563 37.784374Q121.1125 37.784374 120.19063 36.95625Q119.26875 36.1125 119.26875 34.815624Q119.26875 34.05 119.6125 33.425Q119.97188 32.8 120.53438 32.425Q121.09688 32.034374 121.8 31.83125Q122.31563 31.70625 123.3625 31.565624Q125.4875 31.315624 126.4875 30.971874Q126.50313 30.6125 126.50313 30.503124Q126.50313 29.440624 126.00313 28.9875Q125.33125 28.39375 124.00313 28.39375Q122.75313 28.39375 122.15938 28.83125Q121.58125 29.26875 121.3 30.378124L119.58125 30.14375Q119.81563 29.034374 120.34688 28.3625Q120.87813 27.675 121.89375 27.315624Q122.90938 26.940624 124.25313 26.940624Q125.58125 26.940624 126.40938 27.253124Q127.2375 27.565624 127.62813 28.05Q128.01875 28.51875 128.175 29.2375Q128.26875 29.690624 128.26875 30.8625L128.26875 33.20625Q128.26875 35.659374 128.37813 36.315624Q128.4875 36.95625 128.83125 37.55L126.9875 37.55Q126.72188 37.003124 126.64375 36.26875ZM126.4875 32.346874Q125.53438 32.7375 123.6125 33.003124Q122.53438 33.159374 122.08125 33.3625Q121.64375 33.55 121.39375 33.925Q121.14375 34.3 121.14375 34.76875Q121.14375 35.471874 121.675 35.940624Q122.20625 36.409374 123.2375 36.409374Q124.25313 36.409374 125.03438 35.971874Q125.83125 35.51875 126.20625 34.753124Q126.4875 34.14375 126.4875 32.9875L126.4875 32.346874ZM134.70625 35.971874L134.95625 37.534374Q134.22188 37.690624 133.62813 37.690624Q132.675 37.690624 132.14375 37.39375Q131.62813 37.08125 131.40938 36.596874Q131.19063 36.096874 131.19063 34.51875L131.19063 28.55L129.90938 28.55L129.90938 27.175L131.19063 27.175L131.19063 24.6125L132.94063 23.55L132.94063 27.175L134.70625 27.175L134.70625 28.55L132.94063 28.55L132.94063 34.6125Q132.94063 35.3625 133.03438 35.58125Q133.12813 35.784374 133.33125 35.925Q133.55 36.05 133.94063 36.05Q134.22188 36.05 134.70625 35.971874ZM143.97188 34.20625L145.78438 34.440624Q145.3625 36.01875 144.19063 36.909374Q143.03438 37.784374 141.22188 37.784374Q138.95625 37.784374 137.6125 36.39375Q136.28438 34.9875 136.28438 32.45625Q136.28438 29.83125 137.62813 28.39375Q138.97188 26.940624 141.12813 26.940624Q143.20625 26.940624 144.51875 28.3625Q145.84688 29.76875 145.84688 32.346874Q145.84688 32.503124 145.83125 32.815624L138.09688 32.815624Q138.19063 34.51875 139.06563 35.425Q139.94063 36.33125 141.2375 36.33125Q142.20625 36.33125 142.87813 35.83125Q143.56563 35.315624 143.97188 34.20625ZM138.19063 31.3625L143.9875 31.3625Q143.87813 30.065624 143.33125 29.409374Q142.4875 28.39375 141.14375 28.39375Q139.94063 28.39375 139.1125 29.20625Q138.28438 30.003124 138.19063 31.3625ZM155.4875 37.55L153.8625 37.55L153.8625 23.2375L155.6125 23.2375L155.6125 28.346874Q156.7375 26.940624 158.45625 26.940624Q159.40938 26.940624 160.26875 27.33125Q161.12813 27.721874 161.675 28.425Q162.22188 29.1125 162.53438 30.096874Q162.84688 31.08125 162.84688 32.20625Q162.84688 34.878124 161.53438 36.33125Q160.22188 37.784374 158.37813 37.784374Q156.53438 37.784374 155.4875 36.253124L155.4875 37.55ZM155.47188 32.284374Q155.47188 34.14375 155.97188 34.9875Q156.81563 36.33125 158.22188 36.33125Q159.37813 36.33125 160.20625 35.33125Q161.05 34.33125 161.05 32.346874Q161.05 30.315624 160.2375 29.3625Q159.44063 28.39375 158.3 28.39375Q157.14375 28.39375 156.3 29.39375Q155.47188 30.39375 155.47188 32.284374ZM164.78438 41.55L164.59688 39.89375Q165.175 40.05 165.59688 40.05Q166.19063 40.05 166.53438 39.846874Q166.89375 39.659374 167.1125 39.315624Q167.28438 39.05 167.65938 38.003124Q167.70625 37.846874 167.81563 37.565624L163.87813 27.175L165.76875 27.175L167.925 33.190624Q168.34688 34.33125 168.675 35.58125Q168.9875 34.378124 169.39375 33.221874L171.6125 27.175L173.37813 27.175L169.425 37.721874Q168.8 39.440624 168.44063 40.08125Q167.97188 40.95625 167.3625 41.346874Q166.76875 41.753124 165.925 41.753124Q165.40938 41.753124 164.78438 41.55ZM180.84688 37.55L180.84688 27.175L182.425 27.175L182.425 28.753124Q183.03438 27.64375 183.55 27.3Q184.06563 26.940624 184.675 26.940624Q185.56563 26.940624 186.4875 27.503124L185.87813 29.14375Q185.2375 28.753124 184.59688 28.753124Q184.01875 28.753124 183.55 29.1125Q183.09688 29.45625 182.89375 30.065624Q182.6125 31.003124 182.6125 32.1125L182.6125 37.55L180.84688 37.55ZM194.64375 36.26875Q193.65938 37.096874 192.75313 37.440624Q191.84688 37.784374 190.81563 37.784374Q189.1125 37.784374 188.19063 36.95625Q187.26875 36.1125 187.26875 34.815624Q187.26875 34.05 187.6125 33.425Q187.97188 32.8 188.53438 32.425Q189.09688 32.034374 189.8 31.83125Q190.31563 31.70625 191.3625 31.565624Q193.4875 31.315624 194.4875 30.971874Q194.50313 30.6125 194.50313 30.503124Q194.50313 29.440624 194.00313 28.9875Q193.33125 28.39375 192.00313 28.39375Q190.75313 28.39375 190.15938 28.83125Q189.58125 29.26875 189.3 30.378124L187.58125 30.14375Q187.81563 29.034374 188.34688 28.3625Q188.87813 27.675 189.89375 27.315624Q190.90938 26.940624 192.25313 26.940624Q193.58125 26.940624 194.40938 27.253124Q195.2375 27.565624 195.62813 28.05Q196.01875 28.51875 196.175 29.2375Q196.26875 29.690624 196.26875 30.8625L196.26875 33.20625Q196.26875 35.659374 196.37813 36.315624Q196.4875 36.95625 196.83125 37.55L194.9875 37.55Q194.72188 37.003124 194.64375 36.26875ZM194.4875 32.346874Q193.53438 32.7375 191.6125 33.003124Q190.53438 33.159374 190.08125 33.3625Q189.64375 33.55 189.39375 33.925Q189.14375 34.3 189.14375 34.76875Q189.14375 35.471874 189.675 35.940624Q190.20625 36.409374 191.2375 36.409374Q192.25313 36.409374 193.03438 35.971874Q193.83125 35.51875 194.20625 34.753124Q194.4875 34.14375 194.4875 32.9875L194.4875 32.346874ZM198.8625 37.55L198.8625 27.175L200.45625 27.175L200.45625 28.659374Q201.59688 26.940624 203.75313 26.940624Q204.69063 26.940624 205.47188 27.284374Q206.26875 27.6125 206.65938 28.159374Q207.05 28.70625 207.20625 29.45625Q207.3 29.95625 207.3 31.175L207.3 37.55L205.53438 37.55L205.53438 31.2375Q205.53438 30.159374 205.33125 29.628124Q205.12813 29.096874 204.59688 28.784374Q204.08125 28.471874 203.37813 28.471874Q202.25313 28.471874 201.44063 29.190624Q200.62813 29.89375 200.62813 31.878124L200.62813 37.55L198.8625 37.55ZM208.87813 37.55L208.87813 23.2375L210.64375 23.2375L210.64375 31.39375L214.8 27.175L217.06563 27.175L213.1125 31.01875L217.47188 37.55L215.3 37.55L211.87813 32.253124L210.64375 33.440624L210.64375 37.55L208.87813 37.55Z" fill-rule="nonzero"/></svg>