<svg version="1.1" viewBox="0.0 0.0 600.0 371.0" fill="none" stroke="none" stroke-linecap="square" stroke-miterlimit="10" width="600" height="371" xmlns:xlink="http://www.w3.org/1999/xlink" xmlns="http://www.w3.org/2000/svg"><path fill="#ffffff" d="M0 0L600.0 0L600.0 371.0L0 371.0L0 0Z" fill-rule="nonzero"/><path stroke="#333333" stroke-width="1.0" stroke-linecap="butt" d="M80.5 300.5L581.5 300.5" fill-rule="nonzero"/><path stroke="#cccccc" stroke-width="1.0" stroke-linecap="butt" d="M80.5 246.5L581.5 246.5" fill-rule="nonzero"/><path stroke="#cccccc" stroke-width="1.0" stroke-linecap="butt" d="M80.5 192.5L581.5 192.5" fill-rule="nonzero"/><path stroke="#cccccc" stroke-width="1.0" stroke-linecap="butt" d="M80.5 139.5L581.5 139.5" fill-rule="nonzero"/><path stroke="#cccccc" stroke-width="1.0" stroke-linecap="butt" d="M80.5 85.5L581.5 85.5" fill-rule="nonzero"/><clipPath id="id_0"><path d="M80.55 85.416664L581.45 85.416664L581.45 300.45L80.55 300.45L80.55 85.416664Z" clip-rule="nonzero"/></clipPath><path stroke="#4285f4" stroke-width="2.0" stroke-linecap="butt" clip-path="url(#id_0)" d="M102.576546 131.49524L102.576546 213.60962" fill-rule="nonzero"/><path stroke="#4285f4" stroke-width="2.0" stroke-linecap="butt" clip-path="url(#id_0)" d="M102.576546 250.27556L102.576546 187.1533" fill-rule="nonzero"/><path fill="#4285f4" clip-path="url(#id_0)" d="M90.971176 186.1533L114.18192 186.1533L114.18192 214.60962L90.971176 214.60962L90.971176 186.1533Z" fill-rule="nonzero"/><path stroke="#4285f4" stroke-width="2.0" stroke-linecap="butt" clip-path="url(#id_0)" d="M135.20847 146.18695L135.20847 206.90813" fill-rule="nonzero"/><path stroke="#4285f4" stroke-width="2.0" stroke-linecap="butt" clip-path="url(#id_0)" d="M135.20847 236.52116L135.20847 189.63478" fill-rule="nonzero"/><path fill="#4285f4" clip-path="url(#id_0)" d="M123.603096 188.63478L146.81384 188.63478L146.81384 207.90814L123.603096 207.90814L123.603096 188.63478Z" fill-rule="nonzero"/><path stroke="#4285f4" stroke-width="2.0" stroke-linecap="butt" clip-path="url(#id_0)" d="M167.8404 147.44551L167.8404 207.31342" fill-rule="nonzero"/><path stroke="#4285f4" stroke-width="2.0" stroke-linecap="butt" clip-path="url(#id_0)" d="M167.8404 230.23503L167.8404 187.24696" fill-rule="nonzero"/><path fill="#4285f4" clip-path="url(#id_0)" d="M156.23502 186.24696L179.44577 186.24696L179.44577 208.31342L156.23502 208.31342L156.23502 186.24696Z" fill-rule="nonzero"/><path stroke="#4285f4" stroke-width="2.0" stroke-linecap="butt" clip-path="url(#id_0)" d="M200.4723 144.55083L200.4723 203.98645" fill-rule="nonzero"/><path stroke="#4285f4" stroke-width="2.0" stroke-linecap="butt" clip-path="url(#id_0)" d="M200.4723 228.77222L200.4723 187.46638" fill-rule="nonzero"/><path fill="#4285f4" clip-path="url(#id_0)" d="M188.86694 186.46638L212.0777 186.46638L212.0777 204.98645L188.86694 204.98645L188.86694 186.46638Z" fill-rule="nonzero"/><path stroke="#4285f4" stroke-width="2.0" stroke-linecap="butt" clip-path="url(#id_0)" d="M233.10423 162.21428L233.10423 201.87251" fill-rule="nonzero"/><path stroke="#4285f4" stroke-width="2.0" stroke-linecap="butt" clip-path="url(#id_0)" d="M233.10423 228.77222L233.10423 186.15721" fill-rule="nonzero"/><path fill="#4285f4" clip-path="url(#id_0)" d="M221.49886 185.15721L244.70961 185.15721L244.70961 202.8725L221.49886 202.8725L221.49886 185.15721Z" fill-rule="nonzero"/><path stroke="#4285f4" stroke-width="2.0" stroke-linecap="butt" clip-path="url(#id_0)" d="M265.73615 151.12129L265.73615 199.65312" fill-rule="nonzero"/><path stroke="#4285f4" stroke-width="2.0" stroke-linecap="butt" clip-path="url(#id_0)" d="M265.73615 221.73244L265.73615 184.15646" fill-rule="nonzero"/><path fill="#4285f4" clip-path="url(#id_0)" d="M254.13078 183.15646L277.34152 183.15646L277.34152 200.65312L254.13078 200.65312L254.13078 183.15646Z" fill-rule="nonzero"/><path stroke="#4285f4" stroke-width="2.0" stroke-linecap="butt" clip-path="url(#id_0)" d="M298.36807 153.51056L298.36807 195.23726" fill-rule="nonzero"/><path stroke="#4285f4" stroke-width="2.0" stroke-linecap="butt" clip-path="url(#id_0)" d="M298.36807 220.58047L298.36807 177.86693" fill-rule="nonzero"/><path fill="#4285f4" clip-path="url(#id_0)" d="M286.7627 176.86693L309.97345 176.86693L309.97345 196.23726L286.7627 196.23726L286.7627 176.86693Z" fill-rule="nonzero"/><path stroke="#4285f4" stroke-width="2.0" stroke-linecap="butt" clip-path="url(#id_0)" d="M331.0 154.98627L331.0 194.0085" fill-rule="nonzero"/><path stroke="#4285f4" stroke-width="2.0" stroke-linecap="butt" clip-path="url(#id_0)" d="M331.0 228.77222L331.0 178.27197" fill-rule="nonzero"/><path fill="#4285f4" clip-path="url(#id_0)" d="M319.39462 177.27197L342.60538 177.27197L342.60538 195.0085L319.39462 195.0085L319.39462 177.27197Z" fill-rule="nonzero"/><path stroke="#4285f4" stroke-width="2.0" stroke-linecap="butt" clip-path="url(#id_0)" d="M363.63193 145.25203L363.63193 181.81398" fill-rule="nonzero"/><path stroke="#4285f4" stroke-width="2.0" stroke-linecap="butt" clip-path="url(#id_0)" d="M363.63193 203.28679L363.63193 173.31601" fill-rule="nonzero"/><path fill="#4285f4" clip-path="url(#id_0)" d="M352.02655 172.31601L375.2373 172.31601L375.2373 182.81398L352.02655 182.81398L352.02655 172.31601Z" fill-rule="nonzero"/><path stroke="#4285f4" stroke-width="2.0" stroke-linecap="butt" clip-path="url(#id_0)" d="M396.26385 144.93481L396.26385 170.22406" fill-rule="nonzero"/><path stroke="#4285f4" stroke-width="2.0" stroke-linecap="butt" clip-path="url(#id_0)" d="M396.26385 180.2567L396.26385 157.45673" fill-rule="nonzero"/><path fill="#4285f4" clip-path="url(#id_0)" d="M384.65848 156.45673L407.86923 156.45673L407.86923 171.22406L384.65848 171.22406L384.65848 156.45673Z" fill-rule="nonzero"/><path stroke="#4285f4" stroke-width="2.0" stroke-linecap="butt" clip-path="url(#id_0)" d="M428.89575 85.416664L428.89575 145.82759" fill-rule="nonzero"/><path stroke="#4285f4" stroke-width="2.0" stroke-linecap="butt" clip-path="url(#id_0)" d="M428.89575 202.70758L428.89575 116.36159" fill-rule="nonzero"/><path fill="#4285f4" clip-path="url(#id_0)" d="M417.2904 115.36159L440.50116 115.36159L440.50116 146.82759L417.2904 146.82759L417.2904 115.36159Z" fill-rule="nonzero"/><path stroke="#4285f4" stroke-width="2.0" stroke-linecap="butt" clip-path="url(#id_0)" d="M461.52768 85.416664L461.52768 123.00328" fill-rule="nonzero"/><path stroke="#4285f4" stroke-width="2.0" stroke-linecap="butt" clip-path="url(#id_0)" d="M461.52768 151.58076L461.52768 99.4011" fill-rule="nonzero"/><path fill="#4285f4" clip-path="url(#id_0)" d="M449.9223 98.4011L473.13306 98.4011L473.13306 124.00328L449.9223 124.00328L449.9223 98.4011Z" fill-rule="nonzero"/><path stroke="#4285f4" stroke-width="2.0" stroke-linecap="butt" clip-path="url(#id_0)" d="M494.1596 85.416664L494.1596 115.87972" fill-rule="nonzero"/><path stroke="#4285f4" stroke-width="2.0" stroke-linecap="butt" clip-path="url(#id_0)" d="M494.1596 125.237656L494.1596 92.72249" fill-rule="nonzero"/><path fill="#4285f4" clip-path="url(#id_0)" d="M482.55423 91.72249L505.76498 91.72249L505.76498 116.87972L482.55423 116.87972L482.55423 91.72249Z" fill-rule="nonzero"/><path stroke="#4285f4" stroke-width="2.0" stroke-linecap="butt" clip-path="url(#id_0)" d="M526.7915 93.09643L526.7915 102.02231" fill-rule="nonzero"/><path stroke="#4285f4" stroke-width="2.0" stroke-linecap="butt" clip-path="url(#id_0)" d="M526.7915 102.21615L526.7915 95.82477" fill-rule="nonzero"/><path fill="#4285f4" clip-path="url(#id_0)" d="M515.18616 94.82477L538.3969 94.82477L538.3969 103.02231L515.18616 103.02231L515.18616 94.82477Z" fill-rule="nonzero"/><path fill="#4285f4" clip-path="url(#id_0)" d="M547.81805 90.07544L571.0288 90.07544L571.0288 92.07544L547.81805 92.07544L547.81805 90.07544Z" fill-rule="nonzero"/><path fill="#000000" d="M317.4375 349.45L317.4375 340.85626L321.25 340.85626Q322.40625 340.85626 323.0 341.09064Q323.59375 341.325 323.95312 341.91876Q324.3125 342.4969 324.3125 343.2Q324.3125 344.1219 323.71875 344.7469Q323.125 345.3719 321.89062 345.54376Q322.34375 345.7625 322.57812 345.96564Q323.07812 346.41876 323.51562 347.10626L325.01562 349.45L323.57812 349.45L322.45312 347.66876Q321.95312 346.8875 321.625 346.48126Q321.3125 346.075 321.04688 345.91876Q320.79688 345.7469 320.53125 345.66876Q320.34375 345.6375 319.90625 345.6375L318.57812 345.6375L318.57812 349.45L317.4375 349.45ZM318.57812 344.65314L321.03125 344.65314Q321.79688 344.65314 322.23438 344.4969Q322.6875 344.325 322.90625 343.98126Q323.14062 343.6219 323.14062 343.2Q323.14062 342.59064 322.6875 342.2Q322.25 341.8094 321.29688 341.8094L318.57812 341.8094L318.57812 344.65314ZM330.35938 348.6844Q329.76562 349.1844 329.21875 349.3875Q328.6875 349.59064 328.0625 349.59064Q327.03125 349.59064 326.48438 349.09064Q325.9375 348.59064 325.9375 347.8094Q325.9375 347.35626 326.14062 346.98126Q326.34375 346.59064 326.6875 346.3719Q327.03125 346.1375 327.45312 346.02814Q327.75 345.9344 328.39062 345.85626Q329.65625 345.71564 330.26562 345.4969Q330.26562 345.27814 330.26562 345.23126Q330.26562 344.575 329.96875 344.3094Q329.5625 343.96564 328.76562 343.96564Q328.03125 343.96564 327.67188 344.23126Q327.3125 344.48126 327.14062 345.1375L326.10938 344.9969Q326.25 344.34064 326.57812 343.9344Q326.90625 343.52814 327.51562 343.3094Q328.125 343.09064 328.92188 343.09064Q329.71875 343.09064 330.21875 343.27814Q330.71875 343.46564 330.95312 343.7469Q331.1875 344.02814 331.28125 344.46564Q331.32812 344.73126 331.32812 345.4344L331.32812 346.84064Q331.32812 348.3094 331.39062 348.7Q331.46875 349.09064 331.67188 349.45L330.5625 349.45Q330.40625 349.1219 330.35938 348.6844ZM330.26562 346.325Q329.6875 346.5594 328.54688 346.73126Q327.89062 346.825 327.625 346.95Q327.35938 347.0594 327.20312 347.27814Q327.0625 347.4969 327.0625 347.77814Q327.0625 348.2 327.375 348.48126Q327.70312 348.7625 328.3125 348.7625Q328.92188 348.7625 329.39062 348.4969Q329.875 348.23126 330.09375 347.7625Q330.26562 347.40314 330.26562 346.71564L330.26562 346.325ZM333.29688 349.45L333.29688 343.23126L334.23438 343.23126L334.23438 344.10626Q334.92188 343.09064 336.21875 343.09064Q336.78125 343.09064 337.25 343.29376Q337.73438 343.4969 337.96875 343.825Q338.20312 344.15314 338.29688 344.59064Q338.34375 344.8875 338.34375 345.6219L338.34375 349.45L337.29688 349.45L337.29688 345.66876Q337.29688 345.0125 337.17188 344.7Q337.04688 344.3875 336.73438 344.2Q336.42188 343.9969 336.0 343.9969Q335.32812 343.9969 334.82812 344.4344Q334.34375 344.85626 334.34375 346.04376L334.34375 349.45L333.29688 349.45ZM340.29688 349.45L340.29688 340.85626L341.35938 340.85626L341.35938 345.7625L343.84375 343.23126L345.21875 343.23126L342.82812 345.52814L345.45312 349.45L344.15625 349.45L342.09375 346.2625L341.35938 346.98126L341.35938 349.45L340.29688 349.45Z" fill-rule="nonzero"/><path fill="#000000" d="M29.550013 218.01146L20.956263 220.29271L20.956263 219.12083L26.596888 217.80833Q27.471888 217.60521 28.346888 217.44896Q26.971888 217.12083 26.753138 217.05833L20.956263 215.43333L20.956263 214.05833L25.300013 212.82396Q26.925013 212.37083 28.346888 212.15208Q27.534388 211.99583 26.471888 211.73021L20.956263 210.38646L20.956263 209.24583L29.550013 211.58958L29.550013 212.69896L23.003138 214.49583Q22.190638 214.73021 22.003138 214.77708Q22.581263 214.90208 23.003138 215.02708L29.550013 216.83958L29.550013 218.01146ZM22.175013 208.63646L20.956263 208.63646L20.956263 207.57396L22.175013 207.57396L22.175013 208.63646ZM29.550013 208.63646L23.331263 208.63646L23.331263 207.57396L29.550013 207.57396L29.550013 208.63646ZM29.550013 205.63646L23.331263 205.63646L23.331263 204.69896L24.206263 204.69896Q23.190638 204.01146 23.190638 202.71458Q23.190638 202.15208 23.393763 201.68333Q23.596888 201.19896 23.925013 200.96458Q24.253138 200.73021 24.690638 200.63646Q24.987513 200.58958 25.721888 200.58958L29.550013 200.58958L29.550013 201.63646L25.768763 201.63646Q25.112513 201.63646 24.800013 201.76146Q24.487513 201.88646 24.300013 202.19896Q24.096888 202.51146 24.096888 202.93333Q24.096888 203.60521 24.534388 204.10521Q24.956263 204.58958 26.143763 204.58958L29.550013 204.58958L29.550013 205.63646ZM29.550013 198.65208L23.331263 198.65208L23.331263 197.69896L24.268763 197.69896Q23.612513 197.33958 23.409388 197.04271Q23.190638 196.73021 23.190638 196.35521Q23.190638 195.82396 23.518763 195.27708L24.503138 195.63646Q24.268763 196.02708 24.268763 196.40208Q24.268763 196.76146 24.487513 197.04271Q24.690638 197.30833 25.065638 197.41771Q25.628138 197.60521 26.284388 197.60521L29.550013 197.60521L29.550013 198.65208ZM28.784388 190.57396Q29.284388 191.16771 29.487513 191.71458Q29.690638 192.24583 29.690638 192.87083Q29.690638 193.90208 29.190638 194.44896Q28.690638 194.99583 27.909388 194.99583Q27.456263 194.99583 27.081263 194.79271Q26.690638 194.58958 26.471888 194.24583Q26.237513 193.90208 26.128138 193.48021Q26.034388 193.18333 25.956263 192.54271Q25.815638 191.27708 25.596888 190.66771Q25.378138 190.66771 25.331263 190.66771Q24.675013 190.66771 24.409388 190.96458Q24.065638 191.37083 24.065638 192.16771Q24.065638 192.90208 24.331263 193.26146Q24.581263 193.62083 25.237513 193.79271L25.096888 194.82396Q24.440638 194.68333 24.034388 194.35521Q23.628138 194.02708 23.409388 193.41771Q23.190638 192.80833 23.190638 192.01146Q23.190638 191.21458 23.378138 190.71458Q23.565638 190.21458 23.846888 189.98021Q24.128138 189.74583 24.565638 189.65208Q24.831263 189.60521 25.534388 189.60521L26.940638 189.60521Q28.409388 189.60521 28.800013 189.54271Q29.190638 189.46458 29.550013 189.26146L29.550013 190.37083Q29.221888 190.52708 28.784388 190.57396ZM26.425013 190.66771Q26.659388 191.24583 26.831263 192.38646Q26.925013 193.04271 27.050013 193.30833Q27.159388 193.57396 27.378138 193.73021Q27.596888 193.87083 27.878138 193.87083Q28.300013 193.87083 28.581263 193.55833Q28.862513 193.23021 28.862513 192.62083Q28.862513 192.01146 28.596888 191.54271Q28.331263 191.05833 27.862513 190.83958Q27.503138 190.66771 26.815638 190.66771L26.425013 190.66771ZM28.612513 185.33958L29.534388 185.18333Q29.628138 185.63646 29.628138 185.98021Q29.628138 186.55833 29.456263 186.87083Q29.268763 187.18333 28.971888 187.32396Q28.675013 187.44896 27.721888 187.44896L24.143763 187.44896L24.143763 188.21458L23.331263 188.21458L23.331263 187.44896L21.784388 187.44896L21.159388 186.40208L23.331263 186.40208L23.331263 185.33958L24.143763 185.33958L24.143763 186.40208L27.784388 186.40208Q28.237513 186.40208 28.362513 186.35521Q28.487513 186.29271 28.565638 186.16771Q28.643763 186.04271 28.643763 185.80833Q28.643763 185.62083 28.612513 185.33958ZM27.550013 180.38646L27.675013 179.29271Q28.628138 179.54271 29.159388 180.24583Q29.690638 180.94896 29.690638 182.02708Q29.690638 183.38646 28.846888 184.19896Q28.003138 184.99583 26.487513 184.99583Q24.925013 184.99583 24.065638 184.18333Q23.190638 183.37083 23.190638 182.08958Q23.190638 180.83958 24.034388 180.05833Q24.878138 179.26146 26.425013 179.26146Q26.518763 179.26146 26.706263 179.26146L26.706263 183.90208Q27.737513 183.83958 28.284388 183.32396Q28.815638 182.80833 28.815638 182.02708Q28.815638 181.44896 28.518763 181.04271Q28.206263 180.62083 27.550013 180.38646ZM25.846888 183.83958L25.846888 180.37083Q25.050013 180.43333 24.659388 180.76146Q24.050013 181.27708 24.050013 182.07396Q24.050013 182.80833 24.534388 183.30833Q25.018763 183.79271 25.846888 183.83958Z" fill-rule="nonzero"/><path fill="#000000" d="M51.05 300.21564Q51.05 298.6844 51.3625 297.7625Q51.675 296.825 52.284374 296.325Q52.909374 295.825 53.846874 295.825Q54.534374 295.825 55.05 296.10626Q55.58125 296.3875 55.925 296.91876Q56.26875 297.4344 56.45625 298.1844Q56.64375 298.9344 56.64375 300.21564Q56.64375 301.73126 56.33125 302.65314Q56.034374 303.575 55.409374 304.09064Q54.8 304.59064 53.846874 304.59064Q52.6125 304.59064 51.89375 303.7Q51.05 302.6375 51.05 300.21564ZM52.128124 300.21564Q52.128124 302.325 52.628124 303.02814Q53.128124 303.73126 53.846874 303.73126Q54.58125 303.73126 55.065624 303.02814Q55.565624 302.325 55.565624 300.21564Q55.565624 298.09064 55.065624 297.40314Q54.58125 296.7 53.83125 296.7Q53.1125 296.7 52.675 297.3094Q52.128124 298.09064 52.128124 300.21564ZM58.64375 304.45L58.64375 303.2469L59.846874 303.2469L59.846874 304.45L58.64375 304.45ZM61.05 300.21564Q61.05 298.6844 61.3625 297.7625Q61.675 296.825 62.284374 296.325Q62.909374 295.825 63.846874 295.825Q64.53438 295.825 65.05 296.10626Q65.58125 296.3875 65.925 296.91876Q66.26875 297.4344 66.45625 298.1844Q66.64375 298.9344 66.64375 300.21564Q66.64375 301.73126 66.33125 302.65314Q66.03438 303.575 65.40938 304.09064Q64.8 304.59064 63.846874 304.59064Q62.6125 304.59064 61.89375 303.7Q61.05 302.6375 61.05 300.21564ZM62.128124 300.21564Q62.128124 302.325 62.628124 303.02814Q63.128124 303.73126 63.846874 303.73126Q64.58125 303.73126 65.06563 303.02814Q65.56563 302.325 65.56563 300.21564Q65.56563 298.09064 65.06563 297.40314Q64.58125 296.7 63.83125 296.7Q63.1125 296.7 62.675 297.3094Q62.128124 298.09064 62.128124 300.21564ZM68.05 300.21564Q68.05 298.6844 68.3625 297.7625Q68.675 296.825 69.28438 296.325Q69.90938 295.825 70.84688 295.825Q71.53438 295.825 72.05 296.10626Q72.58125 296.3875 72.925 296.91876Q73.26875 297.4344 73.45625 298.1844Q73.64375 298.9344 73.64375 300.21564Q73.64375 301.73126 73.33125 302.65314Q73.03438 303.575 72.40938 304.09064Q71.8 304.59064 70.84688 304.59064Q69.6125 304.59064 68.89375 303.7Q68.05 302.6375 68.05 300.21564ZM69.12813 300.21564Q69.12813 302.325 69.62813 303.02814Q70.12813 303.73126 70.84688 303.73126Q71.58125 303.73126 72.06563 303.02814Q72.56563 302.325 72.56563 300.21564Q72.56563 298.09064 72.06563 297.40314Q71.58125 296.7 70.83125 296.7Q70.1125 296.7 69.675 297.3094Q69.12813 298.09064 69.12813 300.21564Z" fill-rule="nonzero"/><path fill="#000000" d="M51.05 246.45729Q51.05 244.92604 51.3625 244.00417Q51.675 243.06667 52.284374 242.56667Q52.909374 242.06667 53.846874 242.06667Q54.534374 242.06667 55.05 242.34792Q55.58125 242.62917 55.925 243.16042Q56.26875 243.67604 56.45625 244.42604Q56.64375 245.17604 56.64375 246.45729Q56.64375 247.97292 56.33125 248.89479Q56.034374 249.81667 55.409374 250.33229Q54.8 250.83229 53.846874 250.83229Q52.6125 250.83229 51.89375 249.94167Q51.05 248.87917 51.05 246.45729ZM52.128124 246.45729Q52.128124 248.56667 52.628124 249.26979Q53.128124 249.97292 53.846874 249.97292Q54.58125 249.97292 55.065624 249.26979Q55.565624 248.56667 55.565624 246.45729Q55.565624 244.33229 55.065624 243.64479Q54.58125 242.94167 53.83125 242.94167Q53.1125 242.94167 52.675 243.55104Q52.128124 244.33229 52.128124 246.45729ZM58.64375 250.69167L58.64375 249.48854L59.846874 249.48854L59.846874 250.69167L58.64375 250.69167ZM66.59688 249.67604L66.59688 250.69167L60.909374 250.69167Q60.909374 250.31667 61.034374 249.95729Q61.253124 249.37917 61.721874 248.81667Q62.20625 248.25417 63.1125 247.51979Q64.51875 246.36354 65.00313 245.69167Q65.50313 245.01979 65.50313 244.42604Q65.50313 243.80104 65.05 243.37917Q64.59688 242.94167 63.878124 242.94167Q63.1125 242.94167 62.659374 243.39479Q62.20625 243.84792 62.190624 244.66042L61.1125 244.55104Q61.221874 243.33229 61.940624 242.70729Q62.675 242.06667 63.909374 242.06667Q65.14375 242.06667 65.8625 242.75417Q66.58125 243.44167 66.58125 244.45729Q66.58125 244.97292 66.3625 245.47292Q66.15938 245.95729 65.65938 246.51979Q65.175 247.06667 64.05 248.01979Q63.096874 248.81667 62.815624 249.11354Q62.55 249.39479 62.378124 249.67604L66.59688 249.67604ZM68.05 248.44167L69.15938 248.34792Q69.28438 249.16042 69.72188 249.56667Q70.175 249.97292 70.81563 249.97292Q71.56563 249.97292 72.09688 249.39479Q72.62813 248.81667 72.62813 247.87917Q72.62813 246.97292 72.1125 246.45729Q71.6125 245.92604 70.78438 245.92604Q70.28438 245.92604 69.8625 246.16042Q69.45625 246.39479 69.22188 246.75417L68.2375 246.62917L69.06563 242.22292L73.34688 242.22292L73.34688 243.22292L69.90938 243.22292L69.45625 245.53542Q70.22188 244.98854 71.06563 244.98854Q72.19063 244.98854 72.95625 245.76979Q73.7375 246.55104 73.7375 247.78542Q73.7375 248.94167 73.06563 249.80104Q72.2375 250.83229 70.81563 250.83229Q69.64375 250.83229 68.89375 250.17604Q68.15938 249.51979 68.05 248.44167Z" fill-rule="nonzero"/><path fill="#000000" d="M51.05 192.69896Q51.05 191.16771 51.3625 190.24583Q51.675 189.30833 52.284374 188.80833Q52.909374 188.30833 53.846874 188.30833Q54.534374 188.30833 55.05 188.58958Q55.58125 188.87083 55.925 189.40208Q56.26875 189.91771 56.45625 190.66771Q56.64375 191.41771 56.64375 192.69896Q56.64375 194.21458 56.33125 195.13646Q56.034374 196.05833 55.409374 196.57396Q54.8 197.07396 53.846874 197.07396Q52.6125 197.07396 51.89375 196.18333Q51.05 195.12083 51.05 192.69896ZM52.128124 192.69896Q52.128124 194.80833 52.628124 195.51146Q53.128124 196.21458 53.846874 196.21458Q54.58125 196.21458 55.065624 195.51146Q55.565624 194.80833 55.565624 192.69896Q55.565624 190.57396 55.065624 189.88646Q54.58125 189.18333 53.83125 189.18333Q53.1125 189.18333 52.675 189.79271Q52.128124 190.57396 52.128124 192.69896ZM58.64375 196.93333L58.64375 195.73021L59.846874 195.73021L59.846874 196.93333L58.64375 196.93333ZM61.05 194.68333L62.159374 194.58958Q62.284374 195.40208 62.721874 195.80833Q63.175 196.21458 63.815624 196.21458Q64.56563 196.21458 65.09688 195.63646Q65.62813 195.05833 65.62813 194.12083Q65.62813 193.21458 65.1125 192.69896Q64.6125 192.16771 63.784374 192.16771Q63.284374 192.16771 62.8625 192.40208Q62.45625 192.63646 62.221874 192.99583L61.2375 192.87083L62.065624 188.46458L66.34688 188.46458L66.34688 189.46458L62.909374 189.46458L62.45625 191.77708Q63.221874 191.23021 64.06563 191.23021Q65.19063 191.23021 65.95625 192.01146Q66.7375 192.79271 66.7375 194.02708Q66.7375 195.18333 66.06563 196.04271Q65.2375 197.07396 63.815624 197.07396Q62.64375 197.07396 61.89375 196.41771Q61.159374 195.76146 61.05 194.68333ZM68.05 192.69896Q68.05 191.16771 68.3625 190.24583Q68.675 189.30833 69.28438 188.80833Q69.90938 188.30833 70.84688 188.30833Q71.53438 188.30833 72.05 188.58958Q72.58125 188.87083 72.925 189.40208Q73.26875 189.91771 73.45625 190.66771Q73.64375 191.41771 73.64375 192.69896Q73.64375 194.21458 73.33125 195.13646Q73.03438 196.05833 72.40938 196.57396Q71.8 197.07396 70.84688 197.07396Q69.6125 197.07396 68.89375 196.18333Q68.05 195.12083 68.05 192.69896ZM69.12813 192.69896Q69.12813 194.80833 69.62813 195.51146Q70.12813 196.21458 70.84688 196.21458Q71.58125 196.21458 72.06563 195.51146Q72.56563 194.80833 72.56563 192.69896Q72.56563 190.57396 72.06563 189.88646Q71.58125 189.18333 70.83125 189.18333Q70.1125 189.18333 69.675 189.79271Q69.12813 190.57396 69.12813 192.69896Z" fill-rule="nonzero"/><path fill="#000000" d="M51.05 138.94063Q51.05 137.40938 51.3625 136.4875Q51.675 135.55 52.284374 135.05Q52.909374 134.55 53.846874 134.55Q54.534374 134.55 55.05 134.83125Q55.58125 135.1125 55.925 135.64375Q56.26875 136.15938 56.45625 136.90938Q56.64375 137.65938 56.64375 138.94063Q56.64375 140.45625 56.33125 141.37813Q56.034374 142.3 55.409374 142.81563Q54.8 143.31563 53.846874 143.31563Q52.6125 143.31563 51.89375 142.425Q51.05 141.3625 51.05 138.94063ZM52.128124 138.94063Q52.128124 141.05 52.628124 141.75313Q53.128124 142.45625 53.846874 142.45625Q54.58125 142.45625 55.065624 141.75313Q55.565624 141.05 55.565624 138.94063Q55.565624 136.81563 55.065624 136.12813Q54.58125 135.425 53.83125 135.425Q53.1125 135.425 52.675 136.03438Q52.128124 136.81563 52.128124 138.94063ZM58.64375 143.175L58.64375 141.97188L59.846874 141.97188L59.846874 143.175L58.64375 143.175ZM61.1125 135.70625L61.1125 134.69063L66.675 134.69063L66.675 135.51875Q65.8625 136.39375 65.05 137.84688Q64.25313 139.28438 63.815624 140.81563Q63.4875 141.89375 63.409374 143.175L62.315624 143.175Q62.33125 142.15938 62.70625 140.72188Q63.096874 139.28438 63.8 137.95625Q64.51875 136.62813 65.33125 135.70625L61.1125 135.70625ZM68.05 140.925L69.15938 140.83125Q69.28438 141.64375 69.72188 142.05Q70.175 142.45625 70.81563 142.45625Q71.56563 142.45625 72.09688 141.87813Q72.62813 141.3 72.62813 140.3625Q72.62813 139.45625 72.1125 138.94063Q71.6125 138.40938 70.78438 138.40938Q70.28438 138.40938 69.8625 138.64375Q69.45625 138.87813 69.22188 139.2375L68.2375 139.1125L69.06563 134.70625L73.34688 134.70625L73.34688 135.70625L69.90938 135.70625L69.45625 138.01875Q70.22188 137.47188 71.06563 137.47188Q72.19063 137.47188 72.95625 138.25313Q73.7375 139.03438 73.7375 140.26875Q73.7375 141.425 73.06563 142.28438Q72.2375 143.31563 70.81563 143.31563Q69.64375 143.31563 68.89375 142.65938Q68.15938 142.00313 68.05 140.925Z" fill-rule="nonzero"/><path fill="#000000" d="M55.01875 89.416664L53.971874 89.416664L53.971874 82.697914Q53.58125 83.05729 52.95625 83.43229Q52.346874 83.791664 51.8625 83.96354L51.8625 82.947914Q52.7375 82.52604 53.39375 81.947914Q54.065624 81.354164 54.346874 80.791664L55.01875 80.791664L55.01875 89.416664ZM58.64375 89.416664L58.64375 88.21354L59.846874 88.21354L59.846874 89.416664L58.64375 89.416664ZM61.05 85.18229Q61.05 83.65104 61.3625 82.729164Q61.675 81.791664 62.284374 81.291664Q62.909374 80.791664 63.846874 80.791664Q64.53438 80.791664 65.05 81.072914Q65.58125 81.354164 65.925 81.885414Q66.26875 82.40104 66.45625 83.15104Q66.64375 83.90104 66.64375 85.18229Q66.64375 86.697914 66.33125 87.61979Q66.03438 88.541664 65.40938 89.05729Q64.8 89.55729 63.846874 89.55729Q62.6125 89.55729 61.89375 88.666664Q61.05 87.604164 61.05 85.18229ZM62.128124 85.18229Q62.128124 87.291664 62.628124 87.99479Q63.128124 88.697914 63.846874 88.697914Q64.58125 88.697914 65.06563 87.99479Q65.56563 87.291664 65.56563 85.18229Q65.56563 83.05729 65.06563 82.36979Q64.58125 81.666664 63.83125 81.666664Q63.1125 81.666664 62.675 82.27604Q62.128124 83.05729 62.128124 85.18229ZM68.05 85.18229Q68.05 83.65104 68.3625 82.729164Q68.675 81.791664 69.28438 81.291664Q69.90938 80.791664 70.84688 80.791664Q71.53438 80.791664 72.05 81.072914Q72.58125 81.354164 72.925 81.885414Q73.26875 82.40104 73.45625 83.15104Q73.64375 83.90104 73.64375 85.18229Q73.64375 86.697914 73.33125 87.61979Q73.03438 88.541664 72.40938 89.05729Q71.8 89.55729 70.84688 89.55729Q69.6125 89.55729 68.89375 88.666664Q68.05 87.604164 68.05 85.18229ZM69.12813 85.18229Q69.12813 87.291664 69.62813 87.99479Q70.12813 88.697914 70.84688 88.697914Q71.58125 88.697914 72.06563 87.99479Q72.56563 87.291664 72.56563 85.18229Q72.56563 83.05729 72.06563 82.36979Q71.58125 81.666664 70.83125 81.666664Q70.1125 81.666664 69.675 82.27604Q69.12813 83.05729 69.12813 85.18229Z" fill-rule="nonzero"/><path fill="#000000" d="M95.62342 314.6844L96.68592 314.59064Q96.764046 315.2469 97.045296 315.65314Q97.326546 316.0594 97.90467 316.325Q98.49842 316.575 99.232796 316.575Q99.87342 316.575 100.37342 316.3875Q100.87342 316.1844 101.107796 315.85626Q101.357796 315.5125 101.357796 315.1219Q101.357796 314.71564 101.12342 314.41876Q100.889046 314.10626 100.357796 313.90314Q99.99842 313.7625 98.81092 313.48126Q97.639046 313.2 97.170296 312.95Q96.545296 312.6219 96.24842 312.15314Q95.951546 311.66876 95.951546 311.075Q95.951546 310.4344 96.31092 309.8719Q96.68592 309.29376 97.389046 309.0125Q98.107796 308.71564 98.96717 308.71564Q99.920296 308.71564 100.65467 309.02814Q101.389046 309.325 101.77967 309.9344Q102.170296 310.52814 102.201546 311.27814L101.107796 311.35626Q101.014046 310.54376 100.49842 310.1375Q99.99842 309.71564 99.014046 309.71564Q97.982796 309.71564 97.514046 310.09064Q97.045296 310.46564 97.045296 310.9969Q97.045296 311.46564 97.37342 311.7625Q97.701546 312.0594 99.076546 312.3719Q100.46717 312.6844 100.982796 312.91876Q101.732796 313.27814 102.09217 313.8094Q102.451546 314.325 102.451546 315.02814Q102.451546 315.71564 102.06092 316.325Q101.670296 316.91876 100.93592 317.2625Q100.201546 317.59064 99.27967 317.59064Q98.107796 317.59064 97.31092 317.2625Q96.52967 316.91876 96.076546 316.23126Q95.639046 315.54376 95.62342 314.6844ZM107.545296 317.45L106.49842 317.45L106.49842 310.73126Q106.107796 311.09064 105.482796 311.46564Q104.87342 311.825 104.389046 311.9969L104.389046 310.98126Q105.264046 310.5594 105.920296 309.98126Q106.59217 309.3875 106.87342 308.825L107.545296 308.825L107.545296 317.45Z" fill-rule="nonzero"/><path fill="#000000" d="M128.25534 314.6844L129.31784 314.59064Q129.39597 315.2469 129.67722 315.65314Q129.95847 316.0594 130.53659 316.325Q131.13034 316.575 131.86472 316.575Q132.50534 316.575 133.00534 316.3875Q133.50534 316.1844 133.73972 315.85626Q133.98972 315.5125 133.98972 315.1219Q133.98972 314.71564 133.75534 314.41876Q133.52097 314.10626 132.98972 313.90314Q132.63034 313.7625 131.44284 313.48126Q130.27097 313.2 129.80222 312.95Q129.17722 312.6219 128.88034 312.15314Q128.58347 311.66876 128.58347 311.075Q128.58347 310.4344 128.94284 309.8719Q129.31784 309.29376 130.02097 309.0125Q130.73972 308.71564 131.59909 308.71564Q132.55222 308.71564 133.28659 309.02814Q134.02097 309.325 134.41159 309.9344Q134.80222 310.52814 134.83347 311.27814L133.73972 311.35626Q133.64597 310.54376 133.13034 310.1375Q132.63034 309.71564 131.64597 309.71564Q130.61472 309.71564 130.14597 310.09064Q129.67722 310.46564 129.67722 310.9969Q129.67722 311.46564 130.00534 311.7625Q130.33347 312.0594 131.70847 312.3719Q133.09909 312.6844 133.61472 312.91876Q134.36472 313.27814 134.72409 313.8094Q135.08347 314.325 135.08347 315.02814Q135.08347 315.71564 134.69284 316.325Q134.30222 316.91876 133.56784 317.2625Q132.83347 317.59064 131.91159 317.59064Q130.73972 317.59064 129.94284 317.2625Q129.16159 316.91876 128.70847 316.23126Q128.27097 315.54376 128.25534 314.6844ZM141.75534 316.4344L141.75534 317.45L136.06784 317.45Q136.06784 317.075 136.19284 316.71564Q136.41159 316.1375 136.88034 315.575Q137.36472 315.0125 138.27097 314.27814Q139.67722 313.1219 140.16159 312.45Q140.66159 311.77814 140.66159 311.1844Q140.66159 310.5594 140.20847 310.1375Q139.75534 309.7 139.03659 309.7Q138.27097 309.7 137.81784 310.15314Q137.36472 310.60626 137.34909 311.41876L136.27097 311.3094Q136.38034 310.09064 137.09909 309.46564Q137.83347 308.825 139.06784 308.825Q140.30222 308.825 141.02097 309.5125Q141.73972 310.2 141.73972 311.21564Q141.73972 311.73126 141.52097 312.23126Q141.31784 312.71564 140.81784 313.27814Q140.33347 313.825 139.20847 314.77814Q138.25534 315.575 137.97409 315.8719Q137.70847 316.15314 137.53659 316.4344L141.75534 316.4344Z" fill-rule="nonzero"/><path fill="#000000" d="M160.88727 314.6844L161.94977 314.59064Q162.0279 315.2469 162.30914 315.65314Q162.5904 316.0594 163.16852 316.325Q163.76227 316.575 164.49664 316.575Q165.13727 316.575 165.63727 316.3875Q166.13727 316.1844 166.37164 315.85626Q166.62164 315.5125 166.62164 315.1219Q166.62164 314.71564 166.38727 314.41876Q166.1529 314.10626 165.62164 313.90314Q165.26227 313.7625 164.07477 313.48126Q162.9029 313.2 162.43414 312.95Q161.80914 312.6219 161.51227 312.15314Q161.2154 311.66876 161.2154 311.075Q161.2154 310.4344 161.57477 309.8719Q161.94977 309.29376 162.6529 309.0125Q163.37164 308.71564 164.23102 308.71564Q165.18414 308.71564 165.91852 309.02814Q166.6529 309.325 167.04352 309.9344Q167.43414 310.52814 167.4654 311.27814L166.37164 311.35626Q166.2779 310.54376 165.76227 310.1375Q165.26227 309.71564 164.2779 309.71564Q163.24664 309.71564 162.7779 310.09064Q162.30914 310.46564 162.30914 310.9969Q162.30914 311.46564 162.63727 311.7625Q162.9654 312.0594 164.3404 312.3719Q165.73102 312.6844 166.24664 312.91876Q166.99664 313.27814 167.35602 313.8094Q167.7154 314.325 167.7154 315.02814Q167.7154 315.71564 167.32477 316.325Q166.93414 316.91876 166.19977 317.2625Q165.4654 317.59064 164.54352 317.59064Q163.37164 317.59064 162.57477 317.2625Q161.79352 316.91876 161.3404 316.23126Q160.9029 315.54376 160.88727 314.6844ZM168.8404 315.1844L169.9029 315.04376Q170.07477 315.9344 170.51227 316.34064Q170.94977 316.73126 171.57477 316.73126Q172.32477 316.73126 172.8404 316.21564Q173.35602 315.7 173.35602 314.9344Q173.35602 314.21564 172.87164 313.7469Q172.4029 313.2625 171.66852 313.2625Q171.37164 313.2625 170.91852 313.3875L171.04352 312.45Q171.1529 312.46564 171.2154 312.46564Q171.88727 312.46564 172.41852 312.1219Q172.9654 311.7625 172.9654 311.02814Q172.9654 310.45 172.57477 310.075Q172.18414 309.6844 171.55914 309.6844Q170.94977 309.6844 170.5279 310.075Q170.12164 310.46564 170.01227 311.23126L168.94977 311.04376Q169.13727 309.9969 169.82477 309.41876Q170.51227 308.825 171.5279 308.825Q172.23102 308.825 172.82477 309.1375Q173.41852 309.4344 173.73102 309.95Q174.04352 310.46564 174.04352 311.0594Q174.04352 311.60626 173.74664 312.075Q173.44977 312.52814 172.87164 312.79376Q173.62164 312.96564 174.04352 313.52814Q174.4654 314.075 174.4654 314.91876Q174.4654 316.04376 173.63727 316.825Q172.82477 317.60626 171.57477 317.60626Q170.44977 317.60626 169.69977 316.9344Q168.94977 316.2469 168.8404 315.1844Z" fill-rule="nonzero"/><path fill="#000000" d="M193.51918 314.6844L194.58168 314.59064Q194.6598 315.2469 194.94106 315.65314Q195.2223 316.0594 195.80043 316.325Q196.39418 316.575 197.12856 316.575Q197.76918 316.575 198.26918 316.3875Q198.76918 316.1844 199.00356 315.85626Q199.25356 315.5125 199.25356 315.1219Q199.25356 314.71564 199.01918 314.41876Q198.7848 314.10626 198.25356 313.90314Q197.89418 313.7625 196.70668 313.48126Q195.5348 313.2 195.06606 312.95Q194.44106 312.6219 194.14418 312.15314Q193.8473 311.66876 193.8473 311.075Q193.8473 310.4344 194.20668 309.8719Q194.58168 309.29376 195.2848 309.0125Q196.00356 308.71564 196.86293 308.71564Q197.81606 308.71564 198.55043 309.02814Q199.2848 309.325 199.67543 309.9344Q200.06606 310.52814 200.0973 311.27814L199.00356 311.35626Q198.9098 310.54376 198.39418 310.1375Q197.89418 309.71564 196.9098 309.71564Q195.87856 309.71564 195.4098 310.09064Q194.94106 310.46564 194.94106 310.9969Q194.94106 311.46564 195.26918 311.7625Q195.5973 312.0594 196.9723 312.3719Q198.36293 312.6844 198.87856 312.91876Q199.62856 313.27814 199.98793 313.8094Q200.3473 314.325 200.3473 315.02814Q200.3473 315.71564 199.95668 316.325Q199.56606 316.91876 198.83168 317.2625Q198.0973 317.59064 197.17543 317.59064Q196.00356 317.59064 195.20668 317.2625Q194.42543 316.91876 193.9723 316.23126Q193.5348 315.54376 193.51918 314.6844ZM204.8473 317.45L204.8473 315.3875L201.12856 315.3875L201.12856 314.41876L205.05043 308.85626L205.9098 308.85626L205.9098 314.41876L207.06606 314.41876L207.06606 315.3875L205.9098 315.3875L205.9098 317.45L204.8473 317.45ZM204.8473 314.41876L204.8473 310.5594L202.1598 314.41876L204.8473 314.41876Z" fill-rule="nonzero"/><path fill="#000000" d="M225.65111 314.6844L226.71361 314.59064Q226.79173 315.2469 227.07298 315.65314Q227.35423 316.0594 227.93236 316.325Q228.52611 316.575 229.26048 316.575Q229.90111 316.575 230.40111 316.3875Q230.90111 316.1844 231.13548 315.85626Q231.38548 315.5125 231.38548 315.1219Q231.38548 314.71564 231.15111 314.41876Q230.91673 314.10626 230.38548 313.90314Q230.02611 313.7625 228.83861 313.48126Q227.66673 313.2 227.19798 312.95Q226.57298 312.6219 226.27611 312.15314Q225.97923 311.66876 225.97923 311.075Q225.97923 310.4344 226.33861 309.8719Q226.71361 309.29376 227.41673 309.0125Q228.13548 308.71564 228.99486 308.71564Q229.94798 308.71564 230.68236 309.02814Q231.41673 309.325 231.80736 309.9344Q232.19798 310.52814 232.22923 311.27814L231.13548 311.35626Q231.04173 310.54376 230.52611 310.1375Q230.02611 309.71564 229.04173 309.71564Q228.01048 309.71564 227.54173 310.09064Q227.07298 310.46564 227.07298 310.9969Q227.07298 311.46564 227.40111 311.7625Q227.72923 312.0594 229.10423 312.3719Q230.49486 312.6844 231.01048 312.91876Q231.76048 313.27814 232.11986 313.8094Q232.47923 314.325 232.47923 315.02814Q232.47923 315.71564 232.08861 316.325Q231.69798 316.91876 230.96361 317.2625Q230.22923 317.59064 229.30736 317.59064Q228.13548 317.59064 227.33861 317.2625Q226.55736 316.91876 226.10423 316.23126Q225.66673 315.54376 225.65111 314.6844ZM234.05736 317.45L234.05736 308.85626L240.26048 308.85626L240.26048 309.8719L235.19798 309.8719L235.19798 312.4969L239.94798 312.4969L239.94798 313.5125L235.19798 313.5125L235.19798 316.4344L240.46361 316.4344L240.46361 317.45L234.05736 317.45Z" fill-rule="nonzero"/><path fill="#000000" d="M253.78304 314.6844L254.84554 314.59064Q254.92366 315.2469 255.20491 315.65314Q255.48616 316.0594 256.06427 316.325Q256.65802 316.575 257.3924 316.575Q258.03302 316.575 258.53302 316.3875Q259.03302 316.1844 259.2674 315.85626Q259.5174 315.5125 259.5174 315.1219Q259.5174 314.71564 259.28302 314.41876Q259.04865 314.10626 258.5174 313.90314Q258.15802 313.7625 256.97052 313.48126Q255.79866 313.2 255.32991 312.95Q254.70491 312.6219 254.40804 312.15314Q254.11116 311.66876 254.11116 311.075Q254.11116 310.4344 254.47054 309.8719Q254.84554 309.29376 255.54866 309.0125Q256.2674 308.71564 257.12677 308.71564Q258.0799 308.71564 258.81427 309.02814Q259.54865 309.325 259.93927 309.9344Q260.3299 310.52814 260.36115 311.27814L259.2674 311.35626Q259.17365 310.54376 258.65802 310.1375Q258.15802 309.71564 257.17365 309.71564Q256.1424 309.71564 255.67366 310.09064Q255.20491 310.46564 255.20491 310.9969Q255.20491 311.46564 255.53304 311.7625Q255.86116 312.0594 257.23615 312.3719Q258.62677 312.6844 259.1424 312.91876Q259.8924 313.27814 260.25177 313.8094Q260.61115 314.325 260.61115 315.02814Q260.61115 315.71564 260.22052 316.325Q259.8299 316.91876 259.09552 317.2625Q258.36115 317.59064 257.43927 317.59064Q256.2674 317.59064 255.47054 317.2625Q254.68929 316.91876 254.23616 316.23126Q253.79866 315.54376 253.78304 314.6844ZM262.18927 317.45L262.18927 308.85626L268.3924 308.85626L268.3924 309.8719L263.3299 309.8719L263.3299 312.4969L268.0799 312.4969L268.0799 313.5125L263.3299 313.5125L263.3299 316.4344L268.59552 316.4344L268.59552 317.45L262.18927 317.45ZM270.12677 317.45L270.12677 308.85626L271.84552 308.85626L273.87677 314.9344Q274.15802 315.79376 274.28302 316.21564Q274.42365 315.7469 274.73615 314.84064L276.79865 308.85626L278.3299 308.85626L278.3299 317.45L277.23615 317.45L277.23615 310.2625L274.73615 317.45L273.7049 317.45L271.22052 310.1375L271.22052 317.45L270.12677 317.45Z" fill-rule="nonzero"/><path fill="#000000" d="M290.8212 314.075L290.8212 313.075L294.4462 313.0594L294.4462 316.2469Q293.61807 316.91876 292.72745 317.2625Q291.83682 317.59064 290.89932 317.59064Q289.6337 317.59064 288.58682 317.0594Q287.55557 316.5125 287.02432 315.4969Q286.5087 314.46564 286.5087 313.2Q286.5087 311.9344 287.02432 310.85626Q287.55557 309.7625 288.53995 309.2469Q289.52432 308.71564 290.80557 308.71564Q291.74307 308.71564 292.49307 309.0125Q293.24307 309.3094 293.66495 309.85626Q294.10245 310.3875 294.3212 311.2625L293.30557 311.54376Q293.10245 310.8875 292.80557 310.5125Q292.52432 310.1375 291.99307 309.91876Q291.46182 309.6844 290.8212 309.6844Q290.03995 309.6844 289.46182 309.91876Q288.89932 310.15314 288.53995 310.54376Q288.1962 310.9344 288.0087 311.40314Q287.68057 312.2 287.68057 313.1219Q287.68057 314.27814 288.0712 315.0594Q288.47745 315.825 289.22745 316.2Q289.97745 316.575 290.83682 316.575Q291.5712 316.575 292.27432 316.29376Q292.97745 315.9969 293.33682 315.6844L293.33682 314.075L290.8212 314.075ZM295.78995 317.45L295.78995 308.85626L296.9462 308.85626L301.46182 315.60626L301.46182 308.85626L302.55557 308.85626L302.55557 317.45L301.3837 317.45L296.86807 310.7L296.86807 317.45L295.78995 317.45ZM308.33682 317.45L307.28995 317.45L307.28995 310.73126Q306.89932 311.09064 306.27432 311.46564Q305.66495 311.825 305.18057 311.9969L305.18057 310.98126Q306.05557 310.5594 306.71182 309.98126Q307.3837 309.3875 307.66495 308.825L308.33682 308.825L308.33682 317.45Z" fill-rule="nonzero"/><path fill="#000000" d="M323.45312 314.075L323.45312 313.075L327.07812 313.0594L327.07812 316.2469Q326.25 316.91876 325.35938 317.2625Q324.46875 317.59064 323.53125 317.59064Q322.26562 317.59064 321.21875 317.0594Q320.1875 316.5125 319.65625 315.4969Q319.14062 314.46564 319.14062 313.2Q319.14062 311.9344 319.65625 310.85626Q320.1875 309.7625 321.17188 309.2469Q322.15625 308.71564 323.4375 308.71564Q324.375 308.71564 325.125 309.0125Q325.875 309.3094 326.29688 309.85626Q326.73438 310.3875 326.95312 311.2625L325.9375 311.54376Q325.73438 310.8875 325.4375 310.5125Q325.15625 310.1375 324.625 309.91876Q324.09375 309.6844 323.45312 309.6844Q322.67188 309.6844 322.09375 309.91876Q321.53125 310.15314 321.17188 310.54376Q320.82812 310.9344 320.64062 311.40314Q320.3125 312.2 320.3125 313.1219Q320.3125 314.27814 320.70312 315.0594Q321.10938 315.825 321.85938 316.2Q322.60938 316.575 323.46875 316.575Q324.20312 316.575 324.90625 316.29376Q325.60938 315.9969 325.96875 315.6844L325.96875 314.075L323.45312 314.075ZM328.42188 317.45L328.42188 308.85626L329.57812 308.85626L334.09375 315.60626L334.09375 308.85626L335.1875 308.85626L335.1875 317.45L334.01562 317.45L329.5 310.7L329.5 317.45L328.42188 317.45ZM342.54688 316.4344L342.54688 317.45L336.85938 317.45Q336.85938 317.075 336.98438 316.71564Q337.20312 316.1375 337.67188 315.575Q338.15625 315.0125 339.0625 314.27814Q340.46875 313.1219 340.95312 312.45Q341.45312 311.77814 341.45312 311.1844Q341.45312 310.5594 341.0 310.1375Q340.54688 309.7 339.82812 309.7Q339.0625 309.7 338.60938 310.15314Q338.15625 310.60626 338.14062 311.41876L337.0625 311.3094Q337.17188 310.09064 337.89062 309.46564Q338.625 308.825 339.85938 308.825Q341.09375 308.825 341.8125 309.5125Q342.53125 310.2 342.53125 311.21564Q342.53125 311.73126 342.3125 312.23126Q342.10938 312.71564 341.60938 313.27814Q341.125 313.825 340.0 314.77814Q339.04688 315.575 338.76562 315.8719Q338.5 316.15314 338.32812 316.4344L342.54688 316.4344Z" fill-rule="nonzero"/><path fill="#000000" d="M356.08505 314.075L356.08505 313.075L359.71005 313.0594L359.71005 316.2469Q358.88193 316.91876 357.9913 317.2625Q357.10068 317.59064 356.16318 317.59064Q354.89755 317.59064 353.85068 317.0594Q352.81943 316.5125 352.28818 315.4969Q351.77255 314.46564 351.77255 313.2Q351.77255 311.9344 352.28818 310.85626Q352.81943 309.7625 353.8038 309.2469Q354.78818 308.71564 356.06943 308.71564Q357.00693 308.71564 357.75693 309.0125Q358.50693 309.3094 358.9288 309.85626Q359.3663 310.3875 359.58505 311.2625L358.56943 311.54376Q358.3663 310.8875 358.06943 310.5125Q357.78818 310.1375 357.25693 309.91876Q356.72568 309.6844 356.08505 309.6844Q355.3038 309.6844 354.72568 309.91876Q354.16318 310.15314 353.8038 310.54376Q353.46005 310.9344 353.27255 311.40314Q352.94443 312.2 352.94443 313.1219Q352.94443 314.27814 353.33505 315.0594Q353.7413 315.825 354.4913 316.2Q355.2413 316.575 356.10068 316.575Q356.83505 316.575 357.53818 316.29376Q358.2413 315.9969 358.60068 315.6844L358.60068 314.075L356.08505 314.075ZM361.0538 317.45L361.0538 308.85626L362.21005 308.85626L366.72568 315.60626L366.72568 308.85626L367.81943 308.85626L367.81943 317.45L366.64755 317.45L362.13193 310.7L362.13193 317.45L361.0538 317.45ZM369.63193 315.1844L370.69443 315.04376Q370.8663 315.9344 371.3038 316.34064Q371.7413 316.73126 372.3663 316.73126Q373.1163 316.73126 373.63193 316.21564Q374.14755 315.7 374.14755 314.9344Q374.14755 314.21564 373.66318 313.7469Q373.19443 313.2625 372.46005 313.2625Q372.16318 313.2625 371.71005 313.3875L371.83505 312.45Q371.94443 312.46564 372.00693 312.46564Q372.6788 312.46564 373.21005 312.1219Q373.75693 311.7625 373.75693 311.02814Q373.75693 310.45 373.3663 310.075Q372.97568 309.6844 372.35068 309.6844Q371.7413 309.6844 371.31943 310.075Q370.91318 310.46564 370.8038 311.23126L369.7413 311.04376Q369.9288 309.9969 370.6163 309.41876Q371.3038 308.825 372.31943 308.825Q373.02255 308.825 373.6163 309.1375Q374.21005 309.4344 374.52255 309.95Q374.83505 310.46564 374.83505 311.0594Q374.83505 311.60626 374.53818 312.075Q374.2413 312.52814 373.66318 312.79376Q374.41318 312.96564 374.83505 313.52814Q375.25693 314.075 375.25693 314.91876Q375.25693 316.04376 374.4288 316.825Q373.6163 317.60626 372.3663 317.60626Q371.2413 317.60626 370.4913 316.9344Q369.7413 316.2469 369.63193 315.1844Z" fill-rule="nonzero"/><path fill="#000000" d="M387.71698 314.075L387.71698 313.075L391.34198 313.0594L391.34198 316.2469Q390.51385 316.91876 389.62323 317.2625Q388.7326 317.59064 387.7951 317.59064Q386.52948 317.59064 385.4826 317.0594Q384.45135 316.5125 383.9201 315.4969Q383.40448 314.46564 383.40448 313.2Q383.40448 311.9344 383.9201 310.85626Q384.45135 309.7625 385.43573 309.2469Q386.4201 308.71564 387.70135 308.71564Q388.63885 308.71564 389.38885 309.0125Q390.13885 309.3094 390.56073 309.85626Q390.99823 310.3875 391.21698 311.2625L390.20135 311.54376Q389.99823 310.8875 389.70135 310.5125Q389.4201 310.1375 388.88885 309.91876Q388.3576 309.6844 387.71698 309.6844Q386.93573 309.6844 386.3576 309.91876Q385.7951 310.15314 385.43573 310.54376Q385.09198 310.9344 384.90448 311.40314Q384.57635 312.2 384.57635 313.1219Q384.57635 314.27814 384.96698 315.0594Q385.37323 315.825 386.12323 316.2Q386.87323 316.575 387.7326 316.575Q388.46698 316.575 389.1701 316.29376Q389.87323 315.9969 390.2326 315.6844L390.2326 314.075L387.71698 314.075ZM392.68573 317.45L392.68573 308.85626L393.84198 308.85626L398.3576 315.60626L398.3576 308.85626L399.45135 308.85626L399.45135 317.45L398.27948 317.45L393.76385 310.7L393.76385 317.45L392.68573 317.45ZM401.65448 317.45L401.65448 308.85626L403.37323 308.85626L405.40448 314.9344Q405.68573 315.79376 405.81073 316.21564Q405.95135 315.7469 406.26385 314.84064L408.32635 308.85626L409.8576 308.85626L409.8576 317.45L408.76385 317.45L408.76385 310.2625L406.26385 317.45L405.2326 317.45L402.74823 310.1375L402.74823 317.45L401.65448 317.45Z" fill-rule="nonzero"/><path fill="#000000" d="M417.28638 317.45L417.28638 308.85626L419.00513 308.85626L421.03638 314.9344Q421.31763 315.79376 421.44263 316.21564Q421.58325 315.7469 421.89575 314.84064L423.95825 308.85626L425.4895 308.85626L425.4895 317.45L424.39575 317.45L424.39575 310.2625L421.89575 317.45L420.8645 317.45L418.38013 310.1375L418.38013 317.45L417.28638 317.45ZM430.34888 314.075L430.34888 313.075L433.97388 313.0594L433.97388 316.2469Q433.14575 316.91876 432.25513 317.2625Q431.3645 317.59064 430.427 317.59064Q429.16138 317.59064 428.1145 317.0594Q427.08325 316.5125 426.552 315.4969Q426.03638 314.46564 426.03638 313.2Q426.03638 311.9344 426.552 310.85626Q427.08325 309.7625 428.06763 309.2469Q429.052 308.71564 430.33325 308.71564Q431.27075 308.71564 432.02075 309.0125Q432.77075 309.3094 433.19263 309.85626Q433.63013 310.3875 433.84888 311.2625L432.83325 311.54376Q432.63013 310.8875 432.33325 310.5125Q432.052 310.1375 431.52075 309.91876Q430.9895 309.6844 430.34888 309.6844Q429.56763 309.6844 428.9895 309.91876Q428.427 310.15314 428.06763 310.54376Q427.72388 310.9344 427.53638 311.40314Q427.20825 312.2 427.20825 313.1219Q427.20825 314.27814 427.59888 315.0594Q428.00513 315.825 428.75513 316.2Q429.50513 316.575 430.3645 316.575Q431.09888 316.575 431.802 316.29376Q432.50513 315.9969 432.8645 315.6844L432.8645 314.075L430.34888 314.075ZM438.8645 317.45L437.81763 317.45L437.81763 310.73126Q437.427 311.09064 436.802 311.46564Q436.19263 311.825 435.70825 311.9969L435.70825 310.98126Q436.58325 310.5594 437.2395 309.98126Q437.91138 309.3875 438.19263 308.825L438.8645 308.825L438.8645 317.45Z" fill-rule="nonzero"/><path fill="#000000" d="M449.9183 317.45L449.9183 308.85626L451.63705 308.85626L453.6683 314.9344Q453.94955 315.79376 454.07455 316.21564Q454.21518 315.7469 454.52768 314.84064L456.59018 308.85626L458.12143 308.85626L458.12143 317.45L457.02768 317.45L457.02768 310.2625L454.52768 317.45L453.49643 317.45L451.01205 310.1375L451.01205 317.45L449.9183 317.45ZM462.9808 314.075L462.9808 313.075L466.6058 313.0594L466.6058 316.2469Q465.77768 316.91876 464.88705 317.2625Q463.99643 317.59064 463.05893 317.59064Q461.7933 317.59064 460.74643 317.0594Q459.71518 316.5125 459.18393 315.4969Q458.6683 314.46564 458.6683 313.2Q458.6683 311.9344 459.18393 310.85626Q459.71518 309.7625 460.69955 309.2469Q461.68393 308.71564 462.96518 308.71564Q463.90268 308.71564 464.65268 309.0125Q465.40268 309.3094 465.82455 309.85626Q466.26205 310.3875 466.4808 311.2625L465.46518 311.54376Q465.26205 310.8875 464.96518 310.5125Q464.68393 310.1375 464.15268 309.91876Q463.62143 309.6844 462.9808 309.6844Q462.19955 309.6844 461.62143 309.91876Q461.05893 310.15314 460.69955 310.54376Q460.3558 310.9344 460.1683 311.40314Q459.84018 312.2 459.84018 313.1219Q459.84018 314.27814 460.2308 315.0594Q460.63705 315.825 461.38705 316.2Q462.13705 316.575 462.99643 316.575Q463.7308 316.575 464.43393 316.29376Q465.13705 315.9969 465.49643 315.6844L465.49643 314.075L462.9808 314.075ZM473.07455 316.4344L473.07455 317.45L467.38705 317.45Q467.38705 317.075 467.51205 316.71564Q467.7308 316.1375 468.19955 315.575Q468.68393 315.0125 469.59018 314.27814Q470.99643 313.1219 471.4808 312.45Q471.9808 311.77814 471.9808 311.1844Q471.9808 310.5594 471.52768 310.1375Q471.07455 309.7 470.3558 309.7Q469.59018 309.7 469.13705 310.15314Q468.68393 310.60626 468.6683 311.41876L467.59018 311.3094Q467.69955 310.09064 468.4183 309.46564Q469.15268 308.825 470.38705 308.825Q471.62143 308.825 472.34018 309.5125Q473.05893 310.2 473.05893 311.21564Q473.05893 311.73126 472.84018 312.23126Q472.63705 312.71564 472.13705 313.27814Q471.65268 313.825 470.52768 314.77814Q469.57455 315.575 469.2933 315.8719Q469.02768 316.15314 468.8558 316.4344L473.07455 316.4344Z" fill-rule="nonzero"/><path fill="#000000" d="M482.05023 317.45L482.05023 308.85626L483.76898 308.85626L485.80023 314.9344Q486.08148 315.79376 486.20648 316.21564Q486.3471 315.7469 486.6596 314.84064L488.7221 308.85626L490.25336 308.85626L490.25336 317.45L489.1596 317.45L489.1596 310.2625L486.6596 317.45L485.62836 317.45L483.14398 310.1375L483.14398 317.45L482.05023 317.45ZM495.11273 314.075L495.11273 313.075L498.73773 313.0594L498.73773 316.2469Q497.9096 316.91876 497.01898 317.2625Q496.12836 317.59064 495.19086 317.59064Q493.92523 317.59064 492.87836 317.0594Q491.8471 316.5125 491.31586 315.4969Q490.80023 314.46564 490.80023 313.2Q490.80023 311.9344 491.31586 310.85626Q491.8471 309.7625 492.83148 309.2469Q493.81586 308.71564 495.0971 308.71564Q496.0346 308.71564 496.7846 309.0125Q497.5346 309.3094 497.95648 309.85626Q498.39398 310.3875 498.61273 311.2625L497.5971 311.54376Q497.39398 310.8875 497.0971 310.5125Q496.81586 310.1375 496.2846 309.91876Q495.75336 309.6844 495.11273 309.6844Q494.33148 309.6844 493.75336 309.91876Q493.19086 310.15314 492.83148 310.54376Q492.48773 310.9344 492.30023 311.40314Q491.9721 312.2 491.9721 313.1219Q491.9721 314.27814 492.36273 315.0594Q492.76898 315.825 493.51898 316.2Q494.26898 316.575 495.12836 316.575Q495.86273 316.575 496.56586 316.29376Q497.26898 315.9969 497.62836 315.6844L497.62836 314.075L495.11273 314.075ZM500.11273 317.45L500.11273 308.85626L506.31586 308.85626L506.31586 309.8719L501.25336 309.8719L501.25336 312.4969L506.00336 312.4969L506.00336 313.5125L501.25336 313.5125L501.25336 316.4344L506.51898 316.4344L506.51898 317.45L500.11273 317.45Z" fill-rule="nonzero"/><path fill="#000000" d="M514.2134 317.45L514.2134 308.85626L517.1821 308.85626Q518.1821 308.85626 518.7134 308.98126Q519.44775 309.15314 519.9634 309.59064Q520.6509 310.16876 520.979 311.075Q521.32275 311.96564 521.32275 313.10626Q521.32275 314.09064 521.0884 314.84064Q520.8696 315.59064 520.51025 316.09064Q520.1509 316.59064 519.7134 316.8719Q519.2915 317.15314 518.69775 317.3094Q518.104 317.45 517.32275 317.45L514.2134 317.45ZM515.354 316.4344L517.1821 316.4344Q518.0415 316.4344 518.5259 316.27814Q519.01025 316.1219 519.2915 315.825Q519.69775 315.4344 519.9165 314.7469Q520.1509 314.0594 520.1509 313.09064Q520.1509 311.7469 519.69775 311.02814Q519.26025 310.29376 518.63525 310.04376Q518.1665 309.8719 517.1665 309.8719L515.354 309.8719L515.354 316.4344ZM523.1821 317.45L523.1821 308.85626L524.9009 308.85626L526.9321 314.9344Q527.2134 315.79376 527.3384 316.21564Q527.479 315.7469 527.7915 314.84064L529.854 308.85626L531.38525 308.85626L531.38525 317.45L530.2915 317.45L530.2915 310.2625L527.7915 317.45L526.76025 317.45L524.2759 310.1375L524.2759 317.45L523.1821 317.45ZM536.2446 314.075L536.2446 313.075L539.8696 313.0594L539.8696 316.2469Q539.0415 316.91876 538.1509 317.2625Q537.26025 317.59064 536.32275 317.59064Q535.0571 317.59064 534.01025 317.0594Q532.979 316.5125 532.44775 315.4969Q531.9321 314.46564 531.9321 313.2Q531.9321 311.9344 532.44775 310.85626Q532.979 309.7625 533.9634 309.2469Q534.94775 308.71564 536.229 308.71564Q537.1665 308.71564 537.9165 309.0125Q538.6665 309.3094 539.0884 309.85626Q539.5259 310.3875 539.7446 311.2625L538.729 311.54376Q538.5259 310.8875 538.229 310.5125Q537.94775 310.1375 537.4165 309.91876Q536.88525 309.6844 536.2446 309.6844Q535.4634 309.6844 534.88525 309.91876Q534.32275 310.15314 533.9634 310.54376Q533.6196 310.9344 533.4321 311.40314Q533.104 312.2 533.104 313.1219Q533.104 314.27814 533.4946 315.0594Q533.9009 315.825 534.6509 316.2Q535.4009 316.575 536.26025 316.575Q536.9946 316.575 537.69775 316.29376Q538.4009 315.9969 538.76025 315.6844L538.76025 314.075L536.2446 314.075Z" fill-rule="nonzero"/><path fill="#000000" d="M552.79846 317.45L552.79846 308.85626L553.9391 308.85626L553.9391 316.4344L558.17346 316.4344L558.17346 317.45L552.79846 317.45ZM559.8766 317.45L559.8766 308.85626L566.0797 308.85626L566.0797 309.8719L561.0172 309.8719L561.0172 312.4969L565.7672 312.4969L565.7672 313.5125L561.0172 313.5125L561.0172 316.4344L566.28284 316.4344L566.28284 317.45L559.8766 317.45Z" fill-rule="nonzero"/><path fill="#999999" d="M19.628124 63.05L19.628124 53.034374L23.409374 53.034374Q24.409374 53.034374 24.940624 53.128124Q25.675 53.253124 26.175 53.596874Q26.675 53.940624 26.971874 54.565624Q27.284374 55.175 27.284374 55.925Q27.284374 57.20625 26.471874 58.096874Q25.659374 58.971874 23.534374 58.971874L20.95625 58.971874L20.95625 63.05L19.628124 63.05ZM20.95625 57.8L23.55 57.8Q24.83125 57.8 25.3625 57.315624Q25.909374 56.83125 25.909374 55.971874Q25.909374 55.33125 25.596874 54.89375Q25.284374 54.440624 24.753124 54.3Q24.425 54.20625 23.51875 54.20625L20.95625 54.20625L20.95625 57.8ZM28.440624 63.05L28.440624 53.034374L29.675 53.034374L29.675 63.05L28.440624 63.05ZM36.20625 62.159374Q35.534374 62.7375 34.89375 62.9875Q34.26875 63.221874 33.534374 63.221874Q32.346874 63.221874 31.690624 62.64375Q31.05 62.05 31.05 61.128124Q31.05 60.596874 31.284374 60.159374Q31.534374 59.721874 31.925 59.45625Q32.33125 59.190624 32.815624 59.05Q33.175 58.95625 33.909374 58.8625Q35.409374 58.690624 36.1125 58.440624Q36.1125 58.190624 36.1125 58.128124Q36.1125 57.3625 35.76875 57.065624Q35.3 56.64375 34.3625 56.64375Q33.503124 56.64375 33.08125 56.95625Q32.675 57.253124 32.471874 58.01875L31.26875 57.8625Q31.425 57.08125 31.8 56.6125Q32.190624 56.14375 32.89375 55.89375Q33.6125 55.628124 34.55 55.628124Q35.471874 55.628124 36.05 55.846874Q36.628124 56.065624 36.89375 56.39375Q37.175 56.721874 37.284374 57.2375Q37.346874 57.55 37.346874 58.3625L37.346874 60.003124Q37.346874 61.721874 37.425 62.175Q37.503124 62.628124 37.7375 63.05L36.45625 63.05Q36.26875 62.659374 36.20625 62.159374ZM36.1125 59.409374Q35.440624 59.675 34.096874 59.878124Q33.346874 59.9875 33.01875 60.128124Q32.70625 60.253124 32.534374 60.51875Q32.3625 60.784374 32.3625 61.096874Q32.3625 61.596874 32.7375 61.925Q33.1125 62.253124 33.83125 62.253124Q34.55 62.253124 35.096874 61.940624Q35.64375 61.628124 35.909374 61.08125Q36.1125 60.675 36.1125 59.8625L36.1125 59.409374ZM39.425 65.84688L39.284374 64.69063Q39.690624 64.8 39.9875 64.8Q40.39375 64.8 40.64375 64.65938Q40.89375 64.53438 41.05 64.28438Q41.159374 64.09688 41.425 63.3625Q41.45625 63.26875 41.534374 63.065624L38.76875 55.784374L40.096874 55.784374L41.6125 59.9875Q41.909374 60.8 42.14375 61.675Q42.346874 60.83125 42.64375 60.01875L44.190624 55.784374L45.425 55.784374L42.659374 63.175Q42.221874 64.3625 41.971874 64.81563Q41.64375 65.425 41.221874 65.70625Q40.8 66.00313 40.20625 66.00313Q39.8625 66.00313 39.425 65.84688ZM51.440624 60.70625L52.721874 60.8625Q52.409374 61.9875 51.596874 62.6125Q50.784374 63.221874 49.51875 63.221874Q47.925 63.221874 46.9875 62.2375Q46.065624 61.253124 46.065624 59.4875Q46.065624 57.64375 47.003124 56.64375Q47.95625 55.628124 49.45625 55.628124Q50.909374 55.628124 51.83125 56.628124Q52.753124 57.6125 52.753124 59.409374Q52.753124 59.51875 52.753124 59.7375L47.33125 59.7375Q47.409374 60.925 48.003124 61.565624Q48.6125 62.20625 49.534374 62.20625Q50.20625 62.20625 50.675 61.846874Q51.159374 61.4875 51.440624 60.70625ZM47.409374 58.721874L51.45625 58.721874Q51.378124 57.8 50.9875 57.346874Q50.409374 56.64375 49.471874 56.64375Q48.6125 56.64375 48.034374 57.20625Q47.471874 57.76875 47.409374 58.721874ZM54.45625 63.05L54.45625 55.784374L55.565624 55.784374L55.565624 56.89375Q55.9875 56.1125 56.346874 55.878124Q56.70625 55.628124 57.14375 55.628124Q57.76875 55.628124 58.409374 56.01875L57.9875 57.159374Q57.534374 56.89375 57.08125 56.89375Q56.675 56.89375 56.346874 57.14375Q56.034374 57.378124 55.89375 57.815624Q55.690624 58.471874 55.690624 59.253124L55.690624 63.05L54.45625 63.05ZM58.9875 60.878124L60.190624 60.690624Q60.3 61.425 60.76875 61.815624Q61.2375 62.20625 62.08125 62.20625Q62.925 62.20625 63.33125 61.8625Q63.753124 61.51875 63.753124 61.05Q63.753124 60.628124 63.378124 60.39375Q63.128124 60.221874 62.128124 59.971874Q60.76875 59.628124 60.2375 59.378124Q59.721874 59.128124 59.45625 58.690624Q59.190624 58.253124 59.190624 57.721874Q59.190624 57.2375 59.409374 56.83125Q59.628124 56.409374 60.01875 56.128124Q60.3 55.925 60.784374 55.784374Q61.284374 55.628124 61.8625 55.628124Q62.70625 55.628124 63.346874 55.878124Q64.00313 56.1125 64.31563 56.534374Q64.62813 56.95625 64.7375 57.659374L63.534374 57.83125Q63.45625 57.26875 63.05 56.95625Q62.659374 56.64375 61.940624 56.64375Q61.096874 56.64375 60.7375 56.925Q60.378124 57.190624 60.378124 57.58125Q60.378124 57.815624 60.51875 58.003124Q60.675 58.20625 61.003124 58.33125Q61.175 58.39375 62.08125 58.64375Q63.39375 59.003124 63.909374 59.221874Q64.425 59.440624 64.70625 59.8625Q65.00313 60.284374 65.00313 60.909374Q65.00313 61.534374 64.64375 62.08125Q64.3 62.6125 63.6125 62.925Q62.940624 63.221874 62.08125 63.221874Q60.675 63.221874 59.925 62.628124Q59.190624 62.034374 58.9875 60.878124ZM71.81563 63.05L69.59688 55.784374L70.8625 55.784374L72.01875 59.9875L72.45625 61.534374Q72.47188 61.425 72.83125 60.034374L73.9875 55.784374L75.2375 55.784374L76.33125 60.003124L76.69063 61.39375L77.1125 59.9875L78.3625 55.784374L79.55 55.784374L77.28438 63.05L76.00313 63.05L74.84688 58.70625L74.56563 57.471874L73.09688 63.05L71.81563 63.05ZM79.4875 54.440624L79.4875 53.034374L80.70625 53.034374L80.70625 54.440624L79.4875 54.440624ZM79.4875 63.05L79.4875 55.784374L80.70625 55.784374L80.70625 63.05L79.4875 63.05ZM85.15938 61.95625L85.33125 63.034374Q84.81563 63.14375 84.40938 63.14375Q83.7375 63.14375 83.3625 62.940624Q83.00313 62.721874 82.84688 62.378124Q82.70625 62.034374 82.70625 60.925L82.70625 56.753124L81.8 56.753124L81.8 55.784374L82.70625 55.784374L82.70625 53.9875L83.925 53.253124L83.925 55.784374L85.15938 55.784374L85.15938 56.753124L83.925 56.753124L83.925 60.9875Q83.925 61.51875 83.9875 61.675Q84.05 61.815624 84.19063 61.909374Q84.34688 62.003124 84.6125 62.003124Q84.83125 62.003124 85.15938 61.95625ZM86.47188 63.05L86.47188 53.034374L87.70625 53.034374L87.70625 56.628124Q88.56563 55.628124 89.87813 55.628124Q90.69063 55.628124 91.28438 55.95625Q91.87813 56.26875 92.12813 56.83125Q92.39375 57.378124 92.39375 58.45625L92.39375 63.05L91.15938 63.05L91.15938 58.45625Q91.15938 57.51875 90.75313 57.1125Q90.3625 56.690624 89.62813 56.690624Q89.08125 56.690624 88.59688 56.971874Q88.1125 57.253124 87.90938 57.7375Q87.70625 58.221874 87.70625 59.08125L87.70625 63.05L86.47188 63.05ZM104.95625 58.675L98.31563 61.503124L98.31563 60.284374L103.56563 58.096874L98.31563 55.940624L98.31563 54.721874L104.95625 57.51875L104.95625 58.675ZM112.94063 57.159374L106.33125 57.159374L106.33125 56.003124L112.94063 56.003124L112.94063 57.159374ZM112.94063 60.20625L106.33125 60.20625L106.33125 59.05L112.94063 59.05L112.94063 60.20625ZM118.76875 63.05L117.53438 63.05L117.53438 55.20625Q117.09688 55.628124 116.3625 56.065624Q115.64375 56.4875 115.08125 56.690624L115.08125 55.503124Q116.1125 55.01875 116.87813 54.33125Q117.65938 53.64375 117.97188 52.9875L118.76875 52.9875L118.76875 63.05ZM122.12813 58.1125Q122.12813 56.33125 122.4875 55.253124Q122.8625 54.159374 123.58125 53.58125Q124.3 52.9875 125.39375 52.9875Q126.20625 52.9875 126.81563 53.315624Q127.425 53.64375 127.81563 54.253124Q128.22188 54.8625 128.44063 55.7375Q128.65938 56.6125 128.65938 58.1125Q128.65938 59.878124 128.3 60.95625Q127.94063 62.034374 127.22188 62.628124Q126.50313 63.221874 125.39375 63.221874Q123.95625 63.221874 123.12813 62.175Q122.12813 60.925 122.12813 58.1125ZM123.39375 58.1125Q123.39375 60.58125 123.97188 61.39375Q124.55 62.20625 125.39375 62.20625Q126.25313 62.20625 126.83125 61.39375Q127.40938 60.565624 127.40938 58.1125Q127.40938 55.628124 126.83125 54.815624Q126.25313 54.003124 125.37813 54.003124Q124.53438 54.003124 124.03438 54.721874Q123.39375 55.64375 123.39375 58.1125ZM137.15938 61.95625L137.33125 63.034374Q136.81563 63.14375 136.40938 63.14375Q135.7375 63.14375 135.3625 62.940624Q135.00313 62.721874 134.84688 62.378124Q134.70625 62.034374 134.70625 60.925L134.70625 56.753124L133.8 56.753124L133.8 55.784374L134.70625 55.784374L134.70625 53.9875L135.925 53.253124L135.925 55.784374L137.15938 55.784374L137.15938 56.753124L135.925 56.753124L135.925 60.9875Q135.925 61.51875 135.9875 61.675Q136.05 61.815624 136.19063 61.909374Q136.34688 62.003124 136.6125 62.003124Q136.83125 62.003124 137.15938 61.95625ZM138.45625 63.05L138.45625 55.784374L139.56563 55.784374L139.56563 56.89375Q139.9875 56.1125 140.34688 55.878124Q140.70625 55.628124 141.14375 55.628124Q141.76875 55.628124 142.40938 56.01875L141.9875 57.159374Q141.53438 56.89375 141.08125 56.89375Q140.675 56.89375 140.34688 57.14375Q140.03438 57.378124 139.89375 57.815624Q139.69063 58.471874 139.69063 59.253124L139.69063 63.05L138.45625 63.05ZM148.20625 62.159374Q147.53438 62.7375 146.89375 62.9875Q146.26875 63.221874 145.53438 63.221874Q144.34688 63.221874 143.69063 62.64375Q143.05 62.05 143.05 61.128124Q143.05 60.596874 143.28438 60.159374Q143.53438 59.721874 143.925 59.45625Q144.33125 59.190624 144.81563 59.05Q145.175 58.95625 145.90938 58.8625Q147.40938 58.690624 148.1125 58.440624Q148.1125 58.190624 148.1125 58.128124Q148.1125 57.3625 147.76875 57.065624Q147.3 56.64375 146.3625 56.64375Q145.50313 56.64375 145.08125 56.95625Q144.675 57.253124 144.47188 58.01875L143.26875 57.8625Q143.425 57.08125 143.8 56.6125Q144.19063 56.14375 144.89375 55.89375Q145.6125 55.628124 146.55 55.628124Q147.47188 55.628124 148.05 55.846874Q148.62813 56.065624 148.89375 56.39375Q149.175 56.721874 149.28438 57.2375Q149.34688 57.55 149.34688 58.3625L149.34688 60.003124Q149.34688 61.721874 149.425 62.175Q149.50313 62.628124 149.7375 63.05L148.45625 63.05Q148.26875 62.659374 148.20625 62.159374ZM148.1125 59.409374Q147.44063 59.675 146.09688 59.878124Q145.34688 59.9875 145.01875 60.128124Q144.70625 60.253124 144.53438 60.51875Q144.3625 60.784374 144.3625 61.096874Q144.3625 61.596874 144.7375 61.925Q145.1125 62.253124 145.83125 62.253124Q146.55 62.253124 147.09688 61.940624Q147.64375 61.628124 147.90938 61.08125Q148.1125 60.675 148.1125 59.8625L148.1125 59.409374ZM156.20625 60.39375L157.425 60.55Q157.22188 61.8 156.39375 62.51875Q155.58125 63.221874 154.39375 63.221874Q152.90938 63.221874 152.00313 62.253124Q151.09688 61.26875 151.09688 59.440624Q151.09688 58.26875 151.4875 57.39375Q151.87813 56.503124 152.675 56.065624Q153.47188 55.628124 154.40938 55.628124Q155.58125 55.628124 156.33125 56.221874Q157.09688 56.815624 157.3 57.925L156.1125 58.1125Q155.94063 57.378124 155.50313 57.01875Q155.06563 56.64375 154.45625 56.64375Q153.51875 56.64375 152.94063 57.315624Q152.3625 57.971874 152.3625 59.409374Q152.3625 60.878124 152.925 61.55Q153.4875 62.20625 154.37813 62.20625Q155.1125 62.20625 155.59688 61.76875Q156.08125 61.315624 156.20625 60.39375ZM158.4875 63.05L158.4875 53.034374L159.70625 53.034374L159.70625 58.7375L162.62813 55.784374L164.22188 55.784374L161.44063 58.4875L164.50313 63.05L162.97188 63.05L160.58125 59.33125L159.70625 60.175L159.70625 63.05L158.4875 63.05ZM170.44063 60.70625L171.72188 60.8625Q171.40938 61.9875 170.59688 62.6125Q169.78438 63.221874 168.51875 63.221874Q166.925 63.221874 165.9875 62.2375Q165.06563 61.253124 165.06563 59.4875Q165.06563 57.64375 166.00313 56.64375Q166.95625 55.628124 168.45625 55.628124Q169.90938 55.628124 170.83125 56.628124Q171.75313 57.6125 171.75313 59.409374Q171.75313 59.51875 171.75313 59.7375L166.33125 59.7375Q166.40938 60.925 167.00313 61.565624Q167.6125 62.20625 168.53438 62.20625Q169.20625 62.20625 169.675 61.846874Q170.15938 61.4875 170.44063 60.70625ZM166.40938 58.721874L170.45625 58.721874Q170.37813 57.8 169.9875 57.346874Q169.40938 56.64375 168.47188 56.64375Q167.6125 56.64375 167.03438 57.20625Q166.47188 57.76875 166.40938 58.721874ZM178.19063 63.05L178.19063 62.128124Q177.4875 63.221874 176.15938 63.221874Q175.28438 63.221874 174.55 62.7375Q173.83125 62.253124 173.425 61.39375Q173.03438 60.534374 173.03438 59.425Q173.03438 58.346874 173.39375 57.45625Q173.75313 56.565624 174.47188 56.096874Q175.20625 55.628124 176.09688 55.628124Q176.75313 55.628124 177.26875 55.909374Q177.78438 56.175 178.09688 56.628124L178.09688 53.034374L179.33125 53.034374L179.33125 63.05L178.19063 63.05ZM174.3 59.425Q174.3 60.815624 174.87813 61.51875Q175.47188 62.20625 176.26875 62.20625Q177.08125 62.20625 177.64375 61.55Q178.20625 60.878124 178.20625 59.534374Q178.20625 58.034374 177.62813 57.346874Q177.05 56.64375 176.22188 56.64375Q175.39375 56.64375 174.84688 57.315624Q174.3 57.9875 174.3 59.425ZM185.47188 63.05L185.47188 55.784374L186.58125 55.784374L186.58125 56.815624Q186.90938 56.26875 187.47188 55.95625Q188.05 55.628124 188.76875 55.628124Q189.58125 55.628124 190.09688 55.971874Q190.6125 56.3 190.83125 56.89375Q191.69063 55.628124 193.06563 55.628124Q194.14375 55.628124 194.72188 56.221874Q195.31563 56.815624 195.31563 58.065624L195.31563 63.05L194.08125 63.05L194.08125 58.471874Q194.08125 57.7375 193.95625 57.409374Q193.84688 57.08125 193.53438 56.89375Q193.22188 56.690624 192.8 56.690624Q192.03438 56.690624 191.51875 57.20625Q191.01875 57.70625 191.01875 58.83125L191.01875 63.05L189.78438 63.05L189.78438 58.33125Q189.78438 57.51875 189.4875 57.1125Q189.19063 56.690624 188.50313 56.690624Q187.9875 56.690624 187.53438 56.971874Q187.09688 57.2375 186.89375 57.76875Q186.70625 58.284374 186.70625 59.284374L186.70625 63.05L185.47188 63.05ZM201.20625 62.159374Q200.53438 62.7375 199.89375 62.9875Q199.26875 63.221874 198.53438 63.221874Q197.34688 63.221874 196.69063 62.64375Q196.05 62.05 196.05 61.128124Q196.05 60.596874 196.28438 60.159374Q196.53438 59.721874 196.925 59.45625Q197.33125 59.190624 197.81563 59.05Q198.175 58.95625 198.90938 58.8625Q200.40938 58.690624 201.1125 58.440624Q201.1125 58.190624 201.1125 58.128124Q201.1125 57.3625 200.76875 57.065624Q200.3 56.64375 199.3625 56.64375Q198.50313 56.64375 198.08125 56.95625Q197.675 57.253124 197.47188 58.01875L196.26875 57.8625Q196.425 57.08125 196.8 56.6125Q197.19063 56.14375 197.89375 55.89375Q198.6125 55.628124 199.55 55.628124Q200.47188 55.628124 201.05 55.846874Q201.62813 56.065624 201.89375 56.39375Q202.175 56.721874 202.28438 57.2375Q202.34688 57.55 202.34688 58.3625L202.34688 60.003124Q202.34688 61.721874 202.425 62.175Q202.50313 62.628124 202.7375 63.05L201.45625 63.05Q201.26875 62.659374 201.20625 62.159374ZM201.1125 59.409374Q200.44063 59.675 199.09688 59.878124Q198.34688 59.9875 198.01875 60.128124Q197.70625 60.253124 197.53438 60.51875Q197.3625 60.784374 197.3625 61.096874Q197.3625 61.596874 197.7375 61.925Q198.1125 62.253124 198.83125 62.253124Q199.55 62.253124 200.09688 61.940624Q200.64375 61.628124 200.90938 61.08125Q201.1125 60.675 201.1125 59.8625L201.1125 59.409374ZM207.15938 61.95625L207.33125 63.034374Q206.81563 63.14375 206.40938 63.14375Q205.7375 63.14375 205.3625 62.940624Q205.00313 62.721874 204.84688 62.378124Q204.70625 62.034374 204.70625 60.925L204.70625 56.753124L203.8 56.753124L203.8 55.784374L204.70625 55.784374L204.70625 53.9875L205.925 53.253124L205.925 55.784374L207.15938 55.784374L207.15938 56.753124L205.925 56.753124L205.925 60.9875Q205.925 61.51875 205.9875 61.675Q206.05 61.815624 206.19063 61.909374Q206.34688 62.003124 206.6125 62.003124Q206.83125 62.003124 207.15938 61.95625ZM213.20625 60.39375L214.425 60.55Q214.22188 61.8 213.39375 62.51875Q212.58125 63.221874 211.39375 63.221874Q209.90938 63.221874 209.00313 62.253124Q208.09688 61.26875 208.09688 59.440624Q208.09688 58.26875 208.4875 57.39375Q208.87813 56.503124 209.675 56.065624Q210.47188 55.628124 211.40938 55.628124Q212.58125 55.628124 213.33125 56.221874Q214.09688 56.815624 214.3 57.925L213.1125 58.1125Q212.94063 57.378124 212.50313 57.01875Q212.06563 56.64375 211.45625 56.64375Q210.51875 56.64375 209.94063 57.315624Q209.3625 57.971874 209.3625 59.409374Q209.3625 60.878124 209.925 61.55Q210.4875 62.20625 211.37813 62.20625Q212.1125 62.20625 212.59688 61.76875Q213.08125 61.315624 213.20625 60.39375ZM215.47188 63.05L215.47188 53.034374L216.70625 53.034374L216.70625 56.628124Q217.56563 55.628124 218.87813 55.628124Q219.69063 55.628124 220.28438 55.95625Q220.87813 56.26875 221.12813 56.83125Q221.39375 57.378124 221.39375 58.45625L221.39375 63.05L220.15938 63.05L220.15938 58.45625Q220.15938 57.51875 219.75313 57.1125Q219.3625 56.690624 218.62813 56.690624Q218.08125 56.690624 217.59688 56.971874Q217.1125 57.253124 216.90938 57.7375Q216.70625 58.221874 216.70625 59.08125L216.70625 63.05L215.47188 63.05ZM228.44063 60.70625L229.72188 60.8625Q229.40938 61.9875 228.59688 62.6125Q227.78438 63.221874 226.51875 63.221874Q224.925 63.221874 223.9875 62.2375Q223.06563 61.253124 223.06563 59.4875Q223.06563 57.64375 224.00313 56.64375Q224.95625 55.628124 226.45625 55.628124Q227.90938 55.628124 228.83125 56.628124Q229.75313 57.6125 229.75313 59.409374Q229.75313 59.51875 229.75313 59.7375L224.33125 59.7375Q224.40938 60.925 225.00313 61.565624Q225.6125 62.20625 226.53438 62.20625Q227.20625 62.20625 227.675 61.846874Q228.15938 61.4875 228.44063 60.70625ZM224.40938 58.721874L228.45625 58.721874Q228.37813 57.8 227.9875 57.346874Q227.40938 56.64375 226.47188 56.64375Q225.6125 56.64375 225.03438 57.20625Q224.47188 57.76875 224.40938 58.721874ZM230.9875 60.878124L232.19063 60.690624Q232.3 61.425 232.76875 61.815624Q233.2375 62.20625 234.08125 62.20625Q234.925 62.20625 235.33125 61.8625Q235.75313 61.51875 235.75313 61.05Q235.75313 60.628124 235.37813 60.39375Q235.12813 60.221874 234.12813 59.971874Q232.76875 59.628124 232.2375 59.378124Q231.72188 59.128124 231.45625 58.690624Q231.19063 58.253124 231.19063 57.721874Q231.19063 57.2375 231.40938 56.83125Q231.62813 56.409374 232.01875 56.128124Q232.3 55.925 232.78438 55.784374Q233.28438 55.628124 233.8625 55.628124Q234.70625 55.628124 235.34688 55.878124Q236.00313 56.1125 236.31563 56.534374Q236.62813 56.95625 236.7375 57.659374L235.53438 57.83125Q235.45625 57.26875 235.05 56.95625Q234.65938 56.64375 233.94063 56.64375Q233.09688 56.64375 232.7375 56.925Q232.37813 57.190624 232.37813 57.58125Q232.37813 57.815624 232.51875 58.003124Q232.675 58.20625 233.00313 58.33125Q233.175 58.39375 234.08125 58.64375Q235.39375 59.003124 235.90938 59.221874Q236.425 59.440624 236.70625 59.8625Q237.00313 60.284374 237.00313 60.909374Q237.00313 61.534374 236.64375 62.08125Q236.3 62.6125 235.6125 62.925Q234.94063 63.221874 234.08125 63.221874Q232.675 63.221874 231.925 62.628124Q231.19063 62.034374 230.9875 60.878124ZM244.83125 66.00313Q243.8 64.70625 243.09688 62.9875Q242.39375 61.26875 242.39375 59.425Q242.39375 57.8 242.925 56.3Q243.53438 54.565624 244.83125 52.8625L245.70625 52.8625Q244.87813 54.284374 244.6125 54.89375Q244.19063 55.83125 243.95625 56.8625Q243.65938 58.128124 243.65938 59.425Q243.65938 62.721874 245.70625 66.00313L244.83125 66.00313ZM249.4875 63.05L246.72188 55.784374L248.03438 55.784374L249.58125 60.14375Q249.83125 60.846874 250.05 61.596874Q250.22188 61.01875 250.50313 60.221874L252.12813 55.784374L253.39375 55.784374L250.64375 63.05L249.4875 63.05ZM254.4875 54.440624L254.4875 53.034374L255.70625 53.034374L255.70625 54.440624L254.4875 54.440624ZM254.4875 63.05L254.4875 55.784374L255.70625 55.784374L255.70625 63.05L254.4875 63.05ZM262.20624 62.159374Q261.53436 62.7375 260.89374 62.9875Q260.26874 63.221874 259.53436 63.221874Q258.34686 63.221874 257.6906 62.64375Q257.05 62.05 257.05 61.128124Q257.05 60.596874 257.28436 60.159374Q257.53436 59.721874 257.925 59.45625Q258.33124 59.190624 258.8156 59.05Q259.175 58.95625 259.90936 58.8625Q261.40936 58.690624 262.1125 58.440624Q262.1125 58.190624 262.1125 58.128124Q262.1125 57.3625 261.76874 57.065624Q261.3 56.64375 260.3625 56.64375Q259.5031 56.64375 259.08124 56.95625Q258.675 57.253124 258.47186 58.01875L257.26874 57.8625Q257.425 57.08125 257.8 56.6125Q258.1906 56.14375 258.89374 55.89375Q259.6125 55.628124 260.55 55.628124Q261.47186 55.628124 262.05 55.846874Q262.6281 56.065624 262.89374 56.39375Q263.175 56.721874 263.28436 57.2375Q263.34686 57.55 263.34686 58.3625L263.34686 60.003124Q263.34686 61.721874 263.425 62.175Q263.5031 62.628124 263.7375 63.05L262.45624 63.05Q262.26874 62.659374 262.20624 62.159374ZM262.1125 59.409374Q261.4406 59.675 260.09686 59.878124Q259.34686 59.9875 259.01874 60.128124Q258.70624 60.253124 258.53436 60.51875Q258.3625 60.784374 258.3625 61.096874Q258.3625 61.596874 258.7375 61.925Q259.1125 62.253124 259.83124 62.253124Q260.55 62.253124 261.09686 61.940624Q261.64374 61.628124 261.90936 61.08125Q262.1125 60.675 262.1125 59.8625L262.1125 59.409374ZM274.20624 60.39375L275.425 60.55Q275.22186 61.8 274.39374 62.51875Q273.58124 63.221874 272.39374 63.221874Q270.90936 63.221874 270.0031 62.253124Q269.09686 61.26875 269.09686 59.440624Q269.09686 58.26875 269.4875 57.39375Q269.8781 56.503124 270.675 56.065624Q271.47186 55.628124 272.40936 55.628124Q273.58124 55.628124 274.33124 56.221874Q275.09686 56.815624 275.3 57.925L274.1125 58.1125Q273.9406 57.378124 273.5031 57.01875Q273.0656 56.64375 272.45624 56.64375Q271.51874 56.64375 270.9406 57.315624Q270.3625 57.971874 270.3625 59.409374Q270.3625 60.878124 270.925 61.55Q271.4875 62.20625 272.3781 62.20625Q273.1125 62.20625 273.59686 61.76875Q274.08124 61.315624 274.20624 60.39375ZM275.9875 60.878124L277.1906 60.690624Q277.3 61.425 277.76874 61.815624Q278.2375 62.20625 279.08124 62.20625Q279.925 62.20625 280.33124 61.8625Q280.7531 61.51875 280.7531 61.05Q280.7531 60.628124 280.3781 60.39375Q280.1281 60.221874 279.1281 59.971874Q277.76874 59.628124 277.2375 59.378124Q276.72186 59.128124 276.45624 58.690624Q276.1906 58.253124 276.1906 57.721874Q276.1906 57.2375 276.40936 56.83125Q276.6281 56.409374 277.01874 56.128124Q277.3 55.925 277.78436 55.784374Q278.28436 55.628124 278.8625 55.628124Q279.70624 55.628124 280.34686 55.878124Q281.0031 56.1125 281.3156 56.534374Q281.6281 56.95625 281.7375 57.659374L280.53436 57.83125Q280.45624 57.26875 280.05 56.95625Q279.65936 56.64375 278.9406 56.64375Q278.09686 56.64375 277.7375 56.925Q277.3781 57.190624 277.3781 57.58125Q277.3781 57.815624 277.51874 58.003124Q277.675 58.20625 278.0031 58.33125Q278.175 58.39375 279.08124 58.64375Q280.39374 59.003124 280.90936 59.221874Q281.425 59.440624 281.70624 59.8625Q282.0031 60.284374 282.0031 60.909374Q282.0031 61.534374 281.64374 62.08125Q281.3 62.6125 280.6125 62.925Q279.9406 63.221874 279.08124 63.221874Q277.675 63.221874 276.925 62.628124Q276.1906 62.034374 275.9875 60.878124ZM282.9875 60.878124L284.1906 60.690624Q284.3 61.425 284.76874 61.815624Q285.2375 62.20625 286.08124 62.20625Q286.925 62.20625 287.33124 61.8625Q287.7531 61.51875 287.7531 61.05Q287.7531 60.628124 287.3781 60.39375Q287.1281 60.221874 286.1281 59.971874Q284.76874 59.628124 284.2375 59.378124Q283.72186 59.128124 283.45624 58.690624Q283.1906 58.253124 283.1906 57.721874Q283.1906 57.2375 283.40936 56.83125Q283.6281 56.409374 284.01874 56.128124Q284.3 55.925 284.78436 55.784374Q285.28436 55.628124 285.8625 55.628124Q286.70624 55.628124 287.34686 55.878124Q288.0031 56.1125 288.3156 56.534374Q288.6281 56.95625 288.7375 57.659374L287.53436 57.83125Q287.45624 57.26875 287.05 56.95625Q286.65936 56.64375 285.9406 56.64375Q285.09686 56.64375 284.7375 56.925Q284.3781 57.190624 284.3781 57.58125Q284.3781 57.815624 284.51874 58.003124Q284.675 58.20625 285.0031 58.33125Q285.175 58.39375 286.08124 58.64375Q287.39374 59.003124 287.90936 59.221874Q288.425 59.440624 288.70624 59.8625Q289.0031 60.284374 289.0031 60.909374Q289.0031 61.534374 288.64374 62.08125Q288.3 62.6125 287.6125 62.925Q286.9406 63.221874 286.08124 63.221874Q284.675 63.221874 283.925 62.628124Q283.1906 62.034374 282.9875 60.878124ZM293.15936 61.95625L293.33124 63.034374Q292.8156 63.14375 292.40936 63.14375Q291.7375 63.14375 291.3625 62.940624Q291.0031 62.721874 290.84686 62.378124Q290.70624 62.034374 290.70624 60.925L290.70624 56.753124L289.8 56.753124L289.8 55.784374L290.70624 55.784374L290.70624 53.9875L291.925 53.253124L291.925 55.784374L293.15936 55.784374L293.15936 56.753124L291.925 56.753124L291.925 60.9875Q291.925 61.51875 291.9875 61.675Q292.05 61.815624 292.1906 61.909374Q292.34686 62.003124 292.6125 62.003124Q292.83124 62.003124 293.15936 61.95625ZM299.20624 62.159374Q298.53436 62.7375 297.89374 62.9875Q297.26874 63.221874 296.53436 63.221874Q295.34686 63.221874 294.6906 62.64375Q294.05 62.05 294.05 61.128124Q294.05 60.596874 294.28436 60.159374Q294.53436 59.721874 294.925 59.45625Q295.33124 59.190624 295.8156 59.05Q296.175 58.95625 296.90936 58.8625Q298.40936 58.690624 299.1125 58.440624Q299.1125 58.190624 299.1125 58.128124Q299.1125 57.3625 298.76874 57.065624Q298.3 56.64375 297.3625 56.64375Q296.5031 56.64375 296.08124 56.95625Q295.675 57.253124 295.47186 58.01875L294.26874 57.8625Q294.425 57.08125 294.8 56.6125Q295.1906 56.14375 295.89374 55.89375Q296.6125 55.628124 297.55 55.628124Q298.47186 55.628124 299.05 55.846874Q299.6281 56.065624 299.89374 56.39375Q300.175 56.721874 300.28436 57.2375Q300.34686 57.55 300.34686 58.3625L300.34686 60.003124Q300.34686 61.721874 300.425 62.175Q300.5031 62.628124 300.7375 63.05L299.45624 63.05Q299.26874 62.659374 299.20624 62.159374ZM299.1125 59.409374Q298.4406 59.675 297.09686 59.878124Q296.34686 59.9875 296.01874 60.128124Q295.70624 60.253124 295.53436 60.51875Q295.3625 60.784374 295.3625 61.096874Q295.3625 61.596874 295.7375 61.925Q296.1125 62.253124 296.83124 62.253124Q297.55 62.253124 298.09686 61.940624Q298.64374 61.628124 298.90936 61.08125Q299.1125 60.675 299.1125 59.8625L299.1125 59.409374ZM305.15936 61.95625L305.33124 63.034374Q304.8156 63.14375 304.40936 63.14375Q303.7375 63.14375 303.3625 62.940624Q303.0031 62.721874 302.84686 62.378124Q302.70624 62.034374 302.70624 60.925L302.70624 56.753124L301.8 56.753124L301.8 55.784374L302.70624 55.784374L302.70624 53.9875L303.925 53.253124L303.925 55.784374L305.15936 55.784374L305.15936 56.753124L303.925 56.753124L303.925 60.9875Q303.925 61.51875 303.9875 61.675Q304.05 61.815624 304.1906 61.909374Q304.34686 62.003124 304.6125 62.003124Q304.83124 62.003124 305.15936 61.95625ZM305.9875 60.878124L307.1906 60.690624Q307.3 61.425 307.76874 61.815624Q308.2375 62.20625 309.08124 62.20625Q309.925 62.20625 310.33124 61.8625Q310.7531 61.51875 310.7531 61.05Q310.7531 60.628124 310.3781 60.39375Q310.1281 60.221874 309.1281 59.971874Q307.76874 59.628124 307.2375 59.378124Q306.72186 59.128124 306.45624 58.690624Q306.1906 58.253124 306.1906 57.721874Q306.1906 57.2375 306.40936 56.83125Q306.6281 56.409374 307.01874 56.128124Q307.3 55.925 307.78436 55.784374Q308.28436 55.628124 308.8625 55.628124Q309.70624 55.628124 310.34686 55.878124Q311.0031 56.1125 311.3156 56.534374Q311.6281 56.95625 311.7375 57.659374L310.53436 57.83125Q310.45624 57.26875 310.05 56.95625Q309.65936 56.64375 308.9406 56.64375Q308.09686 56.64375 307.7375 56.925Q307.3781 57.190624 307.3781 57.58125Q307.3781 57.815624 307.51874 58.003124Q307.675 58.20625 308.0031 58.33125Q308.175 58.39375 309.08124 58.64375Q310.39374 59.003124 310.90936 59.221874Q311.425 59.440624 311.70624 59.8625Q312.0031 60.284374 312.0031 60.909374Q312.0031 61.534374 311.64374 62.08125Q311.3 62.6125 310.6125 62.925Q309.9406 63.221874 309.08124 63.221874Q307.675 63.221874 306.925 62.628124Q306.1906 62.034374 305.9875 60.878124ZM313.8156 63.05L313.8156 61.64375L315.22186 61.64375L315.22186 63.05L313.8156 63.05ZM317.2531 63.659374L318.4406 63.83125Q318.51874 64.37813 318.8625 64.64375Q319.3156 64.97188 320.1125 64.97188Q320.97186 64.97188 321.425 64.62813Q321.89374 64.3 322.0656 63.675Q322.15936 63.3 322.14374 62.096874Q321.34686 63.05 320.14374 63.05Q318.64374 63.05 317.8156 61.971874Q317.0031 60.89375 317.0031 59.378124Q317.0031 58.346874 317.3781 57.471874Q317.7531 56.58125 318.45624 56.1125Q319.175 55.628124 320.14374 55.628124Q321.425 55.628124 322.26874 56.659374L322.26874 55.784374L323.39374 55.784374L323.39374 62.065624Q323.39374 63.76875 323.05 64.47188Q322.70624 65.175 321.95624 65.58125Q321.20624 66.00313 320.1125 66.00313Q318.8156 66.00313 318.01874 65.40938Q317.22186 64.83125 317.2531 63.659374ZM318.26874 59.284374Q318.26874 60.721874 318.83124 61.378124Q319.39374 62.034374 320.2531 62.034374Q321.09686 62.034374 321.675 61.378124Q322.2531 60.721874 322.2531 59.33125Q322.2531 58.003124 321.65936 57.33125Q321.0656 56.64375 320.2375 56.64375Q319.40936 56.64375 318.83124 57.315624Q318.26874 57.971874 318.26874 59.284374ZM325.2531 63.659374L326.4406 63.83125Q326.51874 64.37813 326.8625 64.64375Q327.3156 64.97188 328.1125 64.97188Q328.97186 64.97188 329.425 64.62813Q329.89374 64.3 330.0656 63.675Q330.15936 63.3 330.14374 62.096874Q329.34686 63.05 328.14374 63.05Q326.64374 63.05 325.8156 61.971874Q325.0031 60.89375 325.0031 59.378124Q325.0031 58.346874 325.3781 57.471874Q325.7531 56.58125 326.45624 56.1125Q327.175 55.628124 328.14374 55.628124Q329.425 55.628124 330.26874 56.659374L330.26874 55.784374L331.39374 55.784374L331.39374 62.065624Q331.39374 63.76875 331.05 64.47188Q330.70624 65.175 329.95624 65.58125Q329.20624 66.00313 328.1125 66.00313Q326.8156 66.00313 326.01874 65.40938Q325.22186 64.83125 325.2531 63.659374ZM326.26874 59.284374Q326.26874 60.721874 326.83124 61.378124Q327.39374 62.034374 328.2531 62.034374Q329.09686 62.034374 329.675 61.378124Q330.2531 60.721874 330.2531 59.33125Q330.2531 58.003124 329.65936 57.33125Q329.0656 56.64375 328.2375 56.64375Q327.40936 56.64375 326.83124 57.315624Q326.26874 57.971874 326.26874 59.284374ZM334.28436 66.00313L333.39374 66.00313Q335.4406 62.721874 335.4406 59.425Q335.4406 58.14375 335.14374 56.878124Q334.90936 55.846874 334.5031 54.909374Q334.2375 54.3 333.39374 52.8625L334.28436 52.8625Q335.5656 54.565624 336.175 56.3Q336.70624 57.8 336.70624 59.425Q336.70624 61.26875 335.9875 62.9875Q335.28436 64.70625 334.28436 66.00313Z" fill-rule="nonzero"/><path fill="#757575" d="M20.034374 37.55L20.034374 23.2375L22.89375 23.2375L26.26875 33.3625Q26.7375 34.784374 26.95625 35.4875Q27.20625 34.70625 27.721874 33.190624L31.14375 23.2375L33.690624 23.2375L33.690624 37.55L31.878124 37.55L31.878124 25.565624L27.70625 37.55L26.003124 37.55L21.8625 25.3625L21.8625 37.55L20.034374 37.55ZM36.878124 25.253124L36.878124 23.2375L38.64375 23.2375L38.64375 25.253124L36.878124 25.253124ZM36.878124 37.55L36.878124 27.175L38.64375 27.175L38.64375 37.55L36.878124 37.55ZM40.846874 37.55L40.846874 27.175L42.425 27.175L42.425 28.753124Q43.034374 27.64375 43.55 27.3Q44.065624 26.940624 44.675 26.940624Q45.565624 26.940624 46.4875 27.503124L45.878124 29.14375Q45.2375 28.753124 44.596874 28.753124Q44.01875 28.753124 43.55 29.1125Q43.096874 29.45625 42.89375 30.065624Q42.6125 31.003124 42.6125 32.1125L42.6125 37.55L40.846874 37.55ZM54.64375 36.26875Q53.659374 37.096874 52.753124 37.440624Q51.846874 37.784374 50.815624 37.784374Q49.1125 37.784374 48.190624 36.95625Q47.26875 36.1125 47.26875 34.815624Q47.26875 34.05 47.6125 33.425Q47.971874 32.8 48.534374 32.425Q49.096874 32.034374 49.8 31.83125Q50.315624 31.70625 51.3625 31.565624Q53.4875 31.315624 54.4875 30.971874Q54.503124 30.6125 54.503124 30.503124Q54.503124 29.440624 54.003124 28.9875Q53.33125 28.39375 52.003124 28.39375Q50.753124 28.39375 50.159374 28.83125Q49.58125 29.26875 49.3 30.378124L47.58125 30.14375Q47.815624 29.034374 48.346874 28.3625Q48.878124 27.675 49.89375 27.315624Q50.909374 26.940624 52.253124 26.940624Q53.58125 26.940624 54.409374 27.253124Q55.2375 27.565624 55.628124 28.05Q56.01875 28.51875 56.175 29.2375Q56.26875 29.690624 56.26875 30.8625L56.26875 33.20625Q56.26875 35.659374 56.378124 36.315624Q56.4875 36.95625 56.83125 37.55L54.9875 37.55Q54.721874 37.003124 54.64375 36.26875ZM54.4875 32.346874Q53.534374 32.7375 51.6125 33.003124Q50.534374 33.159374 50.08125 33.3625Q49.64375 33.55 49.39375 33.925Q49.14375 34.3 49.14375 34.76875Q49.14375 35.471874 49.675 35.940624Q50.20625 36.409374 51.2375 36.409374Q52.253124 36.409374 53.034374 35.971874Q53.83125 35.51875 54.20625 34.753124Q54.4875 34.14375 54.4875 32.9875L54.4875 32.346874ZM58.55 38.409374L60.253124 38.659374Q60.3625 39.45625 60.846874 39.815624Q61.503124 40.3 62.64375 40.3Q63.8625 40.3 64.51875 39.815624Q65.19063 39.33125 65.425 38.45625Q65.56563 37.909374 65.55 36.190624Q64.39375 37.55 62.675 37.55Q60.534374 37.55 59.3625 36.003124Q58.190624 34.45625 58.190624 32.3Q58.190624 30.815624 58.721874 29.565624Q59.26875 28.315624 60.284374 27.628124Q61.315624 26.940624 62.690624 26.940624Q64.51875 26.940624 65.72188 28.425L65.72188 27.175L67.33125 27.175L67.33125 36.14375Q67.33125 38.565624 66.83125 39.565624Q66.34688 40.58125 65.26875 41.159374Q64.20625 41.753124 62.64375 41.753124Q60.8 41.753124 59.64375 40.925Q58.503124 40.096874 58.55 38.409374ZM60.003124 32.175Q60.003124 34.221874 60.815624 35.159374Q61.628124 36.096874 62.846874 36.096874Q64.05 36.096874 64.8625 35.159374Q65.69063 34.221874 65.69063 32.2375Q65.69063 30.33125 64.84688 29.3625Q64.00313 28.39375 62.815624 28.39375Q61.64375 28.39375 60.815624 29.346874Q60.003124 30.3 60.003124 32.175ZM76.97188 34.20625L78.78438 34.440624Q78.3625 36.01875 77.19063 36.909374Q76.03438 37.784374 74.22188 37.784374Q71.95625 37.784374 70.6125 36.39375Q69.28438 34.9875 69.28438 32.45625Q69.28438 29.83125 70.62813 28.39375Q71.97188 26.940624 74.12813 26.940624Q76.20625 26.940624 77.51875 28.3625Q78.84688 29.76875 78.84688 32.346874Q78.84688 32.503124 78.83125 32.815624L71.09688 32.815624Q71.19063 34.51875 72.06563 35.425Q72.94063 36.33125 74.2375 36.33125Q75.20625 36.33125 75.87813 35.83125Q76.56563 35.315624 76.97188 34.20625ZM71.19063 31.3625L76.9875 31.3625Q76.87813 30.065624 76.33125 29.409374Q75.4875 28.39375 74.14375 28.39375Q72.94063 28.39375 72.1125 29.20625Q71.28438 30.003124 71.19063 31.3625ZM88.78438 37.55L85.6125 27.175L87.425 27.175L89.08125 33.159374L89.69063 35.39375Q89.7375 35.221874 90.22188 33.253124L91.87813 27.175L93.69063 27.175L95.2375 33.190624L95.75313 35.175L96.34688 33.175L98.12813 27.175L99.83125 27.175L96.59688 37.55L94.76875 37.55L93.1125 31.33125L92.72188 29.565624L90.6125 37.55L88.78438 37.55ZM101.87813 25.253124L101.87813 23.2375L103.64375 23.2375L103.64375 25.253124L101.87813 25.253124ZM101.87813 37.55L101.87813 27.175L103.64375 27.175L103.64375 37.55L101.87813 37.55ZM105.8625 37.55L105.8625 27.175L107.45625 27.175L107.45625 28.659374Q108.59688 26.940624 110.75313 26.940624Q111.69063 26.940624 112.47188 27.284374Q113.26875 27.6125 113.65938 28.159374Q114.05 28.70625 114.20625 29.45625Q114.3 29.95625 114.3 31.175L114.3 37.55L112.53438 37.55L112.53438 31.2375Q112.53438 30.159374 112.33125 29.628124Q112.12813 29.096874 111.59688 28.784374Q111.08125 28.471874 110.37813 28.471874Q109.25313 28.471874 108.44063 29.190624Q107.62813 29.89375 107.62813 31.878124L107.62813 37.55L105.8625 37.55ZM115.84688 37.55L115.84688 27.175L117.425 27.175L117.425 28.753124Q118.03438 27.64375 118.55 27.3Q119.06563 26.940624 119.675 26.940624Q120.56563 26.940624 121.4875 27.503124L120.87813 29.14375Q120.2375 28.753124 119.59688 28.753124Q119.01875 28.753124 118.55 29.1125Q118.09688 29.45625 117.89375 30.065624Q117.6125 31.003124 117.6125 32.1125L117.6125 37.55L115.84688 37.55ZM129.64375 36.26875Q128.65938 37.096874 127.75313 37.440624Q126.84688 37.784374 125.81563 37.784374Q124.1125 37.784374 123.19063 36.95625Q122.26875 36.1125 122.26875 34.815624Q122.26875 34.05 122.6125 33.425Q122.97188 32.8 123.53438 32.425Q124.09688 32.034374 124.8 31.83125Q125.31563 31.70625 126.3625 31.565624Q128.4875 31.315624 129.4875 30.971874Q129.50313 30.6125 129.50313 30.503124Q129.50313 29.440624 129.00313 28.9875Q128.33125 28.39375 127.00313 28.39375Q125.75313 28.39375 125.15938 28.83125Q124.58125 29.26875 124.3 30.378124L122.58125 30.14375Q122.81563 29.034374 123.34688 28.3625Q123.87813 27.675 124.89375 27.315624Q125.90938 26.940624 127.25313 26.940624Q128.58125 26.940624 129.40938 27.253124Q130.2375 27.565624 130.62813 28.05Q131.01875 28.51875 131.175 29.2375Q131.26875 29.690624 131.26875 30.8625L131.26875 33.20625Q131.26875 35.659374 131.37813 36.315624Q131.4875 36.95625 131.83125 37.55L129.9875 37.55Q129.72188 37.003124 129.64375 36.26875ZM129.4875 32.346874Q128.53438 32.7375 126.6125 33.003124Q125.53438 33.159374 125.08125 33.3625Q124.64375 33.55 124.39375 33.925Q124.14375 34.3 124.14375 34.76875Q124.14375 35.471874 124.675 35.940624Q125.20625 36.409374 126.2375 36.409374Q127.25313 36.409374 128.03438 35.971874Q128.83125 35.51875 129.20625 34.753124Q129.4875 34.14375 129.4875 32.9875L129.4875 32.346874ZM137.70625 35.971874L137.95625 37.534374Q137.22188 37.690624 136.62813 37.690624Q135.675 37.690624 135.14375 37.39375Q134.62813 37.08125 134.40938 36.596874Q134.19063 36.096874 134.19063 34.51875L134.19063 28.55L132.90938 28.55L132.90938 27.175L134.19063 27.175L134.19063 24.6125L135.94063 23.55L135.94063 27.175L137.70625 27.175L137.70625 28.55L135.94063 28.55L135.94063 34.6125Q135.94063 35.3625 136.03438 35.58125Q136.12813 35.784374 136.33125 35.925Q136.55 36.05 136.94063 36.05Q137.22188 36.05 137.70625 35.971874ZM146.97188 34.20625L148.78438 34.440624Q148.3625 36.01875 147.19063 36.909374Q146.03438 37.784374 144.22188 37.784374Q141.95625 37.784374 140.6125 36.39375Q139.28438 34.9875 139.28438 32.45625Q139.28438 29.83125 140.62813 28.39375Q141.97188 26.940624 144.12813 26.940624Q146.20625 26.940624 147.51875 28.3625Q148.84688 29.76875 148.84688 32.346874Q148.84688 32.503124 148.83125 32.815624L141.09688 32.815624Q141.19063 34.51875 142.06563 35.425Q142.94063 36.33125 144.2375 36.33125Q145.20625 36.33125 145.87813 35.83125Q146.56563 35.315624 146.97188 34.20625ZM141.19063 31.3625L146.9875 31.3625Q146.87813 30.065624 146.33125 29.409374Q145.4875 28.39375 144.14375 28.39375Q142.94063 28.39375 142.1125 29.20625Q141.28438 30.003124 141.19063 31.3625ZM158.4875 37.55L156.8625 37.55L156.8625 23.2375L158.6125 23.2375L158.6125 28.346874Q159.7375 26.940624 161.45625 26.940624Q162.40938 26.940624 163.26875 27.33125Q164.12813 27.721874 164.675 28.425Q165.22188 29.1125 165.53438 30.096874Q165.84688 31.08125 165.84688 32.20625Q165.84688 34.878124 164.53438 36.33125Q163.22188 37.784374 161.37813 37.784374Q159.53438 37.784374 158.4875 36.253124L158.4875 37.55ZM158.47188 32.284374Q158.47188 34.14375 158.97188 34.9875Q159.81563 36.33125 161.22188 36.33125Q162.37813 36.33125 163.20625 35.33125Q164.05 34.33125 164.05 32.346874Q164.05 30.315624 163.2375 29.3625Q162.44063 28.39375 161.3 28.39375Q160.14375 28.39375 159.3 29.39375Q158.47188 30.39375 158.47188 32.284374ZM167.78438 41.55L167.59688 39.89375Q168.175 40.05 168.59688 40.05Q169.19063 40.05 169.53438 39.846874Q169.89375 39.659374 170.1125 39.315624Q170.28438 39.05 170.65938 38.003124Q170.70625 37.846874 170.81563 37.565624L166.87813 27.175L168.76875 27.175L170.925 33.190624Q171.34688 34.33125 171.675 35.58125Q171.9875 34.378124 172.39375 33.221874L174.6125 27.175L176.37813 27.175L172.425 37.721874Q171.8 39.440624 171.44063 40.08125Q170.97188 40.95625 170.3625 41.346874Q169.76875 41.753124 168.925 41.753124Q168.40938 41.753124 167.78438 41.55ZM183.84688 37.55L183.84688 27.175L185.425 27.175L185.425 28.753124Q186.03438 27.64375 186.55 27.3Q187.06563 26.940624 187.675 26.940624Q188.56563 26.940624 189.4875 27.503124L188.87813 29.14375Q188.2375 28.753124 187.59688 28.753124Q187.01875 28.753124 186.55 29.1125Q186.09688 29.45625 185.89375 30.065624Q185.6125 31.003124 185.6125 32.1125L185.6125 37.55L183.84688 37.55ZM197.64375 36.26875Q196.65938 37.096874 195.75313 37.440624Q194.84688 37.784374 193.81563 37.784374Q192.1125 37.784374 191.19063 36.95625Q190.26875 36.1125 190.26875 34.815624Q190.26875 34.05 190.6125 33.425Q190.97188 32.8 191.53438 32.425Q192.09688 32.034374 192.8 31.83125Q193.31563 31.70625 194.3625 31.565624Q196.4875 31.315624 197.4875 30.971874Q197.50313 30.6125 197.50313 30.503124Q197.50313 29.440624 197.00313 28.9875Q196.33125 28.39375 195.00313 28.39375Q193.75313 28.39375 193.15938 28.83125Q192.58125 29.26875 192.3 30.378124L190.58125 30.14375Q190.81563 29.034374 191.34688 28.3625Q191.87813 27.675 192.89375 27.315624Q193.90938 26.940624 195.25313 26.940624Q196.58125 26.940624 197.40938 27.253124Q198.2375 27.565624 198.62813 28.05Q199.01875 28.51875 199.175 29.2375Q199.26875 29.690624 199.26875 30.8625L199.26875 33.20625Q199.26875 35.659374 199.37813 36.315624Q199.4875 36.95625 199.83125 37.55L197.9875 37.55Q197.72188 37.003124 197.64375 36.26875ZM197.4875 32.346874Q196.53438 32.7375 194.6125 33.003124Q193.53438 33.159374 193.08125 33.3625Q192.64375 33.55 192.39375 33.925Q192.14375 34.3 192.14375 34.76875Q192.14375 35.471874 192.675 35.940624Q193.20625 36.409374 194.2375 36.409374Q195.25313 36.409374 196.03438 35.971874Q196.83125 35.51875 197.20625 34.753124Q197.4875 34.14375 197.4875 32.9875L197.4875 32.346874ZM201.8625 37.55L201.8625 27.175L203.45625 27.175L203.45625 28.659374Q204.59688 26.940624 206.75313 26.940624Q207.69063 26.940624 208.47188 27.284374Q209.26875 27.6125 209.65938 28.159374Q210.05 28.70625 210.20625 29.45625Q210.3 29.95625 210.3 31.175L210.3 37.55L208.53438 37.55L208.53438 31.2375Q208.53438 30.159374 208.33125 29.628124Q208.12813 29.096874 207.59688 28.784374Q207.08125 28.471874 206.37813 28.471874Q205.25313 28.471874 204.44063 29.190624Q203.62813 29.89375 203.62813 31.878124L203.62813 37.55L201.8625 37.55ZM211.87813 37.55L211.87813 23.2375L213.64375 23.2375L213.64375 31.39375L217.8 27.175L220.06563 27.175L216.1125 31.01875L220.47188 37.55L218.3 37.55L214.87813 32.253124L213.64375 33.440624L213.64375 37.55L211.87813 37.55Z" fill-rule="nonzero"/></svg>